<?xml version="1.0" encoding="utf-8"?>
<!-- Generator: Adobe Illustrator 28.0.0, SVG Export Plug-In . SVG Version: 6.00 Build 0)  -->
<svg version="1.1" id="Calque_1" xmlns="http://www.w3.org/2000/svg" xmlns:xlink="http://www.w3.org/1999/xlink" x="0px" y="0px"
	 viewBox="0 0 144 144" enable-background="new 0 0 144 144" xml:space="preserve">
<g>
	<g>
		<defs>
			<rect id="SVGID_1_" x="9.4" y="33.1" width="85.9" height="107.9"/>
		</defs>
		<clipPath id="SVGID_00000094598335114080577520000009100858182050501293_">
			<use xlink:href="#SVGID_1_"  overflow="visible"/>
		</clipPath>
		<g clip-path="url(#SVGID_00000094598335114080577520000009100858182050501293_)">
			<g>
				<defs>
					
						<rect id="SVGID_00000049917485122892128690000004824233519049162405_" x="2.1" y="39.8" transform="matrix(0.9871 -0.1601 0.1601 0.9871 -13.5856 9.5095)" width="100.2" height="98.4"/>
				</defs>
				<clipPath id="SVGID_00000181778715698027913340000000851678676246902437_">
					<use xlink:href="#SVGID_00000049917485122892128690000004824233519049162405_"  overflow="visible"/>
				</clipPath>
				<g clip-path="url(#SVGID_00000181778715698027913340000000851678676246902437_)">
					<g>
						<defs>
							
								<rect id="SVGID_00000056396157812303857470000010732149855240469146_" x="2.1" y="39.8" transform="matrix(0.9871 -0.1602 0.1602 0.9871 -13.5752 9.5077)" width="100.2" height="98.4"/>
						</defs>
						<clipPath id="SVGID_00000087379871856134230310000008821725840938301835_">
							<use xlink:href="#SVGID_00000056396157812303857470000010732149855240469146_"  overflow="visible"/>
						</clipPath>
						<g clip-path="url(#SVGID_00000087379871856134230310000008821725840938301835_)">
							<path fill="#B24A38" d="M91.5,50.4c-0.3-0.1-0.7-0.2-1-0.2C90.8,50.3,91.1,50.3,91.5,50.4z M69.8,40.4c0-0.1-0.1-0.2-0.1-0.3
								L69.6,40l0,0l0,0c-0.1,0-0.3,0.4-0.4,0.5l0,0.1c0,0,0.1,0,0.1,0c0,0,0.1,0,0.1,0C69.5,40.6,69.6,40.5,69.8,40.4z M64.5,42.4
								c0.1-0.1,0.2-0.3,0.3-0.5c-0.1-0.1-0.2-0.1-0.3-0.2c-0.3,0-0.3,0.3-0.2,0.5C64.4,42.4,64.4,42.5,64.5,42.4z M63.8,62.6
								c0,0-0.1,0-0.1-0.1c-0.1-0.1-0.2-0.1-0.4-0.1c-0.1,0-0.1,0-0.2,0l0,0c0,0.1,0,0.2,0,0.3c0,0,0,0.1,0,0.1l0,0
								C63.3,62.9,63.6,62.7,63.8,62.6z M60.5,62.7c0.1-0.1,0.1-0.3,0-0.4c0,0.1-0.1,0.2-0.3,0.2c-0.1,0-0.3,0-0.3,0.1l0,0
								c0,0.1,0.1,0.2,0.2,0.2C60.3,62.9,60.4,62.8,60.5,62.7z M58,64.1c0-0.1,0-0.2,0-0.3c0-0.1,0-0.2-0.1-0.3
								c-0.2-0.2-0.6-0.1-0.8,0c0.1,0.4,0.4,0.6,0.7,0.6C57.9,64.2,58,64.1,58,64.1z M61.1,92.1c0,0,0.1,0.1,0.1,0.1
								c0,0,0.1,0.1,0.1,0.1c0-0.1,0-0.2-0.1-0.3C61.1,92.1,61.1,92.1,61.1,92.1z M39.8,121.6c0.3-0.2,0.7-0.4,1-0.6
								c-0.1-0.2-0.1-0.4,0-0.5c0.1-0.3,0.3-0.5,0.4-0.7c-0.4,0.4-0.8,0.7-1.2,0.9c0,0.2-0.3,0.3-0.4,0.3c-0.2,0.4-0.4,0.7-0.5,1.1
								C39.3,121.9,39.5,121.7,39.8,121.6z M44.9,109.1c0-0.1-0.1-0.2-0.2-0.3c0-0.1-0.1-0.1-0.1-0.1l0,0c-0.1,0.1-0.1,0.2-0.2,0.2
								c0,0-0.1,0.1-0.1,0.1l0,0c0.1,0.1,0.4,0.2,0.7,0.2C45,109.2,45,109.1,44.9,109.1z M42.7,106.9c-0.1,0.1-0.2,0.1-0.4,0
								c-0.1-0.1-0.2-0.2-0.3-0.2l0,0c0,0.1,0,0.2,0,0.3c0.1,0.1,0.3,0.2,0.5,0.1C42.6,107.1,42.7,107,42.7,106.9z M39.9,106.4
								c0.1-0.1,0.1-0.2,0.1-0.3c-0.1-0.3-0.3-0.5-0.6-0.6c-0.2,0.3-0.1,0.7,0.2,0.9c0,0,0.1,0.1,0.2,0.1
								C39.7,106.5,39.8,106.5,39.9,106.4z M53.1,133.1c0.2,0.1,0.4-0.1,0.6-0.2c0.1-0.2,0.2-0.6-0.1-0.7c-0.1,0-0.1,0-0.2,0
								c-0.3,0.1-0.6,0.5-0.6,0.8C53,133,53.1,133.1,53.1,133.1z M80,114.6c0.1-0.1,0.2-0.2,0.2-0.3c-0.2,0-0.5,0.2-0.6,0.3l0,0.1
								C79.8,114.7,79.9,114.7,80,114.6z M77.5,112.6c0,0,0.1-0.1,0.1-0.1c0.1-0.1,0.1-0.2,0.1-0.3c-0.1-0.2-0.3-0.4-0.4-0.3
								c-0.2,0.1-0.4,0.5-0.3,0.7c0,0,0.1,0,0.1,0C77.2,112.7,77.4,112.7,77.5,112.6z M81.3,94.8L81.3,94.8L81.3,94.8L81.3,94.8z
								 M79.8,90.6c0.3-0.7,0.8-1.3,1.2-1.9C80.5,89.3,80.1,89.9,79.8,90.6z M70.2,96.7L70.2,96.7L70.2,96.7L70.2,96.7z M78.3,76
								c0-0.1,0-0.2,0-0.2C78.2,75.8,78.2,75.9,78.3,76C78.2,76,78.2,76,78.3,76z M88.3,33.7c0.1,0.4,0.1,0.9,0.2,1.3
								c0.8,1.7,0.3,4.1-0.6,6.1c-0.2,0.7-0.5,1.3-0.8,1.9c0.1,0,0.2,0,0.4,0c0.4-0.1,0.9-0.2,1.3-0.3c0.8-0.5,1.7-0.9,2.6-1.1
								c0.7-0.3,1.4-0.6,2.1-0.9l0,0c0.1,0,0.2,0,0.2-0.1c0.6-0.2,0.9,0.2,1,0.7c0,0,0.1,0,0.1,0c0.2,0,0.3,0.2,0.3,0.4
								c-0.4,1.4-2.1,1.8-3.3,2c-0.3,0.1-0.6,0.1-0.9,0.2c-0.8,0.3-1.5,0.6-2.3,1c1.4,0.7,2.7,1.8,3.7,3c1,1.1,1.8,2.3,2.4,3.6
								c0.1,0.2-0.1,0.5-0.4,0.4c-0.2-0.1-0.4-0.2-0.7-0.2c-0.3,0.1-0.7,0.1-0.9-0.2l0,0c-1.5-0.4-3.4-0.9-5.1-1.5
								c-0.7-0.1-1.5-0.2-2.1-0.6c-0.6-0.3-0.9-0.8-1.1-1.4c-0.4-0.5-0.6-1.1-0.4-1.8c-1.5,1.2-3.2,2.2-4.6,3.4
								c-1.2,1-2.3,2.3-3.2,3.6c-0.3,0.5-0.6,0.9-0.8,1.4c0.3,4.4,0.3,9-0.1,13.5c0.1-0.1,0.2-0.2,0.3-0.2c0.5-0.5,1.5-1.4,2.3-1.1
								c0.1,0.1,0.2,0.2,0.2,0.3c-0.4,1.4-1.8,2.2-3,3c-0.5,4.2-1.3,8.4-2.5,12.6c1.3-1.9,2.8-3.8,4.4-5.6c0.2-0.2,0.3-0.4,0.5-0.5
								c-0.2-0.9,0-1.9,0.5-2.8c0.2-1.2,1-2.3,1.9-3c0.3-0.2,0.5-0.2,0.7-0.1c0,0,0.1,0,0.1-0.1c1.2-1.4,2.7-2.4,4.6-2.3
								c0.2,0,0.4,0.1,0.6,0.3c0.1,0,0.3,0,0.4,0c0.2,0,0.3,0.1,0.3,0.3c-0.6,1.7-1.2,3.5-2.2,5.1c-1.3,2.5-3.4,4.5-6.2,3.4l-0.1,0
								c-0.2,0-0.3-0.1-0.5-0.2c-0.1,0.1-0.2,0.2-0.3,0.4c-1.7,1.9-3.2,4-4.9,5.9c0,0,0,0-0.1,0c-0.3,1.1-0.6,2.1-1,3.2
								c-1.5,4.6-3.4,9-5.6,13.1c1-0.9,2.2-1.6,3.4-2.2c0-0.7,0.3-1.4,0.7-2c0.4-1,1.5-2.1,1.8-2.6c0.4-0.6,1.4-0.4,1.5,0.3
								c0.1,1-0.3,2.1-1.3,2.4c-0.3,0.3-0.6,0.7-1,1l0,0.1c2.2-0.9,4.7-1.3,6.9-2.2c0.2-0.1,0.4-0.3,0.7-0.4c0.1,0,0.2-0.1,0.2-0.1
								c-0.1-0.1-0.1-0.2-0.1-0.3c-0.7-3,1.8-5.5,4.1-7.3c0.1-0.1,0.2-0.3,0.3-0.4c0.2-0.2,0.4-0.3,0.6-0.3c0.2-0.2,0.4-0.3,0.7-0.5
								c0.2-0.1,0.5,0,0.4,0.2c-0.1,0.3-0.1,0.6-0.2,0.9c0,0.1,0,0.1,0,0.2c-0.2,2.6-1.9,5.9-4.1,7.3c-0.1,0.1-0.3,0.1-0.5,0.2
								c-0.2,0.1-0.3,0.2-0.5,0.4c0,0,0.1,0.1,0.1,0.1c0,0,0,0.1,0.1,0.1c0.1,0,0.1,0,0.2,0c0.8-0.4,1.7-0.6,2.6-0.8
								c1.8-0.5,4.4-0.8,5.8,0.5c0.1,0.1,0.2,0.3,0.2,0.5c0.1,0.1,0.1,0.2,0,0.4c-0.5,0.7-1.2,0.9-2,0.9c-0.4,0-0.9,0-1.4,0
								c-0.6-0.1-1.2-0.2-1.8-0.3c-0.3,0-0.5-0.1-0.8-0.1l0,0l0,0c-0.3,0.1-0.7,0.1-1-0.2c-0.4-0.1-0.8-0.2-1.2-0.3
								c2.7,2.2,4.4,5.6,4.7,9.1c0,0.2-0.3,0.5-0.5,0.3c-1.2-1.1-5-3.2-6.9-5.4c-1.1-1.1-1.7-2.3-0.9-3.5c-1.8,0.6-3.7,1-5.4,1.6
								c-1.5,0.5-2.9,1.4-4.2,2.3c-1.2,0.9-2,1.9-2.8,3.1c-7.6,13-18.5,23.4-31.2,30.5c0.3,0,0.6,0,0.9,0c0.1,0,0.1,0,0.1,0.1
								c1.5-0.4,2.9-1.2,4.4-1.2c15.2-0.6,28.5-15.8,33-20.2c-0.3-0.1-0.5-0.4-0.5-0.7c-0.1-0.6,0.3-1.1,0.8-1.3
								c0.1-0.1,0.2-0.2,0.3-0.3c0.3-0.2,0.8-0.1,1,0.1c0,0,0.1,0.1,0.1,0.1c0.2,0.1,0.4,0.2,0.6,0.4c0.2,0.1,0.1,0.4,0,0.5
								c-0.1,0.2-0.3,0.4-0.4,0.5c-0.2,0.6-1,0.9-1.7,0.8c-3,3.4-6.3,6.6-9.4,9.9c-0.1,0.1-0.2,0.2-0.3,0.3c1-0.4,2.1-0.6,3.1-1
								c1.5-0.7,3-1.5,4.4-2.4c0.2-0.1,0.3-0.2,0.5-0.3c-0.1-0.8,0-1.5,0.3-2.2c0.1-0.3,0.4-0.6,0.7-0.9c-0.1-0.2-0.2-0.4-0.1-0.6
								c0.1-0.5,0.4-0.9,0.8-1.2c0.4-0.2,0.8-0.2,1.1,0c0.3,0,0.5,0.2,0.6,0.5c0.1,0.3,0.1,0.6-0.1,0.9c0,0,0,0.1,0,0.1
								c-0.1,0.2-0.2,0.4-0.4,0.5c-0.4,0.3-0.9,0.5-1.4,0.3c-0.3,0.2-0.5,0.5-0.7,0.8c-0.3,0.5-0.6,1.2-0.6,1.8
								c2.1-1.3,4.1-2.7,5.9-4.5c-1.3-0.7-0.6-2.8,0.9-2.9c0.9,0,1.2,0.7,1.1,1.5c0.1,0.4,0,0.9-0.5,1.3c-0.1,0.1-0.3,0.1-0.4,0.2
								c-0.2,0.1-0.3,0.1-0.5,0.1c0,0-0.1,0-0.1,0l-0.1,0c-0.7,1.2-1.8,2.1-3.1,2.9c1.8-0.3,3.1-1.4,4.8-2.2c0.2-0.9,1.2-1.6,2-1
								c0,0,0.1,0.1,0.1,0.1c0.3,0.1,0.6,0.3,0.7,0.8c0.2,0.8-0.7,1.2-1.6,1.3c-0.2,0.1-0.4,0.1-0.6,0c-0.3-0.1-0.6-0.2-0.6-0.4
								l0-0.1c0,0,0-0.1,0-0.1c-1.4,1.1-3.4,2.2-5.2,1.9c-1,0.7-2.1,1.2-3,1.8c-2.4,1.5-5.5,3.4-8.4,3.5c-2.9,2.9-5.9,5.2-9.6,7.1
								c-3.5,1.8-7.1,2.9-10.9,3.6c1.6,0.5,3.1,0.9,4.8,0.9c2,0.1,3.8-0.5,5.7-1c0-0.2,0.1-0.4,0.2-0.6c0.3-0.5,0.8-0.9,1.4-1
								c0.7-0.1,1.3,0.4,1.4,1c0,0.6-0.3,1.1-0.8,1.4c0,0-0.1,0.1-0.1,0.1c-0.4,0.4-1.1,0.4-1.6,0.1c-0.2-0.2-0.4-0.4-0.4-0.7
								c-2.2,1-4.8,1.3-7.4,1c0.7,1,1.6,1.6,2.7,2.1c0.6,0.3,1.3,0.4,2,0.7c0,0,0-0.1,0.1-0.1c0.4-0.7,1.4-0.8,1.9-0.2
								c0,0,0.1,0.1,0.1,0.1c0,0,0,0,0.1,0.1c0.6,0.5,0.5,1.3-0.1,1.7c-0.1,0-0.1,0.1-0.2,0.1c-0.2,0.1-0.4,0.2-0.6,0.3
								c-0.4,0.2-0.8,0-1.1-0.4c0,0,0,0,0-0.1c0,0,0-0.1-0.1-0.1l0-0.1c0,0,0-0.1-0.1-0.1c-0.1-0.2-0.1-0.4-0.1-0.6
								c-0.8-0.2-1.6-0.6-2.3-1c-0.9-0.5-2.4-1.2-2.5-2.3c0,0,0-0.1,0-0.1c-1.3-0.2-2.6-0.6-3.8-1.1c-0.4,0.1-0.8,0.1-1.3,0.2
								c-2.4,0.4-4.8,0.6-7.1,1.2c-1,0.2-2,0.5-3.1,0.7c-1.5,0.7-3,1.4-4.5,2.1c-3.1,1-6.2,2.1-9.3,3c-1.2,0.3-2.3,0.5-3.5,0.7
								c-0.7-0.1-1.3-0.3-2-0.4c5.7-1.2,11.3-3.1,16.6-5.5c1.3-1.2,2.6-2.5,3.7-3.8c-0.1-0.1-0.1-0.1-0.2-0.2
								c-0.5-0.8-0.5-1.9,0.1-2.6c0.2-0.2,0.5-0.1,0.6,0.1c0.2,0.5,0.4,1.1,0.4,1.6c0.8-1,1.6-2,2.3-3.1c1-1.5,1.8-3,2.5-4.6
								c-0.7-0.4-1.5-0.8-2-1.4c-0.4-0.5-0.5-1.4,0.1-1.7c0.5-0.3,1.2,0.5,1.4,0.9c0.2,0.3,0.4,0.6,0.6,0.9c0.1,0.2,0.1,0.3,0.2,0.5
								c0.8-1.9,1.6-3.8,2.3-5.7c0-0.3-0.1-0.7-0.3-1c-0.2,0.1-0.4,0.2-0.7,0.1c-0.4,0.1-0.8-0.1-1.2-0.2c-0.1,0-0.1,0-0.2-0.1
								c0,0-0.1,0-0.1,0c-0.5-0.2-0.9-0.4-1.3-0.7c-0.3-0.2-0.4-0.7-0.3-1c0.2-0.4,0.5-0.5,0.9-0.6c1,0,3,0.3,3.1,1.6
								c0,0.2,0,0.4-0.2,0.6c0.1,0.3,0.2,0.6,0.2,1c0,0,0.1,0.1,0.1,0.1c0,0.1,0,0.1-0.1,0.2c0.1-0.1,0.1-0.1,0.2-0.2
								c0.3-0.4,0.7-0.8,1.1-1.2c0.1-0.1,0.1-0.1,0.2-0.2l0,0c-0.2-2.2-0.6-4.5-0.4-6.8l0,0c-0.1,0-0.3,0.1-0.4,0.1
								c-0.8,0.2-1.7-0.3-1.8-1.3c0-0.4,0.1-0.8,0.4-1.1c0.3-0.6,0.9-1,1.7-0.9c0.8,0.1,1.5,1.2,1.4,2c0,0.5-0.3,0.9-0.7,1.1
								c0,2.3,0,4.5,0.1,6.8c0.3-0.4,0.7-0.8,1-1.2c0.4-1.5,0.5-3.1,0.9-4.7c-0.4,0-0.7-0.1-0.9-0.4c-0.1-0.1-0.2-0.2-0.3-0.4
								c-0.1-0.2-0.1-0.6,0-0.8c0.2-1.3,2.3-1.3,2.5,0c0.1,0.7-0.3,1.3-0.9,1.5c-0.2,1.5-0.6,2.9-1,4.4c0.7-0.8,1.3-1.7,1.8-2.7
								c-0.3-0.2-0.5-0.6-0.5-1.1c0-1,1.2-1.3,2-1c0.6,0.2,0.8,0.9,0.7,1.5c0,0.1,0,0.2,0,0.3c-0.1,0.2-0.2,0.3-0.4,0.4
								c-0.2,0.1-0.4,0.2-0.6,0.2c0,0-0.1,0-0.1,0c-0.2,0-0.3,0-0.5,0c-0.1,0-0.1,0-0.2-0.1c-0.5,1.3-1.4,2.5-2.5,3.6
								c1-0.5,2.1-0.9,3.1-1.1c-0.1-0.5,0-1.1,0.5-1.3c0.6-0.3,1.4,0.1,1.8,0.5c0.1,0.1,0.1,0.2,0.2,0.2c0.1,0,0.1,0.1,0.1,0.2
								c0,0,0,0.1,0,0.1c0,0.3-0.1,0.6-0.4,0.7c-0.4,0.4-1,0.6-1.6,0.3c-0.2-0.1-0.3-0.3-0.4-0.5c-1.4,0.6-2.8,1-4,1.8
								c-0.5,0.5-1.1,1-1.6,1.5l0,0l0,0c0,0-0.1,0-0.1,0.1c-0.6,2.6-1.6,5.1-2.8,7.5c0.9-0.6,1.8-1,2.8-1.5c0-0.6,0.3-1.2,0.5-1.7
								l0,0c0-1.6,1.2-3.1,2.9-3c0.2,0,0.4,0.2,0.3,0.4c-0.2,0.4-0.4,0.7-0.6,1.1c0.5-0.5,1.1-0.9,1.7-1.3c0.6-0.3,1.2-0.5,1.9-0.5
								c0.3,0,0.6,0.1,0.9,0.3c0.1,0.1,0.2,0.2,0.3,0.2c0,0,0.4,0.6,0.2,0.3c0.2,0.3,0,0.7-0.2,0.9c-0.1,0.1-0.2,0.2-0.4,0.3
								c0,0.1-0.1,0.1-0.1,0.2c-0.1,0.4-0.6,0.7-0.9,1c-1,0.7-2.3,1-3.5,1.2c-0.3,0.1-0.6-0.1-0.7-0.3c-0.3,0.2-0.7,0.4-1,0.6
								c-0.3,0.2-0.7,0.4-1,0.6c1,0,2.7,0.5,2.8,1.7c0,0.1-0.1,0.3-0.2,0.3c-1.3,0.3-2.5-0.6-3.3-1.5c0,0,0,0,0-0.1
								c-0.8,0.4-1.6,0.8-2.4,1c-0.6,1.1-1.2,2.2-1.9,3.2c0.1-0.1,0.3-0.1,0.4-0.2c0.4-0.2,1.3-0.6,1.8-0.4c0.6,0.3,0.1,1-0.3,1.3
								c-0.6,0.4-1.5,0.4-2.2,0.3c-0.1,0-0.2,0.1-0.3,0.1c-0.1,0-0.1,0-0.2,0c-0.5,0.7-1.1,1.4-1.7,2.1c0.7-0.3,1.6-0.4,2.2-0.1
								c0.2,0.1,0.2,0.3,0,0.5c-0.6,0.5-1.5,0.5-2.3,0.5c0,0-0.1,0-0.1,0c-0.2,0-0.4,0-0.5,0c-0.9,1-1.9,2-2.9,3c0,0,0.1,0,0.1,0
								c11.5-5.5,21.7-13.6,29.6-23.8c0.1-2.3,0.3-4.5,0.6-6.7c0-0.2,0.1-0.5,0.1-0.7c-1.3-1.2-1.3-3.7-1-5.3c0.2-0.9,0.5-1.9,1-2.7
								c0.5-1,1-1.9,1.6-2.7c0.2-0.3,0.5-0.4,0.8-0.3c0.2-0.2,0.4-0.3,0.6-0.5c0.1-0.1,0.4-0.1,0.4,0.1c0.5,2.3,1.2,4.8,0.8,7.2
								c-0.2,1.6-1.1,3.2-2.4,4.1c-0.1,0.2-0.3,0.2-0.5,0.3c-0.3,0.1-0.5,0.2-0.8,0.3c0,0.2-0.1,0.3-0.1,0.5c-0.3,2-0.4,4-0.6,6.1
								c3.5-4.7,6.6-9.7,9.1-15.2c0.2-2,0.3-4,0.3-6c-0.1,0-0.2,0-0.3-0.1c-0.9-0.2-1.6-1.1-1.7-2c0-0.3,0.3-0.4,0.5-0.3
								c0.5,0.3,1,0.5,1.4,0.9c-0.1-1.3-0.2-2.6-0.4-3.9c-0.3-1.8-0.7-3.4-1.2-5.1c-0.8,0.2-1.6,0.4-2.4,0.3c-0.6-0.1-1.3-0.7-1-1.4
								c0.2-0.6,1.2-0.4,1.7-0.3c0.4,0.1,0.7,0.2,1.1,0.3c0.2,0.1,0.3,0.2,0.4,0.2c-0.6-1.9-1.4-3.9-2.1-5.8
								c-0.2-0.3-0.6-0.5-0.9-0.6l0,0c-0.1,0.2-0.2,0.3-0.4,0.5c0,0.1-0.1,0.1-0.2,0.2c0,0,0,0-0.1,0.1c-0.1,0.2-0.2,0.3-0.4,0.4
								c-0.4,0.4-1,0.6-1.5,0.6c-0.5,0-0.9-0.3-1-0.7c-0.1-0.1-0.1-0.2,0-0.3l0,0c0-0.1,0.1-0.2,0.1-0.2c0.5-0.8,1.3-1.2,2.1-1.5
								c0.3-0.1,0.7,0.2,0.9,0.5c0,0,0,0.1,0.1,0.1c0.5,0.1,0.9,0.3,1.3,0.7c0,0,0.1,0,0.1,0c0,0.1,0.1,0.1,0.1,0.2
								c0-0.1,0-0.2,0-0.3c-0.1-0.5,0-1.1,0.1-1.6c0-0.1,0-0.2,0-0.2l0,0c-1.6-1.5-3.5-3-4.8-4.8h0c-0.1,0.1-0.2,0.2-0.3,0.3
								c-0.5,0.7-1.5,0.9-2.2,0.3c-0.3-0.3-0.5-0.7-0.5-1.1c-0.2-0.7,0-1.4,0.6-1.8c0.7-0.5,1.9-0.1,2.4,0.5
								c0.3,0.4,0.4,0.9,0.2,1.3c1.5,1.7,3,3.3,4.6,5c0-0.5,0-1,0-1.6c-0.8-1.4-1.7-2.7-2.4-4.1c-0.3,0.3-0.6,0.4-1,0.3
								c-0.2,0-0.3,0-0.5-0.1c-0.3-0.1-0.5-0.3-0.6-0.6c-0.8-1.1,0.8-2.5,1.9-1.6c0.5,0.4,0.7,1.2,0.4,1.7c0.9,1.2,1.6,2.6,2.2,3.9
								c-0.1-1.1-0.2-2.1-0.4-3.2c-0.4,0-0.8-0.1-1.1-0.4c-0.7-0.8,0.1-1.8,0.8-2.1c0.6-0.2,1.2,0.1,1.5,0.6
								c0.1,0.1,0.1,0.1,0.1,0.2c0.1,0.2,0,0.4,0,0.5c0,0.2-0.1,0.4-0.3,0.5c0,0-0.1,0-0.1,0.1c-0.1,0.1-0.2,0.2-0.4,0.3
								c-0.1,0-0.1,0.1-0.2,0.1c0.5,1.3,0.6,2.9,0.6,4.4c0.4-1,1-2,1.5-2.9c-0.4-0.3-0.7-0.8-0.5-1.3c0.2-0.6,1.1-0.8,1.7-0.8
								c0.1,0,0.2,0,0.3,0.1c0.1,0,0.1,0,0.2,0c0,0,0,0.1,0,0.1c0.2,0.2,0.3,0.5,0.1,0.8c0,0.6-0.4,1.2-1,1.3
								c-0.2,0.1-0.4,0-0.6-0.1c-0.7,1.3-1.4,2.6-1.8,4c-0.1,0.7-0.1,1.5-0.2,2.2l0,0l0,0c0,0,0,0.1,0,0.1c1.3,2.3,2.2,4.8,2.9,7.5
								c0.3-1,0.7-2,1.1-3c-0.4-0.5-0.6-1.1-0.8-1.7l0,0c-1.1-1.2-1.2-3.1,0.2-4.2c0.2-0.2,0.4-0.1,0.5,0.1c0.4,1.3,0.4,2.6,0,3.8
								c0.2,0.2,0,0.4-0.2,0.5c0.1,0.4,0.2,0.8,0.4,1.2c0.1-0.3,0.2-0.5,0.3-0.8c0.3-0.8,0.4-1.5,0.6-2.3c-0.3-0.7-0.4-1.3-0.2-2
								c0-0.1,0-0.1,0-0.2c0.1-1.1,0.7-2.3,1.6-3c0.3-0.3,1-0.3,1.2,0.1c0.6,0.9,0.5,1.9,0.2,2.9c-0.2,0.7-0.7,1.7-1.4,2.1
								c-0.1,0.1-0.2,0.2-0.3,0.3c-0.2,0.2-0.4,0.4-0.6,0.6c0,0-0.1,0-0.1,0c-0.1,0.6-0.3,1.1-0.5,1.6c-0.1,0.4-0.2,0.7-0.4,1.1
								c0.8-0.7,2.4-1.4,3.2-0.6c0.1,0.1,0.1,0.3,0,0.4c-0.7,1.1-2.3,1.3-3.5,1.1c0,0-0.1,0-0.1,0c-0.3,0.8-0.7,1.6-1.1,2.4
								c0.3,1.2,0.5,2.4,0.7,3.7c0.1-0.1,0.1-0.3,0.2-0.4c0.2-0.4,0.5-1.3,1.1-1.4c0.7-0.2,0.7,0.7,0.6,1.1
								c-0.2,0.7-0.8,1.3-1.4,1.7c0,0.1-0.1,0.2-0.1,0.3c0,0.1-0.1,0.1-0.1,0.1c0.1,0.9,0.1,1.8,0.2,2.7c0.3-0.7,0.9-1.4,1.6-1.5
								c0.2,0,0.4,0.1,0.3,0.3c-0.1,0.8-0.8,1.4-1.4,1.9c0,0-0.1,0.1-0.1,0.1c-0.1,0.2-0.3,0.3-0.4,0.3c0,1.7-0.1,3.4-0.3,5
								c1.1-2.4,2-4.9,2.9-7.5c2.3-6.8,3.5-13.8,4-20.7c-0.4-0.6-0.7-1.9-0.8-2.3c-0.5-1.8-0.8-3.6-1.4-5.3c-0.4-1-0.8-2.1-1.3-3.1
								c0,0-0.1,0-0.2,0c-1.4,0.5-2.6,1.3-4.1,1.4c-1.1,0.1-2.3-0.2-3.3-0.5c-0.6-0.2-2.9-0.7-4.1-1.5c-0.1,0.1-0.3,0.1-0.4,0.2
								c-0.4,0.1-0.7,0-1-0.3c-0.1-0.1-0.1-0.1-0.2-0.2c-0.4-0.6-0.8-1.6,0-2c0.1-0.1,0.3-0.1,0.4-0.1c0.1,0,0.1-0.1,0.2-0.1
								c0.1-0.1,0.2-0.1,0.3-0.2c0.8-0.3,1.3,0.6,1.5,1.3c0,0.2,0,0.4,0,0.6c0.3,0.2,0.6,0.4,1,0.6c1,0.4,2.1,0.7,3.1,1
								c1.1,0.3,2.2,0.5,3.3,0.3c0.8-0.2,1.5-0.5,2.3-0.8c-3-1-5.5-3.8-7.4-6.3c-0.1,0-0.1,0-0.2,0c-0.3,0-0.5-0.1-0.7-0.3
								c-0.4-0.3-0.7-0.9-0.5-1.4c0.1-0.2,0.2-0.4,0.4-0.5c0.2-0.3,0.6-0.4,0.9-0.3l0.1,0c0.2,0,0.5,0,0.7,0.1
								c0.6,0.2,0.7,1,0.4,1.5c-0.1,0.2-0.3,0.4-0.5,0.6c1,1.3,2.1,2.6,3.3,3.7c1.3,1.1,2.8,1.8,4.3,2.6c-0.6-1.3-1.3-2.5-2-3.8
								c-1.3-2.3-2.6-4.6-4-6.9c-0.4,0-0.8-0.2-1-0.4c-0.3-0.1-0.6-0.4-0.7-0.8c-0.2-0.9,0.8-1.5,1.6-1.6c0.1,0,0.3,0,0.4,0
								c0.3,0,0.5,0,0.7,0.2c0.4,0.2,0.6,0.5,0.6,1c0.1,0,0.1,0.1,0.1,0.2c0,0.1-0.1,0.2-0.2,0.3c0,0.2-0.1,0.3-0.2,0.5l0,0
								c-0.1,0.2-0.3,0.4-0.6,0.5c1.5,2.5,3,5.1,4.4,7.7c0-0.2,0.1-0.5,0.1-0.7c0.2-0.9,0.3-1.7,0.4-2.6c0.1-1.9-0.4-3.9-1-5.7
								c-0.3-0.1-0.6-0.4-0.7-0.7c-0.3-0.2-0.5-0.6-0.6-0.9c-0.2-0.8,0.5-1.3,1.2-1.3c0.2,0,0.4,0,0.5,0c0.4,0,0.7,0.1,0.9,0.4
								c0.2,0.1,0.4,0.3,0.5,0.5c0.5,0.8-0.3,1.8-1.1,2.1c0.5,1.6,0.8,3.3,0.9,5c0,0.8,0,1.7-0.2,2.5c-0.2,0.7-0.3,1.6-0.6,2.2
								c0.9,1.8,1.8,3.7,2.6,5.6c0.6,1.4,0.8,3,1.2,4.5c0.2,0.8,0.4,1.5,0.6,2.2c0.1-2.3,0.1-4.6,0-6.9c0-0.2-0.1-0.5,0-0.7l0-0.1
								l0,0c0.1-0.9,0.6-1.8,1-2.6c0.6-1.2,1.5-2.3,2.4-3.3c-0.1-0.3-0.2-0.7-0.2-1.1c-0.2-0.5,0.1-1.2,0.3-1.7c0.2-0.6,0.5-1.5,1-2
								c0.1-0.2,0.2-0.3,0.3-0.5c0.1-0.2,0.4-0.2,0.5,0c0,0.1,0,0.1,0.1,0.2c0.5,0.1,0.8,0.6,0.4,1.2c-0.1,0.1-0.2,0.2-0.2,0.4
								c-0.1,0.8-0.5,1.6-0.9,2.3c1.9-1.6,4-2.8,5.8-4.5c0.1-0.1,0.2-0.3,0.3-0.4c-0.4-0.2-0.6-0.6-0.5-1.1c-0.1-0.5-0.1-1-0.2-1.4
								c-0.1-0.4-0.1-0.8,0-1.1c0-2.2,1-4,1.9-6c0.2-0.4,0.6-0.6,1-0.5c0.1-0.1,0.2-0.3,0.3-0.4C88,33.5,88.3,33.5,88.3,33.7"/>
						</g>
						<g clip-path="url(#SVGID_00000087379871856134230310000008821725840938301835_)">
							<path fill="#B24A38" d="M219,220c-0.3-0.1-0.7-0.2-1-0.2C218.4,219.8,218.7,219.9,219,220z M197.3,210c0-0.1-0.1-0.2-0.1-0.3
								l-0.1-0.1l0,0l0,0c-0.1,0-0.3,0.4-0.4,0.5l0,0.1c0,0,0.1,0,0.1,0c0,0,0.1,0,0.1,0C197.1,210.2,197.2,210.1,197.3,210z
								 M192.1,212c0.1-0.1,0.2-0.3,0.3-0.5c-0.1-0.1-0.2-0.1-0.3-0.2c-0.3,0-0.3,0.3-0.2,0.5C191.9,212,192,212,192.1,212z
								 M191.3,232.1c0,0-0.1,0-0.1-0.1c-0.1-0.1-0.2-0.1-0.4-0.1c-0.1,0-0.1,0-0.2,0l0,0c0,0.1,0,0.2,0,0.3c0,0,0,0.1,0,0.1l0,0
								C190.9,232.4,191.2,232.3,191.3,232.1z M188.1,232.3c0.1-0.1,0.1-0.3,0-0.4c0,0.1-0.1,0.2-0.3,0.2c-0.1,0-0.3,0-0.3,0.1l0,0
								c0,0.1,0.1,0.2,0.2,0.2C187.8,232.5,188,232.4,188.1,232.3z M185.6,233.7c0-0.1,0-0.2,0-0.3c0-0.1,0-0.2-0.1-0.3
								c-0.2-0.2-0.6-0.1-0.8,0c0.1,0.4,0.4,0.6,0.7,0.6C185.5,233.7,185.5,233.7,185.6,233.7z M188.6,261.7c0,0,0.1,0.1,0.1,0.1
								c0,0,0.1,0.1,0.1,0.1c0-0.1,0-0.2-0.1-0.3C188.7,261.6,188.7,261.7,188.6,261.7z M167.3,291.2c0.3-0.2,0.7-0.4,1-0.6
								c-0.1-0.2-0.1-0.4,0-0.5c0.1-0.3,0.3-0.5,0.4-0.7c-0.4,0.4-0.8,0.7-1.2,0.9c0,0.2-0.3,0.3-0.4,0.3c-0.2,0.4-0.4,0.7-0.5,1.1
								C166.9,291.4,167.1,291.3,167.3,291.2z M172.5,278.7c0-0.1-0.1-0.2-0.2-0.3c0-0.1-0.1-0.1-0.1-0.1l0,0
								c-0.1,0.1-0.1,0.2-0.2,0.2c0,0-0.1,0.1-0.1,0.1l0,0c0.1,0.1,0.4,0.2,0.7,0.2C172.5,278.8,172.5,278.7,172.5,278.7z
								 M170.3,276.5c-0.1,0.1-0.2,0.1-0.4,0c-0.1-0.1-0.2-0.2-0.3-0.2l0,0c0,0.1,0,0.2,0,0.3c0.1,0.1,0.3,0.2,0.5,0.1
								C170.2,276.7,170.2,276.6,170.3,276.5z M167.4,276c0.1-0.1,0.1-0.2,0.1-0.3c-0.1-0.3-0.3-0.5-0.6-0.6
								c-0.2,0.3-0.1,0.7,0.2,0.9c0,0,0.1,0.1,0.2,0.1C167.3,276.1,167.4,276,167.4,276z M180.7,302.7c0.2,0.1,0.4-0.1,0.6-0.2
								c0.1-0.2,0.2-0.6-0.1-0.7c-0.1,0-0.1,0-0.2,0c-0.3,0.1-0.6,0.5-0.6,0.8C180.5,302.6,180.6,302.6,180.7,302.7z M207.6,284.2
								c0.1-0.1,0.2-0.2,0.2-0.3c-0.2,0-0.5,0.2-0.6,0.3l0,0.1C207.3,284.3,207.5,284.2,207.6,284.2z M205.1,282.2
								c0,0,0.1-0.1,0.1-0.1c0.1-0.1,0.1-0.2,0.1-0.3c-0.1-0.2-0.3-0.4-0.4-0.3c-0.2,0.1-0.4,0.5-0.3,0.7c0,0,0.1,0,0.1,0
								C204.8,282.3,204.9,282.3,205.1,282.2z M208.9,264.4L208.9,264.4L208.9,264.4L208.9,264.4z M207.3,260.2
								c0.3-0.7,0.8-1.3,1.2-1.9C208,258.9,207.6,259.5,207.3,260.2z M197.7,266.3L197.7,266.3L197.7,266.3L197.7,266.3z
								 M205.8,245.6c0-0.1,0-0.2,0-0.2C205.8,245.4,205.8,245.5,205.8,245.6C205.8,245.6,205.8,245.6,205.8,245.6z M215.9,203.3
								c0.1,0.4,0.1,0.9,0.2,1.3c0.8,1.7,0.3,4.1-0.6,6.1c-0.2,0.7-0.5,1.3-0.8,1.9c0.1,0,0.2,0,0.4,0c0.4-0.1,0.9-0.2,1.3-0.3
								c0.8-0.5,1.7-0.9,2.6-1.1c0.7-0.3,1.4-0.6,2.1-0.9l0,0c0.1,0,0.2,0,0.2-0.1c0.6-0.2,0.9,0.2,1,0.7c0,0,0.1,0,0.1,0
								c0.2,0,0.3,0.2,0.3,0.4c-0.4,1.4-2.1,1.8-3.3,2c-0.3,0.1-0.6,0.1-0.9,0.2c-0.8,0.3-1.5,0.6-2.3,1c1.4,0.7,2.7,1.8,3.7,3
								c1,1.1,1.8,2.3,2.4,3.6c0.1,0.2-0.1,0.5-0.4,0.4c-0.2-0.1-0.4-0.2-0.7-0.2c-0.3,0.1-0.7,0.1-0.9-0.2l0,0
								c-1.5-0.4-3.4-0.9-5.1-1.5c-0.7-0.1-1.5-0.2-2.1-0.6c-0.6-0.3-0.9-0.8-1.1-1.4c-0.4-0.5-0.6-1.1-0.4-1.8
								c-1.5,1.2-3.2,2.2-4.6,3.4c-1.2,1-2.3,2.3-3.2,3.6c-0.3,0.5-0.6,0.9-0.8,1.4c0.3,4.4,0.3,9-0.1,13.5c0.1-0.1,0.2-0.2,0.3-0.2
								c0.5-0.5,1.5-1.4,2.3-1.1c0.1,0.1,0.2,0.2,0.2,0.3c-0.4,1.4-1.8,2.2-3,3c-0.5,4.2-1.3,8.4-2.5,12.6c1.3-1.9,2.8-3.8,4.4-5.6
								c0.2-0.2,0.3-0.4,0.5-0.5c-0.2-0.9,0-1.9,0.5-2.8c0.2-1.2,1-2.3,1.9-3c0.3-0.2,0.5-0.2,0.7-0.1c0,0,0.1,0,0.1-0.1
								c1.2-1.4,2.7-2.4,4.6-2.3c0.2,0,0.4,0.1,0.6,0.3c0.1,0,0.3,0,0.4,0c0.2,0,0.3,0.1,0.3,0.3c-0.6,1.7-1.2,3.5-2.2,5.1
								c-1.3,2.5-3.4,4.5-6.2,3.4l-0.1,0c-0.2,0-0.3-0.1-0.5-0.2c-0.1,0.1-0.2,0.2-0.3,0.4c-1.7,1.9-3.2,4-4.9,5.9c0,0,0,0-0.1,0
								c-0.3,1.1-0.6,2.1-1,3.2c-1.5,4.6-3.4,9-5.6,13.1c1-0.9,2.2-1.6,3.4-2.2c0-0.7,0.3-1.4,0.7-2c0.4-1,1.5-2.1,1.8-2.6
								c0.4-0.6,1.4-0.4,1.5,0.3c0.1,1-0.3,2.1-1.3,2.4c-0.3,0.3-0.6,0.7-1,1l0,0.1c2.2-0.9,4.7-1.3,6.9-2.2
								c0.2-0.1,0.4-0.3,0.7-0.4c0.1,0,0.2-0.1,0.2-0.1c-0.1-0.1-0.1-0.2-0.1-0.3c-0.7-3,1.8-5.5,4.1-7.3c0.1-0.1,0.2-0.3,0.3-0.4
								c0.2-0.2,0.4-0.3,0.6-0.3c0.2-0.2,0.4-0.3,0.7-0.5c0.2-0.1,0.5,0,0.4,0.2c-0.1,0.3-0.1,0.6-0.2,0.9c0,0.1,0,0.1,0,0.2
								c-0.2,2.6-1.9,5.9-4.1,7.3c-0.1,0.1-0.3,0.1-0.5,0.2c-0.2,0.1-0.3,0.2-0.5,0.4c0,0,0.1,0.1,0.1,0.1c0,0,0,0.1,0.1,0.1
								c0.1,0,0.1,0,0.2,0c0.8-0.4,1.7-0.6,2.6-0.8c1.8-0.5,4.4-0.8,5.8,0.5c0.1,0.1,0.2,0.3,0.2,0.5c0.1,0.1,0.1,0.2,0,0.4
								c-0.5,0.7-1.2,0.9-2,0.9c-0.4,0-0.9,0-1.4,0c-0.6-0.1-1.2-0.2-1.8-0.3c-0.3,0-0.5-0.1-0.8-0.1l0,0l0,0
								c-0.3,0.1-0.7,0.1-1-0.2c-0.4-0.1-0.8-0.2-1.2-0.3c2.7,2.2,4.4,5.6,4.7,9.1c0,0.2-0.3,0.5-0.5,0.3c-1.2-1.1-5-3.2-6.9-5.4
								c-1.1-1.1-1.7-2.3-0.9-3.5c-1.8,0.6-3.7,1-5.4,1.6c-1.5,0.5-2.9,1.4-4.2,2.3c-1.2,0.9-2,1.9-2.8,3.1
								c-7.6,13-18.5,23.4-31.2,30.5c0.3,0,0.6,0,0.9,0c0.1,0,0.1,0,0.1,0.1c1.5-0.4,2.9-1.2,4.4-1.2c15.2-0.6,28.5-15.8,33-20.2
								c-0.3-0.1-0.5-0.4-0.5-0.7c-0.1-0.6,0.3-1.1,0.8-1.3c0.1-0.1,0.2-0.2,0.3-0.3c0.3-0.2,0.8-0.1,1,0.1c0,0,0.1,0.1,0.1,0.1
								c0.2,0.1,0.4,0.2,0.6,0.4c0.2,0.1,0.1,0.4,0,0.5c-0.1,0.2-0.3,0.4-0.4,0.5c-0.2,0.6-1,0.9-1.7,0.8c-3,3.4-6.3,6.6-9.4,9.9
								c-0.1,0.1-0.2,0.2-0.3,0.3c1-0.4,2.1-0.6,3.1-1c1.5-0.7,3-1.5,4.4-2.4c0.2-0.1,0.3-0.2,0.5-0.3c-0.1-0.8,0-1.5,0.3-2.2
								c0.1-0.3,0.4-0.6,0.7-0.9c-0.1-0.2-0.2-0.4-0.1-0.6c0.1-0.5,0.4-0.9,0.8-1.2c0.4-0.2,0.8-0.2,1.1,0c0.3,0,0.5,0.2,0.6,0.5
								c0.1,0.3,0.1,0.6-0.1,0.9c0,0,0,0.1,0,0.1c-0.1,0.2-0.2,0.4-0.4,0.5c-0.4,0.3-0.9,0.5-1.4,0.3c-0.3,0.2-0.5,0.5-0.7,0.8
								c-0.3,0.5-0.6,1.2-0.6,1.8c2.1-1.3,4.1-2.7,5.9-4.5c-1.3-0.7-0.6-2.8,0.9-2.9c0.9,0,1.2,0.7,1.1,1.5c0.1,0.4,0,0.9-0.5,1.3
								c-0.1,0.1-0.3,0.1-0.4,0.2c-0.2,0.1-0.3,0.1-0.5,0.1c0,0-0.1,0-0.1,0l-0.1,0c-0.7,1.2-1.8,2.1-3.1,2.9
								c1.8-0.3,3.1-1.4,4.8-2.2c0.2-0.9,1.2-1.6,2-1c0,0,0.1,0.1,0.1,0.1c0.3,0.1,0.6,0.3,0.7,0.8c0.2,0.8-0.7,1.2-1.6,1.3
								c-0.2,0.1-0.4,0.1-0.6,0c-0.3-0.1-0.6-0.2-0.6-0.4l0-0.1c0,0,0-0.1,0-0.1c-1.4,1.1-3.4,2.2-5.2,1.9c-1,0.7-2.1,1.2-3,1.8
								c-2.4,1.5-5.5,3.4-8.4,3.5c-2.9,2.9-5.9,5.2-9.6,7.1c-3.5,1.8-7.1,2.9-10.9,3.6c1.6,0.5,3.1,0.9,4.8,0.9c2,0.1,3.8-0.5,5.7-1
								c0-0.2,0.1-0.4,0.2-0.6c0.3-0.5,0.8-0.9,1.4-1c0.7-0.1,1.3,0.4,1.4,1c0,0.6-0.3,1.1-0.8,1.4c0,0-0.1,0.1-0.1,0.1
								c-0.4,0.4-1.1,0.4-1.6,0.1c-0.2-0.2-0.4-0.4-0.4-0.7c-2.2,1-4.8,1.3-7.4,1c0.7,1,1.6,1.6,2.7,2.1c0.6,0.3,1.3,0.4,2,0.7
								c0,0,0-0.1,0.1-0.1c0.4-0.7,1.4-0.8,1.9-0.2c0,0,0.1,0.1,0.1,0.1c0,0,0,0,0.1,0.1c0.6,0.5,0.5,1.3-0.1,1.7
								c-0.1,0-0.1,0.1-0.2,0.1c-0.2,0.1-0.4,0.2-0.6,0.3c-0.4,0.2-0.8,0-1.1-0.4c0,0,0,0,0-0.1c0,0,0-0.1-0.1-0.1l0-0.1
								c0,0,0-0.1-0.1-0.1c-0.1-0.2-0.1-0.4-0.1-0.6c-0.8-0.2-1.6-0.6-2.3-1c-0.9-0.5-2.4-1.2-2.5-2.3c0,0,0-0.1,0-0.1
								c-1.3-0.2-2.6-0.6-3.8-1.1c-0.4,0.1-0.8,0.1-1.3,0.2c-2.4,0.4-4.8,0.6-7.1,1.2c-1,0.2-2,0.5-3.1,0.7c-1.5,0.7-3,1.4-4.5,2.1
								c-3.1,1-6.2,2.1-9.3,3c-1.2,0.3-2.3,0.5-3.5,0.7c-0.7-0.1-1.3-0.3-2-0.4c5.7-1.2,11.3-3.1,16.6-5.5c1.3-1.2,2.6-2.5,3.7-3.8
								c-0.1-0.1-0.1-0.1-0.2-0.2c-0.5-0.8-0.5-1.9,0.1-2.6c0.2-0.2,0.5-0.1,0.6,0.1c0.2,0.5,0.4,1.1,0.4,1.6c0.8-1,1.6-2,2.3-3.1
								c1-1.5,1.8-3,2.5-4.6c-0.7-0.4-1.5-0.8-2-1.4c-0.4-0.5-0.5-1.4,0.1-1.7c0.5-0.3,1.2,0.5,1.4,0.9c0.2,0.3,0.4,0.6,0.6,0.9
								c0.1,0.2,0.1,0.3,0.2,0.5c0.8-1.9,1.6-3.8,2.3-5.7c0-0.3-0.1-0.7-0.3-1c-0.2,0.1-0.4,0.2-0.7,0.1c-0.4,0.1-0.8-0.1-1.2-0.2
								c-0.1,0-0.1,0-0.2-0.1c0,0-0.1,0-0.1,0c-0.5-0.2-0.9-0.4-1.3-0.7c-0.3-0.2-0.4-0.7-0.3-1c0.2-0.4,0.5-0.5,0.9-0.6
								c1,0,3,0.3,3.1,1.6c0,0.2,0,0.4-0.2,0.6c0.1,0.3,0.2,0.6,0.2,1c0,0,0.1,0.1,0.1,0.1c0,0.1,0,0.1-0.1,0.2
								c0.1-0.1,0.1-0.1,0.2-0.2c0.3-0.4,0.7-0.8,1.1-1.2c0.1-0.1,0.1-0.1,0.2-0.2l0,0c-0.2-2.2-0.6-4.5-0.4-6.8l0,0
								c-0.1,0-0.3,0.1-0.4,0.1c-0.8,0.2-1.7-0.3-1.8-1.3c0-0.4,0.1-0.8,0.4-1.1c0.3-0.6,0.9-1,1.7-0.9c0.8,0.1,1.5,1.2,1.4,2
								c0,0.5-0.3,0.9-0.7,1.1c0,2.3,0,4.5,0.1,6.8c0.3-0.4,0.7-0.8,1-1.2c0.4-1.5,0.5-3.1,0.9-4.7c-0.4,0-0.7-0.1-0.9-0.4
								c-0.1-0.1-0.2-0.2-0.3-0.4c-0.1-0.2-0.1-0.6,0-0.8c0.2-1.3,2.3-1.3,2.5,0c0.1,0.7-0.3,1.3-0.9,1.5c-0.2,1.5-0.6,2.9-1,4.4
								c0.7-0.8,1.3-1.7,1.8-2.7c-0.3-0.2-0.5-0.6-0.5-1.1c0-1,1.2-1.3,2-1c0.6,0.2,0.8,0.9,0.7,1.5c0,0.1,0,0.2,0,0.3
								c-0.1,0.2-0.2,0.3-0.4,0.4c-0.2,0.1-0.4,0.2-0.6,0.2c0,0-0.1,0-0.1,0c-0.2,0-0.3,0-0.5,0c-0.1,0-0.1,0-0.2-0.1
								c-0.5,1.3-1.4,2.5-2.5,3.6c1-0.5,2.1-0.9,3.1-1.1c-0.1-0.5,0-1.1,0.5-1.3c0.6-0.3,1.4,0.1,1.8,0.5c0.1,0.1,0.1,0.2,0.2,0.2
								c0.1,0,0.1,0.1,0.1,0.2c0,0,0,0.1,0,0.1c0,0.3-0.1,0.6-0.4,0.7c-0.4,0.4-1,0.6-1.6,0.3c-0.2-0.1-0.3-0.3-0.4-0.5
								c-1.4,0.6-2.8,1-4,1.8c-0.5,0.5-1.1,1-1.6,1.5l0,0l0,0c0,0-0.1,0-0.1,0.1c-0.6,2.6-1.6,5.1-2.8,7.5c0.9-0.6,1.8-1,2.8-1.5
								c0-0.6,0.3-1.2,0.5-1.7l0,0c0-1.6,1.2-3.1,2.9-3c0.2,0,0.4,0.2,0.3,0.4c-0.2,0.4-0.4,0.7-0.6,1.1c0.5-0.5,1.1-0.9,1.7-1.3
								c0.6-0.3,1.2-0.5,1.9-0.5c0.3,0,0.6,0.1,0.9,0.3c0.1,0.1,0.2,0.2,0.3,0.2c0,0,0.4,0.6,0.2,0.3c0.2,0.3,0,0.7-0.2,0.9
								c-0.1,0.1-0.2,0.2-0.4,0.3c0,0.1-0.1,0.1-0.1,0.2c-0.1,0.4-0.6,0.7-0.9,1c-1,0.7-2.3,1-3.5,1.2c-0.3,0.1-0.6-0.1-0.7-0.3
								c-0.3,0.2-0.7,0.4-1,0.6c-0.3,0.2-0.7,0.4-1,0.6c1,0,2.7,0.5,2.8,1.7c0,0.1-0.1,0.3-0.2,0.3c-1.3,0.3-2.5-0.6-3.3-1.5
								c0,0,0,0,0-0.1c-0.8,0.4-1.6,0.8-2.4,1c-0.6,1.1-1.2,2.2-1.9,3.2c0.1-0.1,0.3-0.1,0.4-0.2c0.4-0.2,1.3-0.6,1.8-0.4
								c0.6,0.3,0.1,1-0.3,1.3c-0.6,0.4-1.5,0.4-2.2,0.3c-0.1,0-0.2,0.1-0.3,0.1c-0.1,0-0.1,0-0.2,0c-0.5,0.7-1.1,1.4-1.7,2.1
								c0.7-0.3,1.6-0.4,2.2-0.1c0.2,0.1,0.2,0.3,0,0.5c-0.6,0.5-1.5,0.5-2.3,0.5c0,0-0.1,0-0.1,0c-0.2,0-0.4,0-0.5,0
								c-0.9,1-1.9,2-2.9,3c0,0,0.1,0,0.1,0c11.5-5.5,21.7-13.6,29.6-23.8c0.1-2.3,0.3-4.5,0.6-6.7c0-0.2,0.1-0.5,0.1-0.7
								c-1.3-1.2-1.3-3.7-1-5.3c0.2-0.9,0.5-1.9,1-2.7c0.5-1,1-1.9,1.6-2.7c0.2-0.3,0.5-0.4,0.8-0.3c0.2-0.2,0.4-0.3,0.6-0.5
								c0.1-0.1,0.4-0.1,0.4,0.1c0.5,2.3,1.2,4.8,0.8,7.2c-0.2,1.6-1.1,3.2-2.4,4.1c-0.1,0.2-0.3,0.2-0.5,0.3
								c-0.3,0.1-0.5,0.2-0.8,0.3c0,0.2-0.1,0.3-0.1,0.5c-0.3,2-0.4,4-0.6,6.1c3.5-4.7,6.6-9.7,9.1-15.2c0.2-2,0.3-4,0.3-6
								c-0.1,0-0.2,0-0.3-0.1c-0.9-0.2-1.6-1.1-1.7-2c0-0.3,0.3-0.4,0.5-0.3c0.5,0.3,1,0.5,1.4,0.9c-0.1-1.3-0.2-2.6-0.4-3.9
								c-0.3-1.8-0.7-3.4-1.2-5.1c-0.8,0.2-1.6,0.4-2.4,0.3c-0.6-0.1-1.3-0.7-1-1.4c0.2-0.6,1.2-0.4,1.7-0.3
								c0.4,0.1,0.7,0.2,1.1,0.3c0.2,0.1,0.3,0.2,0.4,0.2c-0.6-1.9-1.4-3.9-2.1-5.8c-0.2-0.3-0.6-0.5-0.9-0.6l0,0
								c-0.1,0.2-0.2,0.3-0.4,0.5c0,0.1-0.1,0.1-0.2,0.2c0,0,0,0-0.1,0.1c-0.1,0.2-0.2,0.3-0.4,0.4c-0.4,0.4-1,0.6-1.5,0.6
								c-0.5,0-0.9-0.3-1-0.7c-0.1-0.1-0.1-0.2,0-0.3l0,0c0-0.1,0.1-0.2,0.1-0.2c0.5-0.8,1.3-1.2,2.1-1.5c0.3-0.1,0.7,0.2,0.9,0.5
								c0,0,0,0.1,0.1,0.1c0.5,0.1,0.9,0.3,1.3,0.7c0,0,0.1,0,0.1,0c0,0.1,0.1,0.1,0.1,0.2c0-0.1,0-0.2,0-0.3
								c-0.1-0.5,0-1.1,0.1-1.6c0-0.1,0-0.2,0-0.2l0,0c-1.6-1.5-3.5-3-4.8-4.8h0c-0.1,0.1-0.2,0.2-0.3,0.3c-0.5,0.7-1.5,0.9-2.2,0.3
								c-0.3-0.3-0.5-0.7-0.5-1.1c-0.2-0.7,0-1.4,0.6-1.8c0.7-0.5,1.9-0.1,2.4,0.5c0.3,0.4,0.4,0.9,0.2,1.3c1.5,1.7,3,3.3,4.6,5
								c0-0.5,0-1,0-1.6c-0.8-1.4-1.7-2.7-2.4-4.1c-0.3,0.3-0.6,0.4-1,0.3c-0.2,0-0.3,0-0.5-0.1c-0.3-0.1-0.5-0.3-0.6-0.6
								c-0.8-1.1,0.8-2.5,1.9-1.6c0.5,0.4,0.7,1.2,0.4,1.7c0.9,1.2,1.6,2.6,2.2,3.9c-0.1-1.1-0.2-2.1-0.4-3.2
								c-0.4,0-0.8-0.1-1.1-0.4c-0.7-0.8,0.1-1.8,0.8-2.1c0.6-0.2,1.2,0.1,1.5,0.6c0.1,0.1,0.1,0.1,0.1,0.2c0.1,0.2,0,0.4,0,0.5
								c0,0.2-0.1,0.4-0.3,0.5c0,0-0.1,0-0.1,0.1c-0.1,0.1-0.2,0.2-0.4,0.3c-0.1,0-0.1,0.1-0.2,0.1c0.5,1.3,0.6,2.9,0.6,4.4
								c0.4-1,1-2,1.5-2.9c-0.4-0.3-0.7-0.8-0.5-1.3c0.2-0.6,1.1-0.8,1.7-0.8c0.1,0,0.2,0,0.3,0.1c0.1,0,0.1,0,0.2,0
								c0,0,0,0.1,0,0.1c0.2,0.2,0.3,0.5,0.1,0.8c0,0.6-0.4,1.2-1,1.3c-0.2,0.1-0.4,0-0.6-0.1c-0.7,1.3-1.4,2.6-1.8,4
								c-0.1,0.7-0.1,1.5-0.2,2.2l0,0l0,0c0,0,0,0.1,0,0.1c1.3,2.3,2.2,4.8,2.9,7.5c0.3-1,0.7-2,1.1-3c-0.4-0.5-0.6-1.1-0.8-1.7l0,0
								c-1.1-1.2-1.2-3.1,0.2-4.2c0.2-0.2,0.4-0.1,0.5,0.1c0.4,1.3,0.4,2.6,0,3.8c0.2,0.2,0,0.4-0.2,0.5c0.1,0.4,0.2,0.8,0.4,1.2
								c0.1-0.3,0.2-0.5,0.3-0.8c0.3-0.8,0.4-1.5,0.6-2.3c-0.3-0.7-0.4-1.3-0.2-2c0-0.1,0-0.1,0-0.2c0.1-1.1,0.7-2.3,1.6-3
								c0.3-0.3,1-0.3,1.2,0.1c0.6,0.9,0.5,1.9,0.2,2.9c-0.2,0.7-0.7,1.7-1.4,2.1c-0.1,0.1-0.2,0.2-0.3,0.3
								c-0.2,0.2-0.4,0.4-0.6,0.6c0,0-0.1,0-0.1,0c-0.1,0.6-0.3,1.1-0.5,1.6c-0.1,0.4-0.2,0.7-0.4,1.1c0.8-0.7,2.4-1.4,3.2-0.6
								c0.1,0.1,0.1,0.3,0,0.4c-0.7,1.1-2.3,1.3-3.5,1.1c0,0-0.1,0-0.1,0c-0.3,0.8-0.7,1.6-1.1,2.4c0.3,1.2,0.5,2.4,0.7,3.7
								c0.1-0.1,0.1-0.3,0.2-0.4c0.2-0.4,0.5-1.3,1.1-1.4c0.7-0.2,0.7,0.7,0.6,1.1c-0.2,0.7-0.8,1.3-1.4,1.7c0,0.1-0.1,0.2-0.1,0.3
								c0,0.1-0.1,0.1-0.1,0.1c0.1,0.9,0.1,1.8,0.2,2.7c0.3-0.7,0.9-1.4,1.6-1.5c0.2,0,0.4,0.1,0.3,0.3c-0.1,0.8-0.8,1.4-1.4,1.9
								c0,0-0.1,0.1-0.1,0.1c-0.1,0.2-0.3,0.3-0.4,0.3c0,1.7-0.1,3.4-0.3,5c1.1-2.4,2-4.9,2.9-7.5c2.3-6.8,3.5-13.8,4-20.7
								c-0.4-0.6-0.7-1.9-0.8-2.3c-0.5-1.8-0.8-3.6-1.4-5.3c-0.4-1-0.8-2.1-1.3-3.1c0,0-0.1,0-0.2,0c-1.4,0.5-2.6,1.3-4.1,1.4
								c-1.1,0.1-2.3-0.2-3.3-0.5c-0.6-0.2-2.9-0.7-4.1-1.5c-0.1,0.1-0.3,0.1-0.4,0.2c-0.4,0.1-0.7,0-1-0.3
								c-0.1-0.1-0.1-0.1-0.2-0.2c-0.4-0.6-0.8-1.6,0-2c0.1-0.1,0.3-0.1,0.4-0.1c0.1,0,0.1-0.1,0.2-0.1c0.1-0.1,0.2-0.1,0.3-0.2
								c0.8-0.3,1.3,0.6,1.5,1.3c0,0.2,0,0.4,0,0.6c0.3,0.2,0.6,0.4,1,0.6c1,0.4,2.1,0.7,3.1,1c1.1,0.3,2.2,0.5,3.3,0.3
								c0.8-0.2,1.5-0.5,2.3-0.8c-3-1-5.5-3.8-7.4-6.3c-0.1,0-0.1,0-0.2,0c-0.3,0-0.5-0.1-0.7-0.3c-0.4-0.3-0.7-0.9-0.5-1.4
								c0.1-0.2,0.2-0.4,0.4-0.5c0.2-0.3,0.6-0.4,0.9-0.3l0.1,0c0.2,0,0.5,0,0.7,0.1c0.6,0.2,0.7,1,0.4,1.5
								c-0.1,0.2-0.3,0.4-0.5,0.6c1,1.3,2.1,2.6,3.3,3.7c1.3,1.1,2.8,1.8,4.3,2.6c-0.6-1.3-1.3-2.5-2-3.8c-1.3-2.3-2.6-4.6-4-6.9
								c-0.4,0-0.8-0.2-1-0.4c-0.3-0.1-0.6-0.4-0.7-0.8c-0.2-0.9,0.8-1.5,1.6-1.6c0.1,0,0.3,0,0.4,0c0.3,0,0.5,0,0.7,0.2
								c0.4,0.2,0.6,0.5,0.6,1c0.1,0,0.1,0.1,0.1,0.2c0,0.1-0.1,0.2-0.2,0.3c0,0.2-0.1,0.3-0.2,0.5l0,0c-0.1,0.2-0.3,0.4-0.6,0.5
								c1.5,2.5,3,5.1,4.4,7.7c0-0.2,0.1-0.5,0.1-0.7c0.2-0.9,0.3-1.7,0.4-2.6c0.1-1.9-0.4-3.9-1-5.7c-0.3-0.1-0.6-0.4-0.7-0.7
								c-0.3-0.2-0.5-0.6-0.6-0.9c-0.2-0.8,0.5-1.3,1.2-1.3c0.2,0,0.4,0,0.5,0c0.4,0,0.7,0.1,0.9,0.4c0.2,0.1,0.4,0.3,0.5,0.5
								c0.5,0.8-0.3,1.8-1.1,2.1c0.5,1.6,0.8,3.3,0.9,5c0,0.8,0,1.7-0.2,2.5c-0.2,0.7-0.3,1.6-0.6,2.2c0.9,1.8,1.8,3.7,2.6,5.6
								c0.6,1.4,0.8,3,1.2,4.5c0.2,0.8,0.4,1.5,0.6,2.2c0.1-2.3,0.1-4.6,0-6.9c0-0.2-0.1-0.5,0-0.7l0-0.1l0,0c0.1-0.9,0.6-1.8,1-2.6
								c0.6-1.2,1.5-2.3,2.4-3.3c-0.1-0.3-0.2-0.7-0.2-1.1c-0.2-0.5,0.1-1.2,0.3-1.7c0.2-0.6,0.5-1.5,1-2c0.1-0.2,0.2-0.3,0.3-0.5
								c0.1-0.2,0.4-0.2,0.5,0c0,0.1,0,0.1,0.1,0.2c0.5,0.1,0.8,0.6,0.4,1.2c-0.1,0.1-0.2,0.2-0.2,0.4c-0.1,0.8-0.5,1.6-0.9,2.3
								c1.9-1.6,4-2.8,5.8-4.5c0.1-0.1,0.2-0.3,0.3-0.4c-0.4-0.2-0.6-0.6-0.5-1.1c-0.1-0.5-0.1-1-0.2-1.4c-0.1-0.4-0.1-0.8,0-1.1
								c0-2.2,1-4,1.9-6c0.2-0.4,0.6-0.6,1-0.5c0.1-0.1,0.2-0.3,0.3-0.4C215.6,203,215.9,203.1,215.9,203.3"/>
						</g>
					</g>
				</g>
			</g>
		</g>
	</g>
	<g>
		<defs>
			<rect id="SVGID_00000179609684644711537930000009094277667084714127_" x="71.4" y="61" width="70.1" height="80.3"/>
		</defs>
		<clipPath id="SVGID_00000093899967319268677100000000335735412187883144_">
			<use xlink:href="#SVGID_00000179609684644711537930000009094277667084714127_"  overflow="visible"/>
		</clipPath>
		<g clip-path="url(#SVGID_00000093899967319268677100000000335735412187883144_)">
			<path fill="#B24A38" d="M76.4,11.1c-35.9,0-65.2,29.3-65.2,65.2c0,35.9,29.3,65.2,65.2,65.2c35.9,0,65.2-29.3,65.2-65.2
				C141.6,40.3,112.3,11.1,76.4,11.1z M76.4,140.4c-35.3,0-64.1-28.8-64.1-64.1c0-35.3,28.8-64.1,64.1-64.1
				c35.3,0,64.1,28.8,64.1,64.1C140.5,111.6,111.7,140.4,76.4,140.4z"/>
		</g>
	</g>
	<g>
		<g transform="translate(74.909355, 254.217936)">
			<g>
				<path d="M-54.5-150.5l-1.6-3.3l-0.3,0.1c0.2,0.8,0.3,1.1-0.3,1.4l-2.7,1.3c-0.5,0.2-0.8,0-1.1-0.6l-0.7-1.5
					c-0.4-0.9-0.1-1.3,0.3-1.6l-0.1-0.2l-2.3,1.1l0.1,0.2c0.6-0.1,1-0.1,1.5,0.8l0.7,1.5c0.3,0.6,0.3,1-0.2,1.2l-2.5,1.2
					c-0.5,0.2-0.8,0-1.1-0.6l-0.9-1.9c-0.5-1-0.3-1.8,0.4-2.5l-0.1-0.3c-0.7,0.6-1.1,0.8-1.5,1.1c-0.1,0.1-0.1,0.2-0.1,0.3l3.2,6.7
					l0.3-0.1c-0.2-0.6-0.2-1,0.3-1.3l7-3.3c0.5-0.3,0.8,0,1.2,0.5L-54.5-150.5z"/>
			</g>
		</g>
	</g>
	<g>
		<g transform="translate(64.670161, 231.407743)">
			<g>
				<path d="M-49-138.3l-2-7.6c-0.4,0.1-0.7,0.1-1,0.1L-53-146l0.1,0.4l0.5,0.1c0.6,0.2,1.1,0.5,1.4,1.5l0.8,2.4
					c0.2,0.7,0,1-0.5,1.1l-7.5,1.9c-0.6,0.1-0.8-0.2-1.1-0.8l-0.3,0.1l0.9,3.4l0.3-0.1c0-0.7,0-1,0.6-1.2l7.5-1.9
					c0.6-0.1,0.8,0.1,1,0.7L-49-138.3z"/>
			</g>
		</g>
	</g>
	<g>
		<g transform="translate(58.865188, 206.224647)">
			<g>
				<path d="M-45.8-124.9l-0.4-7.6c0-0.1-0.1-0.2-0.2-0.2c-0.8-0.1-1.3-0.2-1.8-0.4l0,0.3l0.6,0.4c0.5,0.2,0.8,0.6,0.9,1.8l0.1,1.9
					c0.1,1.2-0.1,1.5-0.6,1.6l-3,0.2c-0.6,0-0.7-0.3-0.8-1l-0.1-1.6c-0.1-1,0.4-1.2,1.1-1.4l0-0.3l-2.8,0.1l0,0.3
					c0.7,0.1,1.2,0.3,1.2,1.3l0.1,1.6c0,0.7-0.1,1-0.6,1l-2.8,0.1c-0.6,0-0.7-0.3-0.8-1l-0.1-2.1c-0.1-1.1,0.4-1.7,1.3-2.2l0-0.3
					c-0.9,0.3-1.3,0.3-1.8,0.4c-0.1,0-0.2,0.1-0.2,0.3l0.4,7.4l0.3,0c0.1-0.7,0.2-1,0.8-1l7.8-0.4c0.6,0,0.7,0.3,0.9,0.9
					L-45.8-124.9z"/>
			</g>
		</g>
	</g>
	<g>
		<g transform="translate(57.981471, 180.506489)">
			<g>
				<path d="M-44.3-116c0.4-2.4-0.9-4.1-3.7-4.5l-4.7-0.7c-0.6-0.1-0.7-0.5-0.7-1.1l-0.3-0.1l-0.4,2.6l0.3,0.1c0.2-0.6,0.4-1,1-0.9
					l4.6,0.7c2.9,0.4,3.5,2,3.3,3.5c-0.3,1.7-1.7,2.6-4.3,2.2l-4.5-0.7c-0.6-0.1-0.7-0.5-0.7-1.1l-0.3-0.1l-0.5,3.4l0.3,0.1
					c0.2-0.6,0.4-0.9,1-0.8l4.8,0.8C-46.2-112.3-44.7-113.8-44.3-116z"/>
			</g>
		</g>
	</g>
	<g>
		<g transform="translate(63.150924, 152.177521)">
			<g>
				<path d="M-47.9-96.1l1.3-3.4l-0.3-0.1c-0.4,0.7-0.6,1-1.2,0.8l-2.4-0.9c-0.6-0.2-0.7-0.5-0.4-1.4c0.5-1.2,1.2-1.7,2.8-1.6
					c1.7,0.2,2.8,0,3.4-1.5l0.2-0.4l-0.3-0.1c-0.2,0.6-1,0.6-2.8,0.5c-0.9-0.1-1.8,0.1-2.5,0.9c-0.1,0.1-0.1,0.1-0.1-0.1
					c0.2-1.6-0.3-2.6-1.5-3c-1.6-0.6-3,0.2-4,2.6l-1.6,4.1l0.3,0.1c0.4-0.6,0.6-0.8,1.1-0.6l7.3,2.8c0.6,0.2,0.6,0.6,0.4,1.2
					L-47.9-96.1z M-51.4-101.1c-0.2,0.6-0.6,0.7-1.1,0.5l-2.8-1.1c-0.5-0.2-0.5-0.5-0.4-0.8l0.5-1.3c0.6-1.6,1.7-1.8,2.9-1.3
					c1.2,0.5,1.9,1.4,1.3,2.9L-51.4-101.1z"/>
			</g>
		</g>
	</g>
	<g>
		<g transform="translate(73.859383, 126.738515)">
			<g>
				<path d="M-51.5-85.3c1.1-1.7,1.5-3.8-0.2-4.9c-1.7-1.1-3.4,0.4-4.6,1.4c-1.1,0.9-2.1,1.5-3.2,0.8c-0.7-0.5-1.2-1.4-0.5-2.5
					c0.7-1.1,2.1-1.6,3.7-1.2c0.2,0,0.2,0,0.3-0.1c0.3-0.4-0.8-1.1-2-1.4c-0.8,0.4-1.6,1.1-2.2,2c-1.2,2-1,3.7,0.4,4.6
					c1.4,0.9,2.9,0.2,4.4-1c1.2-1,2.2-1.9,3.4-1.1c1,0.7,1,1.6,0.4,2.6c-0.8,1.3-2.3,1.9-3.9,1.4c-0.2-0.1-0.2,0-0.3,0.1
					c-0.3,0.4,0.8,1.1,2,1.4C-53-83.6-52.2-84.2-51.5-85.3z"/>
			</g>
		</g>
	</g>
	<g>
		<g transform="translate(96.157003, 96.365979)">
			<g>
				<path fill="#B24A38" d="M-61.2-69.1c2.1-1.7,3.1-4.1,1.9-5.6c-0.6-0.8-1.7-1.1-3.1-0.1c1-1.9,2-3.8,1-5.1
					c-0.8-0.9-2-0.7-2.8-0.1c-0.4,0.3-0.7,0.8-0.9,1.3l0.5,0.2c0.5-0.8,1.3-0.8,1.7-0.2c0.5,0.6,0.3,1.3-0.1,2.5l-0.7,2
					c-0.3,0.7-0.4,1.3-0.1,1.7c0.2,0.3,0.6,0.3,0.8,0.3l0.4-0.3c-0.6-0.1-0.8-0.9-0.2-1.4c0.6-0.5,1.3-0.2,1.8,0.4
					c0.7,0.9,1,2.6-0.5,3.8c-1.5,1.2-3,0.8-3.9-0.4c-0.9-1.1-0.9-2.4,0.5-3.1l-0.2-0.6c-1.3,0.5-2.4-0.2-3-0.9c-0.5-0.7-0.7-1.4,0-2
					c0.5-0.4,1.2-0.2,1.6,0.3c0.4,0.5,0.9,0.5,1.3,0.2c0.4-0.3,0.5-0.9,0.1-1.4c-0.7-0.8-2-0.6-3.3,0.4c-1.5,1.2-2,2.9-1.1,4
					c0.6,0.8,1.7,1.1,2.5,0.6c-0.7,0.6-1.4,2.3-0.3,3.8C-65.7-67-63.2-67.5-61.2-69.1z"/>
			</g>
		</g>
	</g>
	<g>
		<g transform="translate(134.661751, 70.211559)">
			<g>
				<path d="M-82.4-53.1c1.9-0.7,3.5-2.1,2.8-4.1c-0.7-1.9-2.9-1.7-4.5-1.7c-1.4,0-2.6-0.1-3.1-1.3c-0.3-0.8-0.2-1.8,1.1-2.3
					c1.2-0.5,2.6-0.1,3.7,1.2c0.1,0.1,0.2,0.1,0.3,0.1c0.5-0.2,0-1.4-0.8-2.3c-0.9-0.2-1.9-0.1-3,0.3c-2.2,0.8-3,2.4-2.4,3.9
					c0.6,1.6,2.2,1.9,4.1,1.9c1.5-0.1,2.9-0.2,3.4,1.2c0.4,1.1-0.1,1.9-1.2,2.4c-1.4,0.6-2.9,0.1-4-1.2c-0.1-0.2-0.2-0.1-0.3-0.1
					c-0.5,0.2,0,1.4,0.8,2.3C-84.6-52.7-83.7-52.7-82.4-53.1z"/>
			</g>
		</g>
	</g>
	<g>
		<g transform="translate(157.769798, 62.158895)">
			<g>
				<path d="M-98-47.7l7.5-1.3c0.1,0,0.2-0.1,0.2-0.3c0-0.8,0-1.3,0.2-1.8l-0.3,0.1l-0.3,0.7c-0.2,0.5-0.5,0.9-1.6,1.1l-1.9,0.3
					c-1.2,0.2-1.5,0.1-1.6-0.4l-0.5-2.9c-0.1-0.6,0.2-0.8,0.9-0.9l1.6-0.3c1-0.2,1.3,0.2,1.5,0.9l0.3,0l-0.5-2.8l-0.3,0
					c0,0.7-0.1,1.2-1.1,1.3l-1.6,0.3c-0.6,0.1-1,0-1.1-0.5l-0.5-2.8c-0.1-0.6,0.2-0.8,0.9-0.9l2.1-0.3c1.1-0.2,1.8,0.2,2.3,1.1
					l0.3-0.1c-0.4-0.8-0.5-1.3-0.6-1.7c0-0.1-0.1-0.2-0.3-0.2l-7.3,1.2l0.1,0.3c0.7,0,1,0.1,1.1,0.7l1.3,7.7c0.1,0.6-0.2,0.8-0.8,1
					L-98-47.7z"/>
			</g>
		</g>
	</g>
	<g>
		<g transform="translate(183.233824, 58.407838)">
			<g>
				<path d="M-104-55.4l0,0.3c0.6,0.2,1,0.3,0.9,0.9l-0.3,6.6l-5.6-8l-2.1-0.1l0,0.3c0.6,0.2,1,0.3,0.9,0.9l-0.3,7.8
					c0,0.6-0.4,0.7-1,0.8l0,0.3l2.5,0.1l0-0.3c-0.6-0.1-0.9-0.3-0.9-0.9l0.3-7.4l6.1,8.8l0.6,0l0.4-9c0-0.6,0.4-0.7,1-0.8l0-0.3
					L-104-55.4z"/>
			</g>
		</g>
	</g>
	<g>
		<g transform="translate(211.91883, 60.407086)">
			<g>
				<path d="M-124.7-46l4,1l0.1-0.3c-0.9-0.4-1.2-0.6-1.1-1.1l1.9-7.4c0.1-0.5,0.3-0.7,1.5-0.4c1.1,0.3,1.4,0.7,1.5,2l0.4,0.1
					l0.3-2.2l-0.9-0.2l-6.3-1.6l-0.9-0.3l-0.8,2l0.4,0.1c0.8-1.1,1.2-1.3,2.3-1c1.2,0.3,1.2,0.6,1.1,1.1l-1.9,7.4
					c-0.2,0.6-0.5,0.6-1.5,0.5L-124.7-46z"/>
			</g>
		</g>
	</g>
	<g>
		<g transform="translate(237.655461, 67.814357)">
			<g>
				<path d="M-140.6-50.4l6.9,3.4c0.1,0.1,0.3,0,0.3-0.1c0.5-0.7,0.8-1,1.2-1.4l-0.3-0.1l-0.6,0.4c-0.4,0.3-0.9,0.5-2-0.1l-1.7-0.8
					c-1.1-0.5-1.3-0.8-1.1-1.3l1.3-2.7c0.3-0.5,0.6-0.5,1.2-0.2l1.4,0.7c0.9,0.4,0.9,0.9,0.7,1.6l0.2,0.1l1.2-2.5l-0.2-0.1
					c-0.4,0.6-0.8,0.9-1.7,0.4l-1.4-0.7c-0.6-0.3-0.9-0.6-0.6-1.1l1.2-2.5c0.3-0.5,0.6-0.5,1.2-0.2l1.9,0.9c1,0.5,1.3,1.2,1.2,2.2
					l0.3,0.1c0.2-0.9,0.3-1.3,0.5-1.7c0.1-0.1,0-0.2-0.1-0.3l-6.7-3.3l-0.1,0.3c0.5,0.4,0.8,0.7,0.5,1.2l-3.4,7
					c-0.3,0.5-0.6,0.5-1.2,0.3L-140.6-50.4z"/>
			</g>
		</g>
	</g>
	<g>
		<g transform="translate(260.550454, 79.564782)">
			<g>
				<path d="M-149.2-53.5c1.9,1.5,4,1.2,5.8-1l2.9-3.7c0.4-0.5,0.7-0.3,1.3,0l0.2-0.3l-2.1-1.6l-0.2,0.3c0.4,0.5,0.7,0.8,0.3,1.3
					l-2.9,3.6c-1.8,2.3-3.5,2.1-4.7,1.1c-1.4-1.1-1.5-2.7,0.2-4.8l2.8-3.6c0.4-0.5,0.7-0.4,1.3-0.1l0.2-0.3l-2.7-2.1l-0.2,0.3
					c0.4,0.5,0.6,0.8,0.2,1.3l-3,3.8C-151.5-57-150.9-54.9-149.2-53.5z"/>
			</g>
		</g>
	</g>
	<g>
		<g transform="translate(282.766132, 97.889062)">
			<g>
				<path d="M-164.8-66.3l2.3,2.8l0.3-0.2c-0.4-0.7-0.6-1-0.1-1.4l2-1.6c0.5-0.4,0.8-0.4,1.4,0.4c0.9,1,0.9,1.9,0.1,3.2
					c-1,1.4-1.3,2.4-0.3,3.7l0.3,0.3l0.3-0.2c-0.4-0.5-0.1-1.2,0.9-2.7c0.5-0.7,0.8-1.6,0.4-2.6c0-0.1,0-0.2,0.1-0.1
					c1.3,0.9,2.4,1,3.4,0.2c1.3-1.1,1.3-2.8-0.3-4.7l-2.8-3.4l-0.3,0.2c0.3,0.6,0.4,0.9,0,1.3l-6,5c-0.5,0.4-0.8,0.2-1.3-0.2
					L-164.8-66.3z M-158.7-67c-0.4-0.5-0.4-0.9,0.1-1.2l2.3-1.9c0.4-0.4,0.7-0.2,0.9,0.1l0.9,1.1c1.1,1.3,0.7,2.4-0.3,3.2
					c-1,0.8-2.1,1-3.2-0.3L-158.7-67z"/>
			</g>
		</g>
	</g>
	<g>
		<g transform="translate(299.762852, 119.636948)">
			<g>
				<path d="M-172.5-74.7c0.9,1.8,2.6,3.2,4.4,2.2c1.8-1,1.3-3.1,1.1-4.7c-0.2-1.4-0.3-2.6,0.9-3.2c0.8-0.4,1.8-0.4,2.4,0.8
					c0.6,1.2,0.4,2.6-0.7,3.8c-0.1,0.1-0.1,0.2,0,0.3c0.2,0.4,1.4-0.1,2.2-1.1c0-0.9-0.2-1.9-0.7-2.9c-1.1-2-2.8-2.7-4.2-1.9
					c-1.5,0.8-1.6,2.4-1.3,4.3c0.3,1.5,0.6,2.8-0.7,3.5c-1.1,0.6-1.9,0.1-2.5-0.9c-0.7-1.3-0.5-2.9,0.6-4.1c0.1-0.1,0.1-0.2,0.1-0.3
					c-0.2-0.4-1.4,0.1-2.2,1.1C-173.2-76.8-173.1-75.9-172.5-74.7z"/>
			</g>
		</g>
	</g>
</g>
</svg>
