<?xml version="1.0" encoding="utf-8"?>
<!-- Generator: Adobe Illustrator 28.0.0, SVG Export Plug-In . SVG Version: 6.00 Build 0)  -->
<svg version="1.1" id="Calque_1" xmlns="http://www.w3.org/2000/svg" xmlns:xlink="http://www.w3.org/1999/xlink" x="0px" y="0px"
	 viewBox="0 0 72 72" enable-background="new 0 0 72 72" xml:space="preserve">
<g>
	<path fill="#FBA794" d="M40.7,44.1c-0.5-0.5-0.9-0.9-1.4-1.4c2.1-3.5,4.3-7,6.4-10.6c0.8-1.4,1.4-3,2-4.6c0.2-0.5,0.1-0.7-0.4-0.9
		c-0.9-0.4-1.8-0.8-2.8-1.2c-2.1-0.8-3.7-2.3-4.8-4.3c-1.3-2.4-2.8-4.7-3.5-7.3c0-0.2-0.3-0.3-0.5-0.4c-0.7-0.3-1.1-0.9-1-1.6
		C35,10.9,35.1,10,36,9.4c0.8-0.5,2.9,0.4,3.1,1.3c0.2,1-0.1,1.8-0.8,2.4c-0.4,0.3-0.5,0.6-0.3,1c0.8,1.8,1.6,3.6,2.4,5.4
		c0.7,1.4,1.5,2.8,2.8,3.7c1.1,0.8,2.4,1.4,3.6,2.1c0,0,0.1-0.1,0.1-0.1c-0.1-0.4-0.3-0.8-0.4-1.2c-1-2.8-1.1-5.8-0.9-8.7
		c0.1-1.4,0.3-2.8,0.5-4.2c0-0.2-0.1-0.5-0.2-0.7c-0.7-0.9-0.5-2.2,0.4-2.9c0.7-0.5,1.8-0.3,2.5,0.5c0.1,0.1,0.1,0.1,0.2,0.2
		c0.5,0.5,0.8,1,0.6,1.7c-0.3,0.7-0.9,1.2-1.7,1.2c-0.6,0-0.7,0.3-0.8,0.7c-0.8,4.7-0.5,9.4,1.2,13.9c0,0.1,0.1,0.1,0.1,0.2
		c0.1-0.2,0.2-0.3,0.2-0.4c1.7-5.6,3.4-11.2,5.1-16.8c0.1-0.3-0.1-0.7-0.1-1c-0.1-0.6-0.4-1.2-0.4-1.8c-0.1-0.7,0.4-1.3,1.1-1.5
		c1.2-0.5,3.2,0.6,3.4,1.9C57.8,8,57,8.9,55.2,8.9c-0.2,0-0.4,0-0.6,0c-1.3,4.2-2.5,8.4-3.8,12.7c3-1.7,5.6-3.8,7.4-6.7
		c0.1-0.2,0.3-0.5,0.4-0.7c1-1.3,1.6-2.7,1.6-4.4c0-0.1,0-0.2,0-0.3c0.2-0.8,0.4-1.6,1.3-1.8c0.8-0.2,1.4,0.2,2,0.8
		c0.5,0.5,0.8,1,0.9,1.7c0.2,1.6-1.1,2.6-2.5,2.3c-0.9-0.2-1.2,0.1-1.6,0.8c-1.2,1.8-2.5,3.6-3.9,5.2c-1.2,1.4-2.8,2.3-4.4,3.3
		c-0.5,0.3-1,0.5-1.5,0.8c-0.2,0.1-0.3,0.4-0.4,0.6c-1,2.6-2,5.2-3,7.8c-1,2.5-2.6,4.6-4,6.8c-0.5,0.8-0.9,1.5-1.3,2.4L40.7,44.1z
		 M54.6,6.7c0.1,0.1,0.1,0.2,0.2,0.3c0.3-0.1,0.6-0.3,0.9-0.4c-0.1-0.2-0.3-0.5-0.4-0.5C55.1,6.3,54.9,6.5,54.6,6.7z M62.8,9.8
		c-0.4,0.2-0.7,0.3-1.1,0.4C62.4,10.8,62.6,10.7,62.8,9.8z"/>
	<g>
		<g>
			<g transform="translate(74.909355, 254.217936)">
				<g>
					<path fill="#FAEEE5" d="M-46.5-218.1c-0.5,0.3-1,0.6-1.5,1c-1.4-1.9-3.3-2.8-6.2-2.8l-7.2,0.1c-2.2,0-3.5,0.5-3.5,2.4l0.1,9.7
						c0,2,1.2,2.4,3.5,2.4l5.6-0.1c2.7,0,3.7-0.9,4.2-2.2c0.2-0.4,0.3-0.8,0.4-1.2h0.9l0,2.7l0.1,5.9H-51c-0.5-1.9-1.2-3.4-4.7-3.4
						l-5.6,0.1c-2.2,0-3.5,0.5-3.5,2.4l0.1,10.5c0,2.1,1.2,2.5,4,2.8v1.2l-12.5,0.1l0-1.2c2.2-0.4,3.4-0.8,3.4-2.9l-0.3-26.9
						c0-2.1-1.2-2.5-3.4-2.9l0-1.1l25.6-0.3c0.5,0,0.8,0.2,0.9,0.7C-46.8-220.2-46.7-219.3-46.5-218.1z"/>
					<path fill="#FAEEE5" d="M-45.7-215h-1.1c-0.1-0.3-0.2-0.5-0.4-0.8c0.4-0.2,0.8-0.2,1.2-0.2C-45.9-215.6-45.8-215.3-45.7-215z"
						/>
				</g>
			</g>
		</g>
		<g>
			<g transform="translate(73.859383, 126.738515)">
				<g>
					<path fill="#FAEEE5" d="M-3.3-68.6c-0.1,7.1-7.1,9.7-14,9.6c-4.6-0.1-7.8-1.2-10.5-2.9c-1.5-4-1.4-8.4,0.3-8.3
						c0.5,0,0.7,0.1,0.8,0.7c1.8,5.5,6,8.8,11.3,8.8c4.1,0,6.9-1.9,7-6.1c0.1-5.2-4.5-6.4-9.5-8.1c-2.5-0.9-4.8-1.9-6.5-3.2
						c-2.4-1.8-4-4-4.2-7c-0.1-0.3-0.1-0.7-0.1-1c0.1-5.5,4.7-9.5,12.7-9.3c3.9,0,7.2,1,10,2.7c1.5,4,1.3,8.4-0.4,8.3
						c-0.5,0-0.7-0.1-0.9-0.7c-1.8-5.6-5.9-8.6-10.4-8.7c-4.6-0.1-6.4,3-6.4,6c-0.1,4.6,3.6,6.4,8.2,8.1
						C-10.5-77.8-3.2-75.6-3.3-68.6z"/>
				</g>
			</g>
		</g>
		<g>
			<g transform="translate(96.157003, 96.365979)">
				<g>
					<path fill="#FBA794" d="M-46.6-47.8c-0.6,2.9-2.7,5.9-5.7,8.3c-5,4-11.1,5.3-14.5,1.1c-2.9-3.5-1.1-7.8,0.7-9.2
						c-1.7,0.8-3.7,0.5-5.3-0.7l0-2.7h-0.9c-0.1,0.5-0.2,0.8-0.4,1.2c-1.7-2.7-0.4-6.4,3-9.2c0.1-0.1,0.3-0.2,0.4-0.4
						c0.5-0.4,1-0.7,1.5-1c2.4-1.2,4.7-1.2,6,0.4c1,1.2,0.7,2.6-0.3,3.4c-0.9,0.7-2.3,0.7-3.2-0.4c-0.5-0.6-1.3-1.1-2.1-1.2
						c-0.4-0.1-0.8,0-1.2,0.2c-0.2,0.1-0.4,0.2-0.6,0.4c-1.7,1.3-1.3,3.3,0,4.9c1.3,1.6,4,3.5,7.2,2.2l0.4,1.4
						c-3.3,1.6-3.3,5-1.2,7.6c2.2,2.7,6,3.8,9.6,0.8c3.8-3.1,3.1-7.1,1.3-9.3c-1.2-1.6-3-2.2-4.5-1.1c-1.5,1.2-1,3,0.5,3.3l-1.1,0.8
						c-0.6,0-1.4-0.1-2-0.8c-0.8-1-0.4-2.3,0.2-4.1l1.7-4.9c0.9-2.8,1.5-4.6,0.3-6.1c-1.2-1.4-3-1.4-4.3,0.5l-1.1-0.5
						c0.4-1.2,1.3-2.3,2.2-3.1c2-1.6,5-2.1,6.9,0.2c2.5,3.1-0.1,7.8-2.5,12.5c1.7-1.2,3.3-1.6,4.6-1.4
						C-50.7-51.7-49.1-49.5-46.6-47.8z"/>
					<path fill="#FBA794" d="M-46.6-47.8c-2.4-1.8-4-4-4.2-7c1.3,0.1,2.3,0.7,3.1,1.6C-46.5-51.6-46.2-49.8-46.6-47.8z"/>
				</g>
			</g>
		</g>
	</g>
</g>
</svg>
