<svg xmlns="http://www.w3.org/2000/svg" xmlns:xlink="http://www.w3.org/1999/xlink" width="150" zoomAndPan="magnify" viewBox="0 0 112.5 112.499997" height="150" preserveAspectRatio="xMidYMid meet" version="1.0"><defs><clipPath id="7528fbb963"><path d="M 0 0 L 112.003906 0 L 112.003906 112.003906 L 0 112.003906 Z M 0 0 " clip-rule="nonzero"/></clipPath><clipPath id="da33ec7b19"><path d="M 6.609375 20.515625 L 105.148438 20.515625 L 105.148438 96.675781 L 6.609375 96.675781 Z M 6.609375 20.515625 " clip-rule="nonzero"/></clipPath></defs><g clip-path="url(#7528fbb963)"><path fill="#ffffff" d="M 0 0 L 112.003906 0 L 112.003906 112.003906 L 0 112.003906 Z M 0 0 " fill-opacity="1" fill-rule="nonzero"/><path fill="#ffffff" d="M 0 0 L 112.003906 0 L 112.003906 112.003906 L 0 112.003906 Z M 0 0 " fill-opacity="1" fill-rule="nonzero"/></g><g clip-path="url(#da33ec7b19)"><path fill="#fba794" d="M 32.25 69.023438 L 40.902344 69.023438 C 41.652344 69.023438 42.257812 69.632812 42.257812 70.382812 L 42.257812 95.492188 C 42.257812 96.242188 41.652344 96.851562 40.902344 96.851562 L 32.25 96.851562 C 31.5 96.851562 30.890625 96.242188 30.890625 95.492188 L 30.890625 70.382812 C 30.890625 69.632812 31.5 69.023438 32.25 69.023438 Z M 57.867188 49.261719 C 59.761719 49.0625 61.128906 51.585938 61.339844 53.621094 C 61.375 54.039062 61.40625 54.460938 61.441406 54.878906 L 61.417969 55.617188 C 61.492188 56.585938 61.28125 58.984375 61.25 60.765625 C 61.214844 62.546875 60.96875 64.9375 61.21875 66.300781 L 61.300781 66.808594 L 75.042969 66.808594 C 75.042969 66.8125 75.042969 66.816406 75.042969 66.820312 L 75.21875 66.808594 C 78.46875 66.808594 81.101562 68.710938 81.101562 71.054688 C 81.101562 72.523438 80.074219 73.816406 78.507812 74.578125 L 77.664062 74.910156 L 77.84375 74.953125 C 79.71875 75.542969 81.039062 76.929688 81.039062 78.546875 C 81.039062 80.160156 79.71875 81.546875 77.84375 82.136719 L 77.285156 82.265625 L 77.578125 82.378906 C 78.96875 83.039062 79.882812 84.160156 79.882812 85.429688 C 79.882812 86.953125 78.566406 88.257812 76.6875 88.816406 L 76.050781 88.957031 L 76.269531 89.042969 C 77.660156 89.703125 78.578125 90.820312 78.578125 92.089844 C 78.578125 94.121094 76.234375 95.769531 73.347656 95.769531 L 72.742188 95.726562 C 72.742188 95.738281 72.742188 95.753906 72.742188 95.769531 L 50.898438 95.769531 C 47.621094 95.769531 44.964844 93.113281 44.964844 89.835938 L 44.964844 72.738281 C 44.964844 72.328125 44.984375 72.167969 45.0625 71.78125 L 45.214844 71.128906 L 45.289062 70.722656 C 45.972656 67.683594 47.988281 64.777344 49.167969 62.972656 L 51.324219 58.675781 C 52.089844 56.832031 52.574219 55.675781 52.71875 55.074219 C 52.710938 55.003906 54.175781 51.792969 54.167969 51.722656 C 55.0625 50.160156 56.378906 49.417969 57.867188 49.261719 Z M 16.148438 41.539062 L 16.1875 41.542969 L 16.230469 41.539062 L 16.296875 41.554688 L 16.496094 41.578125 L 16.640625 41.636719 L 16.695312 41.648438 L 16.734375 41.675781 L 16.820312 41.710938 L 17.007812 41.867188 L 17.042969 41.894531 L 17.054688 41.902344 L 17.09375 41.933594 C 17.171875 42.023438 17.238281 42.125 17.292969 42.238281 L 19.265625 46.488281 C 19.351562 46.671875 19.484375 46.832031 19.640625 46.949219 L 19.816406 47.050781 L 19.894531 47.09375 C 19.988281 47.132812 20.085938 47.160156 20.183594 47.175781 L 24.734375 47.847656 C 25.398438 47.945312 25.855469 48.5625 25.757812 49.226562 C 25.71875 49.480469 25.601562 49.71875 25.421875 49.902344 L 24.632812 50.703125 L 24.632812 50.707031 L 22.042969 53.339844 C 21.769531 53.617188 21.648438 54.007812 21.714844 54.390625 L 22.515625 59.191406 C 22.539062 59.328125 22.539062 59.464844 22.515625 59.601562 L 22.5 59.640625 L 22.496094 59.671875 L 22.449219 59.777344 L 22.375 59.984375 L 22.332031 60.039062 L 22.304688 60.097656 L 22.175781 60.21875 L 22.0625 60.351562 L 22.007812 60.378906 L 21.96875 60.417969 L 21.824219 60.472656 L 21.648438 60.5625 L 21.574219 60.566406 L 21.515625 60.589844 L 21.3125 60.589844 L 21.1875 60.601562 L 21.148438 60.589844 L 21.109375 60.589844 C 20.976562 60.566406 20.84375 60.519531 20.722656 60.453125 L 16.78125 58.25 C 16.6875 58.199219 16.59375 58.160156 16.492188 58.132812 L 16.1875 58.097656 L 15.886719 58.132812 C 15.785156 58.160156 15.6875 58.199219 15.597656 58.25 L 11.652344 60.453125 C 11.535156 60.519531 11.402344 60.566406 11.269531 60.589844 L 11.230469 60.589844 L 11.195312 60.601562 L 11.066406 60.589844 L 10.859375 60.589844 L 10.804688 60.566406 L 10.730469 60.5625 L 10.554688 60.472656 L 10.410156 60.417969 L 10.371094 60.378906 L 10.3125 60.351562 L 10.203125 60.21875 L 10.074219 60.097656 L 10.046875 60.039062 L 10 59.984375 L 9.925781 59.777344 L 9.882812 59.671875 L 9.878906 59.640625 L 9.863281 59.601562 C 9.839844 59.464844 9.839844 59.328125 9.863281 59.191406 L 10.664062 54.390625 C 10.730469 54.007812 10.605469 53.617188 10.335938 53.339844 L 8.289062 51.261719 L 8.292969 51.261719 L 6.957031 49.902344 C 6.777344 49.71875 6.65625 49.480469 6.621094 49.226562 C 6.523438 48.5625 6.980469 47.945312 7.644531 47.847656 L 12.195312 47.175781 C 12.292969 47.160156 12.390625 47.132812 12.484375 47.09375 L 12.5625 47.050781 L 12.738281 46.949219 C 12.894531 46.832031 13.027344 46.671875 13.113281 46.488281 L 15.085938 42.238281 C 15.136719 42.125 15.207031 42.023438 15.289062 41.933594 L 15.324219 41.902344 L 15.332031 41.894531 L 15.371094 41.867188 L 15.5625 41.710938 L 15.644531 41.675781 L 15.679688 41.648438 L 15.738281 41.636719 L 15.882812 41.578125 L 16.082031 41.554688 Z M 95.765625 41.539062 L 95.804688 41.542969 L 95.84375 41.539062 L 95.914062 41.554688 L 96.113281 41.578125 L 96.253906 41.636719 L 96.3125 41.648438 L 96.351562 41.675781 L 96.4375 41.710938 L 96.625 41.867188 L 96.660156 41.894531 L 96.667969 41.902344 L 96.707031 41.933594 C 96.789062 42.023438 96.855469 42.125 96.910156 42.238281 L 98.882812 46.488281 C 98.96875 46.671875 99.097656 46.832031 99.257812 46.949219 L 99.433594 47.050781 L 99.507812 47.09375 C 99.601562 47.132812 99.699219 47.160156 99.800781 47.175781 L 104.351562 47.847656 C 105.011719 47.945312 105.472656 48.5625 105.371094 49.226562 C 105.335938 49.480469 105.21875 49.71875 105.035156 49.902344 L 104.246094 50.703125 L 104.25 50.707031 L 101.660156 53.339844 C 101.386719 53.617188 101.265625 54.007812 101.328125 54.390625 L 102.128906 59.191406 C 102.152344 59.328125 102.152344 59.464844 102.128906 59.601562 L 102.113281 59.640625 L 102.113281 59.671875 L 102.066406 59.777344 L 101.992188 59.984375 L 101.949219 60.039062 L 101.921875 60.097656 L 101.792969 60.21875 L 101.679688 60.351562 L 101.621094 60.378906 L 101.582031 60.417969 L 101.4375 60.472656 L 101.265625 60.5625 L 101.191406 60.566406 L 101.132812 60.589844 L 100.929688 60.589844 L 100.800781 60.601562 L 100.765625 60.589844 L 100.722656 60.589844 C 100.589844 60.566406 100.460938 60.519531 100.339844 60.453125 L 96.394531 58.25 C 96.304688 58.199219 96.207031 58.160156 96.109375 58.132812 L 95.804688 58.097656 L 95.5 58.132812 C 95.402344 58.160156 95.304688 58.199219 95.214844 58.25 L 91.269531 60.453125 C 91.148438 60.519531 91.019531 60.566406 90.882812 60.589844 L 90.84375 60.589844 L 90.808594 60.601562 L 90.679688 60.589844 L 90.476562 60.589844 L 90.417969 60.566406 L 90.34375 60.5625 L 90.171875 60.472656 L 90.027344 60.417969 L 89.984375 60.378906 L 89.929688 60.351562 L 89.816406 60.21875 L 89.6875 60.097656 L 89.664062 60.039062 L 89.617188 59.984375 L 89.542969 59.777344 L 89.496094 59.671875 L 89.492188 59.640625 L 89.480469 59.601562 C 89.457031 59.464844 89.457031 59.328125 89.480469 59.191406 L 90.28125 54.390625 C 90.34375 54.007812 90.222656 53.617188 89.949219 53.339844 L 87.90625 51.261719 L 86.570312 49.902344 C 86.390625 49.71875 86.273438 49.480469 86.238281 49.226562 C 86.136719 48.5625 86.597656 47.945312 87.257812 47.847656 L 91.808594 47.175781 C 91.910156 47.160156 92.007812 47.132812 92.097656 47.09375 L 92.179688 47.050781 L 92.355469 46.949219 C 92.511719 46.832031 92.640625 46.671875 92.726562 46.488281 L 94.699219 42.238281 C 94.753906 42.125 94.820312 42.023438 94.902344 41.933594 L 94.941406 41.902344 L 94.949219 41.894531 L 94.984375 41.867188 L 95.175781 41.710938 L 95.257812 41.675781 L 95.296875 41.648438 L 95.355469 41.636719 L 95.496094 41.578125 L 95.695312 41.554688 Z M 77.804688 27.050781 L 77.84375 27.054688 L 77.886719 27.050781 L 77.953125 27.066406 L 78.152344 27.089844 L 78.292969 27.148438 L 78.355469 27.164062 L 78.390625 27.191406 L 78.476562 27.226562 L 78.664062 27.378906 L 78.699219 27.40625 L 78.707031 27.417969 L 78.746094 27.449219 C 78.828125 27.539062 78.894531 27.640625 78.949219 27.753906 L 80.921875 32 C 81.007812 32.1875 81.136719 32.34375 81.296875 32.464844 L 81.472656 32.5625 L 81.546875 32.609375 C 81.640625 32.644531 81.738281 32.671875 81.839844 32.6875 L 86.390625 33.363281 C 87.050781 33.460938 87.511719 34.078125 87.414062 34.742188 C 87.375 34.996094 87.257812 35.230469 87.074219 35.414062 L 86.285156 36.21875 L 86.289062 36.222656 L 83.699219 38.851562 C 83.425781 39.128906 83.304688 39.519531 83.367188 39.90625 L 84.171875 44.707031 C 84.191406 44.839844 84.191406 44.980469 84.167969 45.113281 L 84.152344 45.15625 L 84.152344 45.1875 L 84.105469 45.292969 L 84.03125 45.5 L 83.988281 45.550781 L 83.960938 45.613281 L 83.832031 45.734375 L 83.71875 45.863281 L 83.664062 45.894531 L 83.621094 45.929688 L 83.480469 45.988281 L 83.304688 46.074219 L 83.230469 46.082031 L 83.171875 46.105469 L 82.96875 46.101562 L 82.839844 46.113281 L 82.804688 46.101562 L 82.761719 46.101562 C 82.628906 46.078125 82.503906 46.035156 82.378906 45.964844 L 78.4375 43.765625 C 78.34375 43.710938 78.246094 43.675781 78.148438 43.648438 L 77.84375 43.609375 L 77.539062 43.648438 C 77.441406 43.675781 77.34375 43.710938 77.253906 43.765625 L 73.308594 45.964844 C 73.1875 46.035156 73.058594 46.078125 72.921875 46.101562 L 72.886719 46.101562 L 72.851562 46.113281 L 72.71875 46.101562 L 72.515625 46.105469 L 72.457031 46.082031 L 72.386719 46.074219 L 72.210938 45.988281 L 72.066406 45.929688 L 72.023438 45.894531 L 71.96875 45.863281 L 71.855469 45.734375 L 71.726562 45.613281 L 71.703125 45.550781 L 71.65625 45.5 L 71.582031 45.292969 L 71.535156 45.1875 L 71.535156 45.15625 L 71.519531 45.113281 C 71.496094 44.980469 71.496094 44.839844 71.519531 44.707031 L 72.320312 39.90625 C 72.386719 39.519531 72.261719 39.128906 71.988281 38.851562 L 69.949219 36.777344 L 69.949219 36.773438 L 68.609375 35.414062 C 68.429688 35.230469 68.3125 34.996094 68.277344 34.742188 C 68.179688 34.078125 68.636719 33.460938 69.300781 33.363281 L 73.847656 32.6875 C 73.949219 32.671875 74.046875 32.644531 74.136719 32.609375 L 74.21875 32.5625 L 74.394531 32.464844 C 74.550781 32.34375 74.679688 32.1875 74.769531 32 L 76.742188 27.753906 C 76.792969 27.640625 76.863281 27.539062 76.941406 27.449219 L 76.980469 27.417969 L 76.988281 27.40625 L 77.027344 27.378906 L 77.214844 27.226562 L 77.296875 27.191406 L 77.335938 27.164062 L 77.394531 27.148438 L 77.535156 27.089844 L 77.734375 27.066406 Z M 34.21875 27.050781 L 34.261719 27.054688 L 34.300781 27.050781 L 34.367188 27.066406 L 34.566406 27.089844 L 34.710938 27.148438 L 34.765625 27.164062 L 34.804688 27.191406 L 34.886719 27.226562 L 35.078125 27.378906 L 35.117188 27.40625 L 35.125 27.417969 L 35.160156 27.449219 C 35.242188 27.539062 35.3125 27.640625 35.363281 27.753906 L 37.335938 32 C 37.421875 32.1875 37.554688 32.34375 37.710938 32.464844 L 37.890625 32.5625 L 37.964844 32.609375 C 38.058594 32.644531 38.15625 32.671875 38.253906 32.6875 L 42.804688 33.363281 C 43.46875 33.460938 43.925781 34.078125 43.828125 34.742188 C 43.792969 34.996094 43.671875 35.230469 43.492188 35.414062 L 42.703125 36.21875 L 42.707031 36.222656 L 40.113281 38.851562 C 39.84375 39.128906 39.71875 39.519531 39.785156 39.90625 L 40.585938 44.707031 C 40.609375 44.839844 40.609375 44.980469 40.585938 45.113281 L 40.570312 45.15625 L 40.566406 45.1875 L 40.523438 45.292969 L 40.449219 45.5 L 40.402344 45.550781 L 40.375 45.613281 L 40.246094 45.734375 L 40.136719 45.863281 L 40.078125 45.894531 L 40.039062 45.929688 L 39.894531 45.988281 L 39.71875 46.074219 L 39.644531 46.082031 L 39.585938 46.105469 L 39.382812 46.101562 L 39.253906 46.113281 L 39.21875 46.101562 L 39.179688 46.101562 C 39.046875 46.078125 38.914062 46.035156 38.796875 45.964844 L 34.851562 43.765625 C 34.761719 43.710938 34.664062 43.675781 34.5625 43.648438 L 34.261719 43.609375 L 33.957031 43.648438 C 33.855469 43.675781 33.757812 43.710938 33.667969 43.765625 L 29.726562 45.964844 C 29.605469 46.035156 29.472656 46.078125 29.339844 46.101562 L 29.300781 46.101562 L 29.265625 46.113281 L 29.136719 46.101562 L 28.933594 46.105469 L 28.875 46.082031 L 28.800781 46.074219 L 28.625 45.988281 L 28.480469 45.929688 L 28.441406 45.894531 L 28.386719 45.863281 L 28.273438 45.734375 L 28.144531 45.613281 L 28.117188 45.550781 L 28.074219 45.5 L 28 45.292969 L 27.953125 45.1875 L 27.949219 45.15625 L 27.933594 45.113281 C 27.910156 44.980469 27.910156 44.839844 27.933594 44.707031 L 28.734375 39.90625 C 28.800781 39.519531 28.679688 39.128906 28.40625 38.851562 L 26.359375 36.777344 L 26.363281 36.773438 L 25.027344 35.414062 C 24.847656 35.230469 24.730469 34.996094 24.691406 34.742188 C 24.59375 34.078125 25.050781 33.460938 25.714844 33.363281 L 30.265625 32.6875 C 30.363281 32.671875 30.460938 32.644531 30.554688 32.609375 L 30.632812 32.5625 L 30.808594 32.464844 C 30.964844 32.34375 31.097656 32.1875 31.183594 32 L 33.15625 27.753906 C 33.210938 27.640625 33.277344 27.539062 33.359375 27.449219 L 33.394531 27.417969 L 33.40625 27.40625 L 33.441406 27.378906 L 33.632812 27.226562 L 33.714844 27.191406 L 33.753906 27.164062 L 33.808594 27.148438 L 33.953125 27.089844 L 34.152344 27.066406 Z M 55.957031 20.515625 L 55.996094 20.519531 L 56.039062 20.515625 L 56.105469 20.53125 L 56.304688 20.554688 L 56.449219 20.613281 L 56.503906 20.625 L 56.542969 20.652344 L 56.628906 20.6875 L 56.816406 20.84375 L 56.851562 20.871094 L 56.859375 20.878906 L 56.898438 20.910156 C 56.980469 21 57.046875 21.101562 57.101562 21.214844 L 59.074219 25.464844 C 59.160156 25.648438 59.289062 25.808594 59.449219 25.925781 L 59.625 26.027344 L 59.703125 26.070312 C 59.792969 26.109375 59.890625 26.136719 59.992188 26.152344 L 64.542969 26.824219 C 65.203125 26.921875 65.664062 27.539062 65.566406 28.203125 C 65.527344 28.457031 65.410156 28.695312 65.226562 28.878906 L 64.4375 29.679688 L 64.441406 29.683594 L 61.851562 32.316406 C 61.578125 32.59375 61.457031 32.984375 61.519531 33.367188 L 62.324219 38.167969 C 62.347656 38.304688 62.34375 38.441406 62.320312 38.578125 L 62.304688 38.617188 L 62.304688 38.648438 L 62.257812 38.753906 L 62.183594 38.960938 L 62.140625 39.015625 L 62.113281 39.074219 L 61.984375 39.195312 L 61.871094 39.328125 L 61.8125 39.355469 L 61.773438 39.394531 L 61.632812 39.449219 L 61.457031 39.539062 L 61.382812 39.542969 L 61.324219 39.566406 L 61.121094 39.566406 L 60.992188 39.578125 L 60.957031 39.566406 L 60.917969 39.566406 C 60.78125 39.542969 60.652344 39.496094 60.53125 39.429688 L 56.589844 37.226562 C 56.496094 37.175781 56.398438 37.136719 56.300781 37.109375 L 55.996094 37.074219 L 55.695312 37.109375 C 55.59375 37.136719 55.496094 37.175781 55.40625 37.226562 L 51.460938 39.429688 C 51.339844 39.496094 51.210938 39.542969 51.074219 39.566406 L 51.039062 39.566406 L 51.003906 39.578125 L 50.875 39.566406 L 50.667969 39.566406 L 50.609375 39.542969 L 50.539062 39.539062 L 50.363281 39.449219 L 50.21875 39.394531 L 50.179688 39.355469 L 50.121094 39.328125 L 50.007812 39.195312 L 49.878906 39.074219 L 49.855469 39.015625 L 49.808594 38.960938 L 49.734375 38.753906 L 49.6875 38.648438 L 49.6875 38.617188 L 49.671875 38.578125 C 49.648438 38.441406 49.648438 38.304688 49.671875 38.167969 L 50.472656 33.367188 C 50.539062 32.984375 50.414062 32.59375 50.140625 32.316406 L 48.097656 30.238281 L 46.765625 28.878906 C 46.582031 28.695312 46.464844 28.457031 46.429688 28.203125 C 46.332031 27.539062 46.789062 26.921875 47.453125 26.824219 L 52 26.152344 C 52.101562 26.136719 52.199219 26.109375 52.289062 26.070312 L 52.371094 26.027344 L 52.546875 25.925781 C 52.703125 25.808594 52.832031 25.648438 52.921875 25.464844 L 54.894531 21.214844 C 54.945312 21.101562 55.015625 21 55.097656 20.910156 L 55.132812 20.878906 L 55.140625 20.871094 L 55.179688 20.84375 L 55.367188 20.6875 L 55.449219 20.652344 L 55.488281 20.625 L 55.546875 20.613281 L 55.6875 20.554688 L 55.886719 20.53125 Z M 55.957031 20.515625 " fill-opacity="1" fill-rule="evenodd"/></g></svg>