<svg xmlns="http://www.w3.org/2000/svg" xmlns:xlink="http://www.w3.org/1999/xlink" width="150" zoomAndPan="magnify" viewBox="0 0 112.5 112.499997" height="150" preserveAspectRatio="xMidYMid meet" version="1.0"><defs><clipPath id="a1aa3c02c8"><path d="M 8.65625 59 L 25 59 L 25 92.25 L 8.65625 92.25 Z M 8.65625 59 " clip-rule="nonzero"/></clipPath><clipPath id="8ac7f54f4f"><path d="M 32 17.582031 L 94 17.582031 L 94 51 L 32 51 Z M 32 17.582031 " clip-rule="nonzero"/></clipPath></defs><g clip-path="url(#a1aa3c02c8)"><path fill="#fba794" d="M 20.398438 59.808594 C 18.273438 59.808594 13.808594 59.808594 12.554688 59.808594 C 10.398438 59.808594 8.652344 61.558594 8.652344 63.714844 L 8.652344 88.476562 C 8.652344 90.632812 10.398438 92.378906 12.558594 92.378906 C 14.683594 92.378906 19.148438 92.378906 20.398438 92.378906 C 22.554688 92.378906 24.304688 90.632812 24.304688 88.476562 L 24.304688 63.714844 C 24.304688 61.558594 22.554688 59.808594 20.398438 59.808594 Z M 20.398438 59.808594 " fill-opacity="1" fill-rule="nonzero"/></g><path fill="#fba794" d="M 102.195312 57.339844 C 98.617188 53.816406 84.234375 64.019531 80.222656 67.023438 C 80.765625 68.269531 80.839844 69.683594 80.417969 71 C 77.515625 80.007812 57.042969 70.277344 46.261719 76.230469 C 45.695312 76.539062 44.996094 76.328125 44.691406 75.773438 C 44.382812 75.214844 44.585938 74.511719 45.144531 74.203125 C 56.132812 68.136719 76.203125 76.535156 78.214844 70.289062 C 78.507812 69.382812 78.398438 68.398438 77.917969 67.585938 C 76.332031 64.914062 71.164062 64.320312 65.695312 63.691406 C 53.679688 62.308594 55.558594 61.5 48.027344 60.289062 C 40.105469 59.207031 33.121094 60.945312 26.933594 65.21875 C 26.714844 65.367188 26.582031 65.617188 26.582031 65.882812 L 26.582031 85.632812 C 26.582031 86.167969 27.089844 86.554688 27.609375 86.410156 C 43.269531 82.074219 55.730469 91.660156 63.222656 87.972656 C 88.820312 76.164062 105.96875 61.074219 102.195312 57.339844 Z M 102.195312 57.339844 " fill-opacity="1" fill-rule="nonzero"/><g clip-path="url(#8ac7f54f4f)"><path fill="#fba794" d="M 33.433594 50.328125 C 33.953125 50.679688 34.660156 50.542969 35.011719 50.019531 L 35.035156 49.988281 C 37.054688 46.984375 39.53125 44.476562 42.328125 42.507812 C 43.582031 43.804688 45.070312 45.234375 47.257812 46.761719 C 54.296875 51.664062 61.574219 51.96875 67.863281 45.972656 C 68.308594 45.546875 68.335938 44.847656 67.925781 44.390625 L 66.4375 42.722656 C 80.9375 43.742188 89.574219 36.808594 92.445312 25.460938 C 93.371094 21.808594 93.332031 19.023438 93.332031 18.90625 C 93.316406 18.125 92.542969 17.59375 91.816406 17.851562 C 88.25 19.101562 86.074219 19.277344 80.8125 19.699219 C 74.417969 20.214844 67.210938 20.535156 61.703125 23.71875 L 62.386719 21.945312 C 62.632812 21.316406 62.277344 20.609375 61.617188 20.433594 C 56.816406 19.171875 52.515625 19.992188 48.9375 22.542969 C 45.300781 25.128906 43.289062 28.851562 42.410156 30.84375 C 41.226562 33.527344 40.84375 35.792969 40.507812 37.789062 C 40.429688 38.234375 40.355469 38.664062 40.277344 39.082031 C 40.335938 39.042969 40.394531 39.003906 40.453125 38.964844 C 45.214844 35.816406 50.660156 34.210938 55.886719 34.09375 C 59.089844 34.023438 60.214844 34.332031 63.230469 34.6875 C 66.171875 34.949219 68.832031 34.6875 71.628906 33.746094 C 73.113281 33.226562 73.738281 32.914062 74.089844 32.765625 C 72.535156 33.566406 69.015625 35.734375 63.179688 35.558594 C 60.398438 35.40625 51.019531 33.886719 41.621094 40.640625 C 39.15625 42.414062 36.902344 43.625 33.152344 48.707031 C 33.140625 48.71875 33.132812 48.734375 33.121094 48.746094 C 32.769531 49.269531 32.910156 49.976562 33.433594 50.328125 Z M 33.433594 50.328125 " fill-opacity="1" fill-rule="nonzero"/></g></svg>