<svg xmlns="http://www.w3.org/2000/svg" xmlns:xlink="http://www.w3.org/1999/xlink" width="150" zoomAndPan="magnify" viewBox="0 0 112.5 112.499997" height="150" preserveAspectRatio="xMidYMid meet" version="1.0"><defs><clipPath id="d00a457bac"><path d="M 9.074219 9.835938 L 103 9.835938 L 103 102 L 9.074219 102 Z M 9.074219 9.835938 " clip-rule="nonzero"/></clipPath></defs><g clip-path="url(#d00a457bac)"><path fill="#fba794" d="M 77.464844 83.363281 C 82.40625 84.246094 92.671875 86.523438 92.671875 91.484375 C 92.671875 94.5625 88.324219 97.140625 81.289062 98.820312 C 67.394531 102.132812 44.992188 102.132812 31.097656 98.820312 C 24.066406 97.140625 19.714844 94.5625 19.714844 91.484375 C 19.714844 86.367188 30.636719 84.082031 35.726562 83.222656 C 36.292969 83.125 36.832031 83.398438 37.09375 83.910156 C 37.332031 84.386719 37.570312 84.773438 37.265625 85.386719 C 37.078125 85.769531 36.746094 86.015625 36.324219 86.085938 C 32.574219 86.714844 29.390625 87.515625 26.980469 88.4375 C 24.234375 89.488281 22.644531 90.546875 22.644531 91.484375 C 22.644531 93.023438 26.132812 94.625 31.773438 95.96875 C 45.226562 99.179688 67.164062 99.179688 80.617188 95.96875 C 86.253906 94.625 89.742188 93.023438 89.742188 91.484375 C 89.742188 90.546875 88.15625 89.488281 85.40625 88.4375 C 83.164062 87.578125 80.253906 86.828125 76.839844 86.222656 C 75.972656 86.066406 75.511719 85.117188 75.933594 84.339844 C 75.984375 84.238281 76.039062 84.140625 76.089844 84.039062 C 76.355469 83.527344 76.898438 83.261719 77.464844 83.363281 Z M 63.277344 38.636719 C 61.035156 39.332031 58.902344 39.480469 56.195312 39.480469 C 53.855469 39.480469 51.6875 39.164062 49.96875 38.636719 C 49.933594 38.625 49.898438 38.632812 49.871094 38.660156 C 49.847656 38.683594 49.835938 38.71875 49.847656 38.753906 C 50.597656 41.597656 51.21875 44.816406 51.285156 47.664062 C 51.34375 50.0625 51.046875 52.457031 50.191406 54.894531 C 48.40625 59.976562 45.523438 62.207031 42.589844 65.648438 C 39.710938 69.027344 38.035156 72.425781 37.800781 75.835938 C 37.570312 79.214844 38.761719 82.6875 41.605469 86.269531 C 46.738281 92.726562 49.230469 92.410156 56.625 92.410156 C 64.015625 92.410156 66.507812 92.726562 71.640625 86.269531 C 73.535156 83.882812 74.695312 81.546875 75.191406 79.253906 C 75.203125 79.210938 75.183594 79.171875 75.144531 79.148438 C 74.578125 78.824219 74.121094 78.359375 73.71875 77.851562 C 73.6875 77.808594 73.625 77.800781 73.582031 77.835938 C 72.71875 78.511719 71.90625 79.113281 71.1875 79.613281 C 68.015625 81.816406 64.214844 80.203125 63.777344 77.117188 C 63.609375 75.917969 64 74.835938 64.78125 73.941406 C 64.800781 73.917969 64.808594 73.894531 64.804688 73.867188 C 64.800781 73.839844 64.789062 73.816406 64.769531 73.800781 C 64.476562 73.570312 64.210938 73.296875 63.980469 72.980469 C 63.039062 71.679688 62.644531 70.484375 63.199219 68.886719 C 63.601562 67.734375 64.367188 67.042969 65.207031 66.222656 C 66.265625 65.195312 67.199219 64.078125 68.015625 62.84375 C 68.042969 62.804688 68.039062 62.757812 68.007812 62.722656 C 66.703125 61.289062 65.4375 59.785156 64.382812 57.867188 C 64.359375 57.832031 64.324219 57.8125 64.28125 57.816406 C 60.984375 58.28125 57.824219 55.226562 58.75 51.609375 C 59.09375 50.265625 59.902344 49.253906 61.074219 48.53125 L 61.910156 48.039062 C 61.9375 48.019531 61.957031 47.992188 61.957031 47.957031 C 61.992188 45 62.625 41.691406 63.402344 38.753906 C 63.410156 38.71875 63.402344 38.683594 63.375 38.660156 C 63.347656 38.632812 63.3125 38.625 63.277344 38.636719 Z M 63.015625 33.503906 C 60.988281 32.742188 58.835938 32.59375 56.195312 32.59375 C 53.835938 32.59375 51.730469 32.941406 50.230469 33.503906 C 49.359375 33.832031 48.757812 34.148438 48.566406 34.40625 C 48.546875 34.433594 48.539062 34.464844 48.550781 34.496094 C 48.589844 34.605469 48.625 34.714844 48.664062 34.824219 C 48.667969 34.84375 48.675781 34.855469 48.691406 34.867188 C 48.960938 35.097656 49.5 35.367188 50.230469 35.640625 C 52.257812 36.402344 54.414062 36.550781 57.054688 36.550781 C 59.414062 36.550781 61.519531 36.203125 63.015625 35.640625 C 63.746094 35.367188 64.285156 35.097656 64.554688 34.867188 C 64.570312 34.855469 64.578125 34.84375 64.585938 34.824219 C 64.621094 34.714844 64.660156 34.605469 64.699219 34.496094 C 64.707031 34.464844 64.703125 34.433594 64.683594 34.40625 C 64.488281 34.148438 63.886719 33.832031 63.015625 33.503906 Z M 86.109375 23.957031 L 83.601562 28.507812 C 83.574219 28.554688 83.589844 28.613281 83.636719 28.640625 L 99.035156 37.121094 C 99.082031 37.148438 99.140625 37.132812 99.167969 37.085938 L 101.675781 32.53125 C 101.699219 32.484375 101.683594 32.425781 101.636719 32.398438 L 86.242188 23.917969 C 86.191406 23.890625 86.132812 23.910156 86.109375 23.957031 Z M 58.765625 23.050781 L 61.273438 18.496094 C 61.300781 18.449219 61.28125 18.390625 61.234375 18.363281 L 45.839844 9.882812 C 45.792969 9.859375 45.730469 9.875 45.707031 9.921875 L 43.199219 14.472656 C 43.171875 14.519531 43.191406 14.582031 43.238281 14.605469 L 58.632812 23.089844 C 58.679688 23.113281 58.738281 23.097656 58.765625 23.050781 Z M 97.539062 57.613281 C 97.355469 59.011719 96.878906 62.332031 96.117188 63.503906 C 94.652344 65.761719 93.136719 67.988281 91.445312 70.085938 C 89.882812 72.019531 88.609375 73.949219 86.785156 75.640625 C 85.660156 76.679688 83.804688 77.023438 82.609375 75.902344 L 82.394531 75.699219 C 82.355469 75.660156 82.355469 75.601562 82.390625 75.5625 C 85.371094 72.390625 87.945312 69.546875 90.152344 65.757812 C 90.828125 64.59375 89.203125 64.203125 88.738281 64.984375 C 87.324219 67.359375 85.839844 69.449219 83.9375 71.445312 C 82.128906 73.34375 80.515625 74.835938 78.519531 76.53125 C 77.882812 77.070312 76.933594 77.019531 76.359375 76.40625 C 75.914062 75.933594 75.609375 75.644531 75.65625 74.929688 C 75.667969 74.742188 75.640625 74.804688 75.773438 74.671875 C 79.0625 71.460938 81.179688 69.375 84.066406 65.648438 C 84.070312 65.640625 84.074219 65.636719 84.078125 65.628906 C 84.25 65.257812 84.191406 64.933594 84.019531 64.691406 C 83.667969 64.199219 82.832031 64.066406 82.550781 64.605469 C 81.882812 65.882812 80.71875 67.296875 79.757812 68.371094 C 78.441406 69.84375 77.449219 71.191406 75.988281 72.519531 C 74.101562 74.234375 71.847656 76.105469 69.757812 77.558594 C 68.164062 78.664062 66.4375 78.027344 66.257812 76.765625 C 66.199219 76.347656 66.382812 75.816406 66.679688 75.582031 C 71.898438 71.441406 75.96875 66.460938 79.054688 60.5625 C 79.496094 59.71875 78.28125 58.921875 77.679688 59.84375 C 75.117188 63.800781 72.261719 69.1875 68.136719 71.910156 C 67.4375 72.371094 66.5 72.191406 66.011719 71.511719 C 65.570312 70.902344 65.292969 70.492188 65.566406 69.710938 C 65.789062 69.070312 66.476562 68.484375 66.953125 68.019531 C 67.960938 67.039062 68.824219 66.039062 69.644531 64.894531 C 72.347656 61.125 74.261719 55.730469 75.125 51.175781 L 75.246094 50.542969 C 75.382812 49.804688 74.582031 49.25 73.941406 49.628906 C 70.917969 51.417969 67.890625 53.210938 64.867188 55 C 62.960938 56.132812 60.625 54.378906 61.175781 52.230469 C 61.359375 51.527344 61.769531 51.039062 62.390625 50.664062 L 77.761719 41.5625 C 77.921875 41.46875 78.019531 41.355469 78.101562 41.195312 C 78.105469 41.195312 78.105469 41.191406 78.105469 41.191406 L 83.546875 31.589844 C 83.574219 31.546875 83.632812 31.527344 83.679688 31.554688 L 98.226562 39.566406 C 98.269531 39.589844 98.285156 39.636719 98.273438 39.683594 C 97.796875 41.234375 97.152344 43.21875 97.113281 44.820312 C 96.96875 50.566406 98.425781 50.738281 97.539062 57.613281 Z M 36.839844 57.136719 C 35.921875 56.027344 36.4375 54.726562 36.886719 53.492188 C 36.886719 53.488281 36.890625 53.488281 36.890625 53.484375 L 40.667969 45.972656 C 40.667969 45.96875 40.667969 45.96875 40.667969 45.96875 C 41.25 44.972656 39.734375 44.082031 39.152344 45.082031 L 36.015625 50.4375 C 36.011719 50.445312 36.007812 50.449219 36 50.457031 C 35.925781 50.53125 35.832031 50.527344 35.652344 50.871094 C 34.148438 53.71875 32.722656 56.617188 31.230469 59.464844 C 30.886719 60.121094 30.1875 60.6875 29.414062 60.464844 C 28.84375 60.300781 28.382812 60.222656 28.0625 59.613281 C 27.878906 59.265625 27.847656 58.828125 27.972656 58.460938 C 29.757812 53.277344 32.660156 48.527344 35.148438 43.664062 C 35.675781 42.636719 34.113281 41.835938 33.585938 42.867188 L 24.269531 60.828125 C 23.925781 61.484375 23.230469 62.050781 22.453125 61.828125 C 21.882812 61.664062 21.421875 61.585938 21.101562 60.976562 C 20.917969 60.625 20.890625 60.199219 21.015625 59.824219 C 23.539062 52.28125 27.339844 46.367188 30.910156 39.351562 C 31.4375 38.316406 29.863281 37.515625 29.339844 38.550781 L 21.578125 53.796875 C 20.925781 55.082031 17.035156 56.550781 18.414062 52.121094 C 18.710938 51.164062 19.011719 50.207031 19.402344 49.28125 L 26.894531 31.613281 C 27.222656 30.835938 26.460938 30.050781 25.6875 30.308594 L 25.410156 30.402344 L 17.375 33.089844 C 13.855469 34.265625 13.117188 29.480469 15.828125 28.558594 L 35.257812 21.949219 C 35.351562 21.917969 35.4375 21.871094 35.519531 21.816406 L 42.09375 17.050781 C 42.125 17.027344 42.164062 17.027344 42.199219 17.042969 L 57.5625 25.507812 C 57.605469 25.53125 57.621094 25.578125 57.609375 25.621094 C 57.152344 27.171875 56.933594 28.265625 56.777344 29.867188 C 56.773438 29.917969 56.730469 29.957031 56.679688 29.957031 C 54.222656 29.933594 51.617188 30.167969 49.300781 31.039062 C 47.800781 31.605469 45.855469 32.734375 45.855469 34.574219 C 45.855469 35.398438 46.191406 35.734375 46.273438 35.988281 C 46.9375 37.984375 47.433594 39.800781 47.878906 41.855469 C 47.886719 41.882812 47.878906 41.90625 47.863281 41.929688 C 45.089844 45.84375 42.867188 50.195312 40.359375 54.261719 C 39.769531 55.21875 38.695312 57.132812 37.460938 57.363281 C 37.234375 57.40625 36.976562 57.328125 36.84375 57.144531 C 36.84375 57.140625 36.839844 57.140625 36.839844 57.136719 Z M 101.484375 92.101562 C 102.375 91.144531 102.933594 89.972656 102.863281 88.6875 C 102.597656 84.027344 94.460938 81.308594 89.691406 80.027344 C 88.914062 79.820312 88.109375 80.285156 87.902344 81.0625 C 87.695312 81.84375 88.15625 82.648438 88.9375 82.855469 C 92.550781 83.828125 95.445312 84.9375 97.410156 86.128906 C 98.996094 87.089844 99.894531 88.015625 99.941406 88.847656 C 99.96875 89.316406 99.691406 89.738281 99.34375 90.109375 C 98.796875 90.703125 98.828125 91.625 99.417969 92.175781 C 100.011719 92.726562 100.9375 92.691406 101.484375 92.101562 Z M 12.496094 89.589844 C 12.332031 89.394531 12.214844 89.195312 12.144531 89.003906 C 11.65625 87.679688 13.800781 86.21875 16.582031 85.007812 C 19.929688 83.554688 24.757812 82.289062 30.59375 81.335938 C 31.390625 81.207031 31.929688 80.453125 31.800781 79.660156 C 31.671875 78.863281 30.917969 78.320312 30.125 78.453125 C 23.691406 79.5 9.542969 82.359375 9.15625 88.386719 C 9.082031 89.527344 9.507812 90.550781 10.242188 91.445312 C 10.753906 92.066406 11.671875 92.15625 12.296875 91.644531 C 12.917969 91.132812 13.007812 90.214844 12.496094 89.589844 Z M 12.496094 89.589844 " fill-opacity="1" fill-rule="evenodd"/></g></svg>