<svg xmlns="http://www.w3.org/2000/svg" xmlns:xlink="http://www.w3.org/1999/xlink" width="150" zoomAndPan="magnify" viewBox="0 0 112.5 112.499997" height="150" preserveAspectRatio="xMidYMid meet" version="1.0"><defs><clipPath id="26d404460b"><path d="M 13 17 L 100.800781 17 L 100.800781 96 L 13 96 Z M 13 17 " clip-rule="nonzero"/></clipPath></defs><g clip-path="url(#26d404460b)"><path fill="#fba794" d="M 51.714844 93.632812 C 49.464844 92.601562 46.78125 88.507812 44.378906 79.597656 C 41.914062 70.804688 39.03125 62.753906 34.390625 55.125 C 33.589844 54.3125 32.851562 53.738281 32.050781 53.925781 L 29.082031 54.429688 C 27.917969 54.707031 27.242188 55.257812 27.246094 56.199219 C 26.589844 67.800781 26.199219 79.359375 26.929688 90.785156 L 26.488281 91.355469 L 25.285156 91.417969 C 22.902344 91.4375 23.046875 91.132812 22.566406 90.914062 C 22.910156 84.296875 22.335938 77.535156 21.617188 70.742188 C 20.648438 60.671875 18.050781 51.066406 13.59375 41.996094 C 13.390625 41.367188 13.554688 41.085938 13.730469 40.847656 C 11.15625 34.289062 17.648438 22.769531 25.742188 17.742188 C 26.050781 17.410156 26.214844 17.230469 26.355469 17.070312 C 26.207031 15.714844 52.582031 53.285156 50.640625 51.898438 C 53.03125 56.496094 54.636719 61.085938 56.144531 65.683594 C 58.488281 70.183594 62.859375 72.300781 69.863281 71.3125 C 74.097656 71.058594 78.335938 74.472656 82.445312 76.242188 C 90 79.394531 97.113281 82.453125 99.453125 84.527344 C 100.71875 86.167969 100.527344 87.878906 99.453125 89.078125 C 99.214844 90 98.585938 90.53125 97.679688 90.785156 C 89.511719 93.265625 80.75 94.375 72.011719 95.527344 C 61.5 96.335938 55.230469 95.507812 51.722656 93.640625 Z M 51.714844 93.632812 " fill-opacity="1" fill-rule="evenodd"/></g></svg>