<svg xmlns="http://www.w3.org/2000/svg" xmlns:xlink="http://www.w3.org/1999/xlink" width="150" zoomAndPan="magnify" viewBox="0 0 112.5 112.499997" height="150" preserveAspectRatio="xMidYMid meet" version="1.0"><defs><clipPath id="8e3b60b230"><path d="M 49 5.574219 L 74 5.574219 L 74 39 L 49 39 Z M 49 5.574219 " clip-rule="nonzero"/></clipPath><clipPath id="e07d365423"><path d="M 19.441406 84 L 91 84 L 91 106.375 L 19.441406 106.375 Z M 19.441406 84 " clip-rule="nonzero"/></clipPath></defs><path fill="#fba794" d="M 66.003906 61.070312 L 60.796875 60.585938 C 60.304688 60.5 59.921875 60.113281 59.832031 59.621094 C 58.554688 52.40625 59.820312 46.464844 63.59375 41.960938 C 70.972656 33.160156 85.53125 33.058594 86.148438 33.058594 C 86.800781 33.058594 87.355469 33.585938 87.363281 34.238281 C 87.433594 43.019531 83.320312 61.066406 66.003906 61.066406 Z M 66.003906 61.070312 " fill-opacity="1" fill-rule="evenodd"/><path fill="#fba794" d="M 42.15625 64.921875 C 24.839844 64.921875 20.730469 46.871094 20.796875 38.089844 C 20.800781 37.4375 21.335938 36.910156 21.976562 36.910156 C 22.640625 36.910156 37.1875 37.015625 44.5625 45.8125 C 48.339844 50.316406 49.605469 56.257812 48.324219 63.472656 C 48.238281 63.964844 47.851562 64.351562 47.359375 64.4375 C 45.550781 64.757812 43.800781 64.917969 42.15625 64.917969 Z M 42.15625 64.921875 " fill-opacity="1" fill-rule="evenodd"/><g clip-path="url(#8e3b60b230)"><path fill="#fba794" d="M 53.550781 38.917969 C 53.09375 38.917969 52.671875 38.65625 52.472656 38.234375 C 49.359375 31.570312 49.050781 25.480469 51.5625 20.140625 C 56.5 9.644531 70.457031 5.910156 71.050781 5.753906 C 71.675781 5.59375 72.320312 5.964844 72.496094 6.589844 C 72.65625 7.179688 76.398438 21.136719 69.78125 30.65625 C 66.410156 35.503906 60.984375 38.28125 53.652344 38.917969 C 53.621094 38.917969 53.585938 38.921875 53.550781 38.921875 Z M 53.550781 38.917969 " fill-opacity="1" fill-rule="evenodd"/></g><path fill="#fba794" d="M 51.621094 63.714844 C 51.359375 57.367188 50.671875 41.917969 52.058594 36.425781 C 52.730469 33.769531 54.539062 28.710938 56.824219 27.128906 C 59.183594 25.5 61.664062 29.085938 59.304688 30.71875 C 58.214844 31.46875 56.636719 36.105469 56.289062 37.488281 C 55.113281 42.160156 55.699219 56.160156 55.917969 61.761719 C 56.636719 60.695312 57.9375 58.945312 58.8125 58.0625 L 67.175781 49.625 C 69.191406 47.589844 72.285156 50.660156 70.273438 52.691406 L 61.9375 61.101562 C 59.355469 63.734375 56.246094 68.484375 56.351562 72.371094 C 56.480469 77.148438 56.382812 83.085938 56.382812 87.988281 C 56.386719 90.539062 52.023438 91.515625 52.023438 87.398438 L 52.019531 73.046875 L 48.078125 66.28125 L 39.6875 57.890625 C 37.664062 55.867188 40.753906 52.777344 42.769531 54.808594 Z M 51.621094 63.714844 " fill-opacity="1" fill-rule="evenodd"/><g clip-path="url(#e07d365423)"><path fill="#fba794" d="M 89.332031 106.398438 L 20.699219 106.398438 C 19.992188 106.398438 19.441406 105.78125 19.519531 105.078125 C 20.140625 99.464844 25.128906 95.40625 30.796875 95.921875 C 34.886719 88.695312 43.429688 85.425781 51.242188 87.917969 C 59.640625 81.394531 71.859375 83.90625 77.078125 93.109375 C 84.835938 90.433594 92.554688 97.511719 90.484375 105.507812 C 90.347656 106.03125 89.875 106.398438 89.332031 106.398438 Z M 89.332031 106.398438 " fill-opacity="1" fill-rule="evenodd"/></g></svg>