<svg xmlns="http://www.w3.org/2000/svg" xmlns:xlink="http://www.w3.org/1999/xlink" width="100" zoomAndPan="magnify" viewBox="0 0 75 74.999997" height="100" preserveAspectRatio="xMidYMid meet" version="1.0"><defs><g/><clipPath id="da2574c103"><path d="M 6 18 L 50 18 L 50 73 L 6 73 Z M 6 18 " clip-rule="nonzero"/></clipPath><clipPath id="4f2b8d7bd1"><path d="M 48.515625 18.089844 L 56.441406 66.949219 L 6.839844 74.996094 L -1.085938 26.136719 Z M 48.515625 18.089844 " clip-rule="nonzero"/></clipPath><clipPath id="8f581aef3b"><path d="M 56.4375 66.925781 L 48.511719 18.066406 L -1.089844 26.113281 L 6.835938 74.976562 Z M 56.4375 66.925781 " clip-rule="nonzero"/></clipPath><clipPath id="5e2ffc8f3c"><path d="M 37.253906 32.464844 L 72.503906 32.464844 L 72.503906 72.964844 L 37.253906 72.964844 Z M 37.253906 32.464844 " clip-rule="nonzero"/></clipPath></defs><g clip-path="url(#da2574c103)"><g clip-path="url(#4f2b8d7bd1)"><g clip-path="url(#8f581aef3b)"><path fill="#b24a38" d="M 47.359375 27.128906 C 47.199219 27.070312 47.03125 27.03125 46.851562 27.003906 C 47.019531 27.046875 47.1875 27.085938 47.359375 27.128906 Z M 36.433594 22.082031 C 36.421875 22.03125 36.40625 21.980469 36.378906 21.933594 L 36.335938 21.890625 L 36.332031 21.890625 C 36.277344 21.902344 36.167969 22.070312 36.152344 22.164062 L 36.148438 22.199219 C 36.160156 22.207031 36.171875 22.214844 36.1875 22.222656 C 36.199219 22.226562 36.214844 22.234375 36.230469 22.238281 C 36.304688 22.203125 36.375 22.148438 36.433594 22.082031 Z M 33.808594 23.085938 C 33.882812 23.027344 33.925781 22.941406 33.960938 22.851562 C 33.917969 22.8125 33.871094 22.78125 33.8125 22.777344 C 33.667969 22.765625 33.644531 22.910156 33.6875 23.011719 C 33.726562 23.101562 33.761719 23.121094 33.808594 23.085938 Z M 33.425781 33.234375 C 33.414062 33.226562 33.390625 33.210938 33.367188 33.199219 C 33.3125 33.167969 33.246094 33.15625 33.183594 33.140625 C 33.148438 33.132812 33.121094 33.140625 33.097656 33.15625 L 33.101562 33.164062 C 33.113281 33.21875 33.121094 33.261719 33.117188 33.3125 C 33.117188 33.328125 33.113281 33.363281 33.113281 33.386719 L 33.117188 33.390625 C 33.207031 33.390625 33.34375 33.320312 33.425781 33.234375 Z M 31.785156 33.300781 C 31.8125 33.238281 31.820312 33.171875 31.796875 33.117188 C 31.777344 33.175781 31.726562 33.226562 31.648438 33.234375 C 31.582031 33.238281 31.503906 33.253906 31.472656 33.273438 L 31.476562 33.277344 C 31.496094 33.328125 31.53125 33.367188 31.570312 33.402344 C 31.660156 33.410156 31.734375 33.371094 31.785156 33.300781 Z M 30.535156 34.023438 C 30.546875 33.980469 30.554688 33.9375 30.554688 33.894531 C 30.550781 33.839844 30.535156 33.792969 30.480469 33.757812 C 30.355469 33.671875 30.195312 33.683594 30.0625 33.738281 C 30.105469 33.917969 30.257812 34.027344 30.4375 34.035156 C 30.472656 34.039062 30.503906 34.03125 30.535156 34.023438 Z M 32.054688 48.125 C 32.074219 48.140625 32.089844 48.15625 32.109375 48.175781 C 32.125 48.195312 32.136719 48.214844 32.152344 48.234375 C 32.140625 48.179688 32.128906 48.125 32.121094 48.070312 C 32.097656 48.089844 32.078125 48.109375 32.054688 48.125 Z M 21.339844 62.949219 C 21.511719 62.847656 21.675781 62.746094 21.835938 62.632812 C 21.808594 62.546875 21.808594 62.453125 21.851562 62.359375 C 21.910156 62.226562 21.984375 62.101562 22.066406 61.984375 C 21.882812 62.160156 21.679688 62.3125 21.449219 62.441406 C 21.453125 62.566406 21.324219 62.609375 21.230469 62.566406 C 21.132812 62.75 21.046875 62.941406 20.980469 63.136719 C 21.101562 63.078125 21.222656 63.011719 21.339844 62.949219 Z M 23.949219 56.660156 C 23.925781 56.601562 23.882812 56.546875 23.847656 56.496094 C 23.828125 56.464844 23.800781 56.453125 23.773438 56.445312 L 23.773438 56.457031 C 23.746094 56.503906 23.722656 56.539062 23.683594 56.578125 C 23.671875 56.585938 23.648438 56.613281 23.632812 56.632812 L 23.636719 56.636719 C 23.703125 56.695312 23.847656 56.734375 23.964844 56.722656 C 23.964844 56.710938 23.957031 56.683594 23.949219 56.660156 Z M 22.828125 55.550781 C 22.773438 55.582031 22.703125 55.585938 22.640625 55.539062 C 22.589844 55.5 22.519531 55.460938 22.484375 55.453125 L 22.484375 55.457031 C 22.464844 55.507812 22.464844 55.5625 22.472656 55.613281 C 22.53125 55.683594 22.617188 55.699219 22.699219 55.683594 C 22.761719 55.65625 22.808594 55.609375 22.828125 55.550781 Z M 21.386719 55.304688 C 21.417969 55.261719 21.4375 55.214844 21.421875 55.15625 C 21.386719 55.007812 21.257812 54.90625 21.121094 54.859375 C 21.035156 55.027344 21.074219 55.207031 21.203125 55.335938 C 21.230469 55.359375 21.253906 55.375 21.28125 55.386719 C 21.320312 55.367188 21.355469 55.335938 21.386719 55.304688 Z M 28.074219 68.734375 C 28.171875 68.769531 28.292969 68.695312 28.371094 68.632812 C 28.429688 68.503906 28.460938 68.308594 28.324219 68.285156 C 28.296875 68.28125 28.273438 68.28125 28.246094 68.28125 C 28.089844 68.339844 27.9375 68.53125 27.9375 68.695312 C 27.988281 68.707031 28.035156 68.722656 28.074219 68.734375 Z M 41.617188 59.433594 C 41.667969 59.386719 41.710938 59.324219 41.730469 59.261719 C 41.617188 59.265625 41.480469 59.363281 41.425781 59.433594 L 41.402344 59.46875 C 41.472656 59.464844 41.542969 59.453125 41.617188 59.433594 Z M 40.324219 58.441406 C 40.347656 58.417969 40.367188 58.394531 40.375 58.378906 C 40.402344 58.34375 40.425781 58.300781 40.445312 58.253906 C 40.417969 58.160156 40.3125 58.039062 40.246094 58.085938 C 40.15625 58.152344 40.054688 58.324219 40.074219 58.449219 C 40.089844 58.457031 40.113281 58.464844 40.144531 58.46875 C 40.199219 58.472656 40.265625 58.460938 40.324219 58.441406 Z M 42.238281 49.453125 L 42.230469 49.457031 L 42.238281 49.457031 Z M 41.46875 47.371094 C 41.644531 47.042969 41.855469 46.722656 42.078125 46.414062 C 41.820312 46.699219 41.621094 47.019531 41.46875 47.371094 Z M 36.648438 50.410156 L 36.636719 50.394531 L 36.632812 50.40625 Z M 40.722656 39.988281 C 40.710938 39.949219 40.707031 39.90625 40.707031 39.867188 C 40.699219 39.917969 40.691406 39.96875 40.6875 40.023438 C 40.699219 40.011719 40.710938 40 40.722656 39.988281 Z M 45.792969 18.730469 C 45.824219 18.945312 45.851562 19.171875 45.871094 19.40625 C 46.292969 20.28125 46.027344 21.464844 45.574219 22.476562 C 45.464844 22.808594 45.332031 23.121094 45.160156 23.410156 C 45.21875 23.425781 45.28125 23.429688 45.355469 23.417969 C 45.582031 23.378906 45.796875 23.320312 46.011719 23.246094 C 46.425781 23.003906 46.875 22.808594 47.335938 22.679688 C 47.691406 22.511719 48.046875 22.355469 48.417969 22.238281 C 48.457031 22.226562 48.496094 22.214844 48.535156 22.203125 C 48.824219 22.121094 48.992188 22.316406 49.019531 22.546875 C 49.042969 22.550781 49.066406 22.550781 49.089844 22.554688 C 49.183594 22.574219 49.25 22.648438 49.222656 22.746094 C 49.027344 23.441406 48.191406 23.628906 47.578125 23.761719 C 47.4375 23.792969 47.292969 23.828125 47.144531 23.863281 C 46.761719 24.027344 46.375 24.191406 45.992188 24.363281 C 46.691406 24.714844 47.332031 25.257812 47.859375 25.863281 C 48.363281 26.402344 48.777344 27.019531 49.078125 27.691406 C 49.128906 27.804688 49.027344 27.957031 48.894531 27.90625 C 48.796875 27.867188 48.671875 27.824219 48.535156 27.785156 C 48.378906 27.847656 48.199219 27.828125 48.082031 27.664062 L 48.078125 27.65625 C 47.34375 27.464844 46.359375 27.222656 45.503906 26.890625 C 45.128906 26.847656 44.765625 26.773438 44.457031 26.59375 C 44.160156 26.421875 43.984375 26.164062 43.90625 25.875 C 43.710938 25.613281 43.625 25.320312 43.699219 24.984375 C 42.953125 25.582031 42.105469 26.085938 41.386719 26.679688 C 40.765625 27.195312 40.25 27.816406 39.789062 28.472656 C 39.621094 28.710938 39.488281 28.949219 39.378906 29.1875 C 39.546875 31.425781 39.53125 33.695312 39.328125 35.96875 C 39.375 35.925781 39.417969 35.886719 39.460938 35.847656 C 39.726562 35.601562 40.21875 35.160156 40.621094 35.316406 C 40.691406 35.339844 40.734375 35.414062 40.710938 35.488281 C 40.484375 36.171875 39.800781 36.597656 39.222656 36.992188 C 38.980469 39.113281 38.570312 41.238281 37.988281 43.347656 C 38.664062 42.371094 39.410156 41.421875 40.207031 40.539062 C 40.285156 40.449219 40.371094 40.359375 40.457031 40.265625 C 40.34375 39.816406 40.480469 39.316406 40.710938 38.855469 C 40.835938 38.253906 41.199219 37.679688 41.691406 37.335938 C 41.816406 37.25 41.945312 37.234375 42.0625 37.265625 C 42.074219 37.257812 42.085938 37.25 42.097656 37.238281 C 42.695312 36.53125 43.480469 36.046875 44.4375 36.101562 C 44.542969 36.105469 44.644531 36.164062 44.714844 36.25 C 44.78125 36.242188 44.84375 36.234375 44.90625 36.226562 C 44.992188 36.21875 45.078125 36.289062 45.042969 36.378906 C 44.734375 37.222656 44.417969 38.148438 43.933594 38.933594 C 43.253906 40.183594 42.214844 41.1875 40.828125 40.632812 L 40.796875 40.617188 C 40.710938 40.59375 40.625 40.570312 40.539062 40.535156 C 40.480469 40.597656 40.421875 40.65625 40.367188 40.71875 C 39.5 41.660156 38.773438 42.71875 37.921875 43.671875 C 37.910156 43.683594 37.898438 43.6875 37.886719 43.691406 C 37.734375 44.226562 37.574219 44.761719 37.398438 45.296875 C 36.636719 47.613281 35.6875 49.816406 34.578125 51.894531 C 35.082031 51.453125 35.675781 51.085938 36.273438 50.773438 C 36.277344 50.429688 36.414062 50.082031 36.617188 49.757812 C 36.828125 49.257812 37.367188 48.679688 37.523438 48.457031 C 37.722656 48.179688 38.230469 48.265625 38.265625 48.632812 C 38.308594 49.125 38.109375 49.679688 37.632812 49.863281 C 37.484375 50.035156 37.316406 50.199219 37.140625 50.355469 L 37.117188 50.382812 C 38.25 49.941406 39.46875 49.742188 40.585938 49.265625 C 40.6875 49.191406 40.796875 49.121094 40.921875 49.046875 C 40.957031 49.023438 40.996094 49.011719 41.039062 49.007812 C 41.011719 48.960938 40.992188 48.902344 40.996094 48.835938 C 40.667969 47.304688 41.894531 46.082031 43.082031 45.164062 C 43.140625 45.089844 43.199219 45.023438 43.253906 44.953125 C 43.34375 44.847656 43.460938 44.796875 43.578125 44.789062 C 43.691406 44.707031 43.804688 44.628906 43.910156 44.550781 C 44 44.484375 44.140625 44.558594 44.117188 44.671875 C 44.089844 44.824219 44.054688 44.980469 44.015625 45.136719 C 44.019531 45.171875 44.023438 45.207031 44.019531 45.25 C 43.917969 46.542969 43.082031 48.222656 41.96875 48.933594 C 41.898438 48.980469 41.820312 49.007812 41.738281 49.015625 C 41.65625 49.078125 41.566406 49.136719 41.476562 49.191406 C 41.492188 49.214844 41.507812 49.238281 41.515625 49.265625 C 41.523438 49.289062 41.535156 49.3125 41.542969 49.335938 C 41.574219 49.34375 41.605469 49.347656 41.636719 49.355469 C 42.039062 49.175781 42.496094 49.042969 42.96875 48.964844 C 43.886719 48.734375 45.199219 48.550781 45.878906 49.195312 C 45.941406 49.253906 45.96875 49.339844 45.96875 49.429688 C 46.015625 49.480469 46.027344 49.550781 45.980469 49.617188 C 45.742188 49.949219 45.363281 50.058594 44.964844 50.078125 C 44.746094 50.101562 44.515625 50.09375 44.28125 50.070312 C 43.972656 50.039062 43.664062 49.980469 43.355469 49.929688 C 43.21875 49.917969 43.082031 49.902344 42.941406 49.882812 L 42.925781 49.882812 L 42.902344 49.890625 C 42.734375 49.945312 42.535156 49.941406 42.40625 49.800781 C 42.203125 49.765625 42.003906 49.71875 41.8125 49.65625 C 43.191406 50.753906 44.035156 52.46875 44.167969 54.214844 C 44.179688 54.339844 44.027344 54.449219 43.921875 54.355469 C 43.3125 53.820312 41.417969 52.75 40.445312 51.625 C 39.890625 51.066406 39.605469 50.472656 40 49.855469 C 39.101562 50.160156 38.144531 50.34375 37.277344 50.65625 C 36.519531 50.929688 35.820312 51.339844 35.164062 51.800781 C 34.542969 52.234375 34.152344 52.730469 33.769531 53.339844 C 29.9375 59.882812 24.460938 65.121094 18.070312 68.683594 C 18.21875 68.691406 18.371094 68.699219 18.523438 68.699219 C 18.554688 68.699219 18.582031 68.710938 18.601562 68.730469 C 19.339844 68.542969 20.058594 68.140625 20.8125 68.109375 C 28.449219 67.800781 35.160156 60.164062 37.4375 57.921875 C 37.304688 57.859375 37.199219 57.746094 37.160156 57.574219 C 37.089844 57.253906 37.316406 57.011719 37.585938 56.894531 C 37.625 56.84375 37.671875 56.796875 37.734375 56.765625 C 37.894531 56.671875 38.117188 56.6875 38.253906 56.820312 C 38.269531 56.835938 38.289062 56.859375 38.300781 56.878906 C 38.414062 56.917969 38.515625 56.976562 38.605469 57.054688 C 38.679688 57.121094 38.671875 57.246094 38.625 57.324219 C 38.566406 57.421875 38.492188 57.507812 38.410156 57.582031 C 38.28125 57.890625 37.882812 58.042969 37.5625 57.96875 C 36.039062 59.671875 34.414062 61.300781 32.832031 62.945312 C 32.78125 62.996094 32.730469 63.042969 32.679688 63.09375 C 33.199219 62.90625 33.738281 62.792969 34.25 62.574219 C 35.03125 62.238281 35.765625 61.808594 36.488281 61.371094 C 36.570312 61.324219 36.652344 61.273438 36.730469 61.226562 C 36.671875 60.84375 36.71875 60.464844 36.902344 60.113281 C 36.976562 59.976562 37.089844 59.789062 37.234375 59.636719 C 37.171875 59.554688 37.148438 59.445312 37.171875 59.320312 C 37.21875 59.078125 37.375 58.855469 37.578125 58.71875 C 37.761719 58.597656 37.976562 58.59375 38.148438 58.714844 C 38.285156 58.738281 38.40625 58.816406 38.472656 58.960938 C 38.546875 59.128906 38.515625 59.277344 38.425781 59.394531 C 38.421875 59.40625 38.421875 59.421875 38.414062 59.4375 C 38.378906 59.542969 38.304688 59.613281 38.214844 59.664062 C 38.027344 59.839844 37.757812 59.917969 37.527344 59.800781 C 37.394531 59.914062 37.289062 60.050781 37.195312 60.195312 C 37.027344 60.457031 36.910156 60.796875 36.902344 61.121094 C 37.972656 60.464844 38.984375 59.769531 39.863281 58.871094 C 39.21875 58.542969 39.546875 57.460938 40.308594 57.425781 C 40.777344 57.402344 40.910156 57.777344 40.847656 58.15625 C 40.90625 58.382812 40.855469 58.628906 40.609375 58.785156 C 40.546875 58.824219 40.476562 58.855469 40.402344 58.875 C 40.320312 58.917969 40.230469 58.941406 40.140625 58.9375 C 40.121094 58.945312 40.101562 58.949219 40.078125 58.945312 L 40.050781 58.9375 C 39.691406 59.515625 39.125 59.992188 38.515625 60.410156 C 39.40625 60.257812 40.097656 59.710938 40.917969 59.324219 C 41.011719 58.894531 41.519531 58.511719 41.90625 58.8125 C 41.925781 58.828125 41.941406 58.84375 41.957031 58.859375 C 42.121094 58.910156 42.253906 59.03125 42.300781 59.25 C 42.382812 59.640625 41.921875 59.867188 41.507812 59.902344 C 41.410156 59.929688 41.3125 59.929688 41.226562 59.898438 C 41.058594 59.871094 40.929688 59.800781 40.902344 59.6875 L 40.882812 59.660156 C 40.875 59.644531 40.875 59.628906 40.875 59.609375 C 40.164062 60.175781 39.164062 60.730469 38.269531 60.570312 C 37.757812 60.902344 37.234375 61.191406 36.777344 61.472656 C 35.546875 62.230469 34.03125 63.164062 32.535156 63.238281 C 31.101562 64.675781 29.554688 65.871094 27.722656 66.800781 C 25.972656 67.691406 24.140625 68.261719 22.234375 68.632812 C 23.019531 68.882812 23.792969 69.082031 24.648438 69.105469 C 25.640625 69.132812 26.5625 68.863281 27.503906 68.617188 C 27.515625 68.519531 27.542969 68.421875 27.589844 68.332031 C 27.722656 68.078125 27.980469 67.859375 28.269531 67.816406 C 28.597656 67.769531 28.921875 68.003906 28.953125 68.339844 C 28.976562 68.628906 28.800781 68.886719 28.566406 69.042969 C 28.550781 69.0625 28.535156 69.078125 28.515625 69.097656 C 28.292969 69.300781 27.972656 69.3125 27.726562 69.140625 C 27.601562 69.054688 27.535156 68.933594 27.511719 68.804688 C 26.398438 69.316406 25.070312 69.460938 23.800781 69.285156 C 24.171875 69.789062 24.609375 70.074219 25.179688 70.328125 C 25.492188 70.464844 25.84375 70.550781 26.171875 70.664062 C 26.183594 70.640625 26.191406 70.617188 26.203125 70.59375 C 26.394531 70.222656 26.898438 70.1875 27.164062 70.484375 C 27.183594 70.5 27.195312 70.519531 27.207031 70.539062 C 27.21875 70.550781 27.230469 70.558594 27.246094 70.566406 C 27.523438 70.824219 27.480469 71.234375 27.175781 71.4375 C 27.144531 71.457031 27.113281 71.472656 27.078125 71.488281 C 26.996094 71.558594 26.894531 71.605469 26.785156 71.628906 C 26.605469 71.738281 26.375 71.628906 26.25 71.445312 C 26.242188 71.433594 26.238281 71.421875 26.230469 71.414062 C 26.21875 71.394531 26.210938 71.378906 26.203125 71.359375 L 26.1875 71.332031 C 26.175781 71.308594 26.167969 71.285156 26.160156 71.261719 C 26.128906 71.171875 26.113281 71.074219 26.113281 70.976562 C 25.710938 70.855469 25.304688 70.65625 24.960938 70.484375 C 24.503906 70.253906 23.777344 69.894531 23.683594 69.324219 C 23.679688 69.304688 23.691406 69.285156 23.703125 69.273438 C 23.03125 69.171875 22.378906 68.984375 21.792969 68.714844 C 21.582031 68.753906 21.371094 68.792969 21.160156 68.824219 C 19.96875 69.011719 18.757812 69.136719 17.578125 69.40625 C 17.0625 69.523438 16.546875 69.660156 16.027344 69.753906 C 15.277344 70.117188 14.519531 70.464844 13.75 70.785156 C 12.183594 71.269531 10.644531 71.863281 9.054688 72.273438 C 8.472656 72.421875 7.882812 72.535156 7.289062 72.625 C 6.957031 72.550781 6.628906 72.476562 6.292969 72.410156 C 9.183594 71.789062 11.984375 70.855469 14.660156 69.644531 C 15.316406 69.023438 15.949219 68.382812 16.542969 67.707031 C 16.511719 67.671875 16.480469 67.632812 16.453125 67.585938 C 16.214844 67.207031 16.222656 66.613281 16.5 66.257812 C 16.589844 66.144531 16.753906 66.210938 16.800781 66.324219 C 16.914062 66.597656 17.007812 66.871094 17.019531 67.148438 C 17.4375 66.640625 17.832031 66.117188 18.195312 65.5625 C 18.683594 64.820312 19.09375 64.042969 19.464844 63.25 C 19.113281 63.070312 18.722656 62.855469 18.476562 62.542969 C 18.277344 62.289062 18.203125 61.859375 18.546875 61.695312 C 18.824219 61.566406 19.140625 61.964844 19.277344 62.136719 C 19.394531 62.28125 19.492188 62.441406 19.574219 62.605469 C 19.613281 62.683594 19.632812 62.761719 19.652344 62.839844 C 20.070312 61.902344 20.433594 60.933594 20.796875 59.960938 C 20.800781 59.789062 20.75 59.621094 20.660156 59.46875 C 20.566406 59.535156 20.445312 59.558594 20.316406 59.523438 C 20.125 59.554688 19.917969 59.496094 19.734375 59.441406 C 19.710938 59.433594 19.683594 59.421875 19.660156 59.414062 C 19.644531 59.40625 19.628906 59.402344 19.613281 59.394531 C 19.386719 59.308594 19.167969 59.1875 18.964844 59.054688 C 18.796875 58.949219 18.742188 58.714844 18.808594 58.539062 C 18.886719 58.335938 19.066406 58.261719 19.269531 58.257812 C 19.769531 58.246094 20.777344 58.429688 20.847656 59.054688 C 20.863281 59.171875 20.832031 59.277344 20.769531 59.363281 C 20.847656 59.515625 20.890625 59.683594 20.890625 59.859375 C 20.914062 59.871094 20.9375 59.894531 20.929688 59.925781 C 20.921875 59.960938 20.914062 60 20.90625 60.035156 C 20.9375 60.003906 20.96875 59.972656 21 59.9375 C 21.148438 59.710938 21.34375 59.511719 21.574219 59.339844 C 21.601562 59.308594 21.628906 59.277344 21.65625 59.246094 L 21.644531 59.222656 C 21.539062 58.132812 21.34375 56.949219 21.449219 55.824219 L 21.445312 55.824219 C 21.378906 55.84375 21.304688 55.851562 21.230469 55.855469 C 20.816406 55.941406 20.375 55.707031 20.3125 55.203125 C 20.285156 55.003906 20.359375 54.796875 20.488281 54.640625 C 20.644531 54.339844 20.949219 54.121094 21.324219 54.183594 C 21.75 54.257812 22.074219 54.773438 22.050781 55.183594 C 22.035156 55.425781 21.898438 55.632812 21.699219 55.746094 C 21.703125 56.886719 21.71875 58.023438 21.730469 59.164062 C 21.902344 58.964844 22.074219 58.769531 22.238281 58.566406 C 22.417969 57.789062 22.511719 56.992188 22.703125 56.222656 C 22.511719 56.238281 22.34375 56.152344 22.230469 56.015625 C 22.167969 55.96875 22.113281 55.90625 22.078125 55.824219 C 22.015625 55.699219 22.011719 55.539062 22.054688 55.398438 C 22.136719 54.71875 23.207031 54.726562 23.304688 55.417969 C 23.355469 55.761719 23.171875 56.085938 22.855469 56.191406 C 22.773438 56.9375 22.574219 57.675781 22.371094 58.398438 C 22.699219 57.972656 23.003906 57.527344 23.28125 57.050781 C 23.117188 56.925781 23.011719 56.722656 23.007812 56.511719 C 23 55.996094 23.632812 55.878906 24.011719 56.023438 C 24.332031 56.144531 24.4375 56.484375 24.355469 56.761719 C 24.355469 56.808594 24.347656 56.851562 24.332031 56.890625 C 24.296875 56.988281 24.222656 57.046875 24.136719 57.078125 C 24.054688 57.136719 23.957031 57.171875 23.839844 57.175781 C 23.820312 57.175781 23.804688 57.171875 23.785156 57.171875 C 23.699219 57.183594 23.613281 57.179688 23.519531 57.160156 C 23.484375 57.152344 23.449219 57.140625 23.414062 57.128906 C 23.148438 57.792969 22.691406 58.410156 22.171875 58.964844 C 22.671875 58.707031 23.222656 58.527344 23.714844 58.402344 C 23.648438 58.15625 23.71875 57.867188 23.953125 57.761719 C 24.234375 57.628906 24.644531 57.816406 24.851562 58.003906 C 24.894531 58.039062 24.925781 58.082031 24.945312 58.125 C 24.980469 58.132812 25.007812 58.160156 25 58.203125 C 24.996094 58.21875 24.988281 58.230469 24.980469 58.246094 C 25 58.394531 24.921875 58.535156 24.777344 58.578125 C 24.570312 58.785156 24.257812 58.890625 23.976562 58.746094 C 23.878906 58.695312 23.804688 58.613281 23.757812 58.511719 C 23.050781 58.789062 22.347656 59.011719 21.734375 59.410156 C 21.460938 59.671875 21.183594 59.917969 20.917969 60.144531 L 20.910156 60.148438 L 20.90625 60.152344 C 20.894531 60.160156 20.882812 60.171875 20.871094 60.183594 C 20.566406 61.484375 20.082031 62.75 19.457031 63.953125 C 19.886719 63.664062 20.382812 63.4375 20.855469 63.199219 C 20.878906 62.890625 20.988281 62.601562 21.132812 62.324219 L 21.140625 62.3125 C 21.140625 61.488281 21.734375 60.765625 22.601562 60.785156 C 22.71875 60.789062 22.789062 60.898438 22.742188 61.007812 C 22.65625 61.203125 22.550781 61.382812 22.429688 61.554688 C 22.683594 61.308594 22.972656 61.097656 23.261719 60.925781 C 23.550781 60.75 23.878906 60.664062 24.214844 60.675781 C 24.351562 60.679688 24.539062 60.742188 24.648438 60.828125 C 24.699219 60.867188 24.746094 60.910156 24.792969 60.953125 C 24.792969 60.957031 24.972656 61.265625 24.875 61.109375 C 24.972656 61.265625 24.886719 61.472656 24.765625 61.585938 C 24.699219 61.648438 24.640625 61.695312 24.589844 61.734375 C 24.566406 61.765625 24.546875 61.800781 24.523438 61.832031 C 24.457031 62.039062 24.238281 62.210938 24.078125 62.316406 C 23.570312 62.648438 22.917969 62.832031 22.320312 62.9375 C 22.175781 62.964844 22.039062 62.90625 21.941406 62.808594 C 21.777344 62.914062 21.609375 63.015625 21.445312 63.109375 C 21.28125 63.207031 21.109375 63.308594 20.9375 63.410156 C 21.464844 63.390625 22.292969 63.683594 22.367188 64.261719 C 22.375 64.324219 22.320312 64.394531 22.261719 64.414062 C 21.613281 64.582031 20.980469 64.117188 20.578125 63.652344 C 20.570312 63.640625 20.5625 63.628906 20.558594 63.617188 C 20.167969 63.828125 19.765625 64.015625 19.359375 64.140625 C 19.0625 64.691406 18.734375 65.234375 18.382812 65.753906 C 18.453125 65.722656 18.527344 65.691406 18.59375 65.660156 C 18.816406 65.558594 19.226562 65.355469 19.476562 65.480469 C 19.78125 65.636719 19.519531 65.988281 19.335938 66.113281 C 19.027344 66.324219 18.59375 66.324219 18.207031 66.289062 C 18.164062 66.304688 18.117188 66.320312 18.070312 66.332031 C 18.039062 66.339844 18.007812 66.339844 17.980469 66.328125 C 17.714844 66.699219 17.433594 67.058594 17.140625 67.40625 C 17.496094 67.265625 17.929688 67.179688 18.238281 67.363281 C 18.335938 67.421875 18.332031 67.535156 18.25 67.601562 C 17.921875 67.878906 17.488281 67.867188 17.074219 67.84375 C 17.050781 67.847656 17.03125 67.851562 17.011719 67.855469 C 16.910156 67.871094 16.828125 67.871094 16.757812 67.851562 C 16.289062 68.375 15.796875 68.871094 15.285156 69.339844 C 15.300781 69.335938 15.320312 69.332031 15.335938 69.332031 C 21.117188 66.585938 26.253906 62.507812 30.246094 57.351562 C 30.28125 56.21875 30.382812 55.078125 30.550781 53.957031 C 30.570312 53.839844 30.589844 53.71875 30.609375 53.59375 C 29.945312 52.984375 29.960938 51.710938 30.101562 50.917969 C 30.183594 50.449219 30.371094 49.976562 30.625 49.53125 C 30.855469 49.035156 31.132812 48.578125 31.410156 48.199219 C 31.511719 48.058594 31.675781 48.003906 31.828125 48.023438 C 31.921875 47.9375 32.015625 47.851562 32.113281 47.777344 C 32.179688 47.722656 32.289062 47.734375 32.3125 47.828125 C 32.582031 48.976562 32.917969 50.253906 32.738281 51.441406 C 32.617188 52.242188 32.191406 53.0625 31.503906 53.496094 C 31.433594 53.574219 31.335938 53.621094 31.238281 53.640625 C 31.109375 53.699219 30.972656 53.746094 30.828125 53.773438 C 30.8125 53.855469 30.796875 53.9375 30.785156 54.023438 C 30.617188 55.035156 30.566406 56.058594 30.457031 57.074219 C 32.238281 54.734375 33.78125 52.171875 35.046875 49.417969 C 35.144531 48.398438 35.203125 47.386719 35.199219 46.371094 C 35.152344 46.367188 35.101562 46.359375 35.046875 46.34375 C 34.617188 46.21875 34.230469 45.769531 34.203125 45.320312 C 34.191406 45.175781 34.355469 45.117188 34.46875 45.167969 C 34.734375 45.296875 34.988281 45.4375 35.179688 45.636719 C 35.152344 44.984375 35.101562 44.332031 35.003906 43.671875 C 34.871094 42.792969 34.660156 41.941406 34.410156 41.101562 C 34.027344 41.199219 33.59375 41.300781 33.203125 41.230469 C 32.886719 41.175781 32.542969 40.902344 32.691406 40.550781 C 32.808594 40.273438 33.3125 40.359375 33.53125 40.394531 C 33.710938 40.425781 33.890625 40.476562 34.0625 40.546875 C 34.144531 40.578125 34.210938 40.625 34.277344 40.671875 C 33.964844 39.691406 33.59375 38.730469 33.214844 37.761719 C 33.09375 37.617188 32.925781 37.519531 32.738281 37.46875 C 32.679688 37.558594 32.613281 37.644531 32.539062 37.722656 C 32.515625 37.757812 32.484375 37.789062 32.445312 37.816406 C 32.4375 37.828125 32.425781 37.835938 32.414062 37.84375 C 32.363281 37.921875 32.300781 37.996094 32.21875 38.070312 C 32.019531 38.25 31.730469 38.359375 31.464844 38.375 C 31.199219 38.394531 31.003906 38.222656 30.976562 38.003906 C 30.929688 37.957031 30.933594 37.886719 30.976562 37.835938 L 30.996094 37.816406 C 31.007812 37.777344 31.023438 37.738281 31.046875 37.699219 C 31.28125 37.308594 31.679688 37.089844 32.109375 36.964844 C 32.28125 36.914062 32.46875 37.050781 32.539062 37.195312 C 32.550781 37.21875 32.558594 37.242188 32.566406 37.261719 C 32.8125 37.3125 33.042969 37.425781 33.21875 37.621094 C 33.242188 37.613281 33.273438 37.617188 33.289062 37.644531 C 33.308594 37.675781 33.324219 37.710938 33.34375 37.742188 C 33.347656 37.699219 33.347656 37.652344 33.351562 37.605469 C 33.308594 37.339844 33.324219 37.0625 33.378906 36.777344 C 33.378906 36.738281 33.378906 36.695312 33.378906 36.652344 L 33.355469 36.644531 C 32.550781 35.902344 31.617188 35.144531 30.949219 34.242188 C 30.90625 34.300781 30.859375 34.355469 30.804688 34.402344 C 30.550781 34.746094 30.066406 34.867188 29.683594 34.535156 C 29.53125 34.402344 29.449219 34.195312 29.445312 33.992188 C 29.359375 33.664062 29.441406 33.300781 29.765625 33.097656 C 30.128906 32.871094 30.714844 33.035156 30.96875 33.359375 C 31.121094 33.546875 31.15625 33.796875 31.082031 34.015625 C 31.84375 34.863281 32.613281 35.699219 33.378906 36.542969 C 33.378906 36.28125 33.375 36.019531 33.359375 35.757812 C 32.976562 35.0625 32.519531 34.402344 32.148438 33.699219 C 32.015625 33.839844 31.835938 33.890625 31.65625 33.859375 C 31.578125 33.867188 31.5 33.855469 31.414062 33.820312 C 31.289062 33.765625 31.175781 33.652344 31.117188 33.515625 C 30.726562 32.957031 31.53125 32.25 32.0625 32.699219 C 32.328125 32.921875 32.40625 33.289062 32.238281 33.578125 C 32.675781 34.1875 33.019531 34.871094 33.347656 35.546875 C 33.3125 35.011719 33.242188 34.476562 33.128906 33.933594 C 32.925781 33.949219 32.710938 33.871094 32.570312 33.714844 C 32.222656 33.335938 32.613281 32.828125 32.992188 32.679688 C 33.3125 32.558594 33.617188 32.742188 33.742188 33.003906 C 33.769531 33.039062 33.792969 33.074219 33.808594 33.117188 C 33.84375 33.210938 33.828125 33.304688 33.789062 33.386719 C 33.765625 33.480469 33.714844 33.574219 33.632812 33.65625 C 33.617188 33.667969 33.601562 33.679688 33.585938 33.691406 C 33.53125 33.753906 33.464844 33.8125 33.382812 33.859375 C 33.351562 33.875 33.316406 33.890625 33.28125 33.902344 C 33.523438 34.578125 33.59375 35.34375 33.578125 36.101562 C 33.777344 35.578125 34.070312 35.074219 34.355469 34.652344 C 34.140625 34.515625 34.003906 34.25 34.105469 34.015625 C 34.226562 33.734375 34.65625 33.597656 34.9375 33.597656 C 34.992188 33.597656 35.042969 33.613281 35.089844 33.628906 C 35.117188 33.613281 35.160156 33.613281 35.179688 33.652344 C 35.1875 33.664062 35.191406 33.679688 35.195312 33.695312 C 35.308594 33.792969 35.339844 33.949219 35.261719 34.078125 C 35.246094 34.371094 35.085938 34.65625 34.78125 34.738281 C 34.671875 34.765625 34.5625 34.75 34.460938 34.707031 C 34.117188 35.382812 33.738281 36.019531 33.546875 36.726562 C 33.519531 37.101562 33.472656 37.46875 33.425781 37.816406 L 33.425781 37.828125 C 33.421875 37.84375 33.417969 37.859375 33.417969 37.878906 C 34.058594 39.046875 34.535156 40.316406 34.871094 41.632812 C 35 41.128906 35.21875 40.628906 35.414062 40.136719 C 35.226562 39.890625 35.117188 39.601562 35.039062 39.300781 L 35.035156 39.285156 C 34.488281 38.671875 34.453125 37.734375 35.109375 37.175781 C 35.199219 37.097656 35.328125 37.132812 35.363281 37.246094 C 35.566406 37.886719 35.574219 38.542969 35.351562 39.175781 C 35.4375 39.265625 35.371094 39.386719 35.273438 39.417969 C 35.320312 39.617188 35.386719 39.820312 35.46875 40.007812 C 35.515625 39.882812 35.5625 39.753906 35.605469 39.628906 C 35.734375 39.246094 35.820312 38.863281 35.894531 38.476562 C 35.734375 38.144531 35.71875 37.800781 35.792969 37.464844 C 35.792969 37.425781 35.796875 37.394531 35.800781 37.363281 C 35.871094 36.804688 36.136719 36.222656 36.582031 35.863281 C 36.746094 35.730469 37.058594 35.722656 37.1875 35.921875 C 37.472656 36.371094 37.414062 36.867188 37.265625 37.355469 C 37.152344 37.722656 36.917969 38.199219 36.550781 38.390625 C 36.523438 38.457031 36.472656 38.507812 36.402344 38.535156 C 36.300781 38.644531 36.191406 38.75 36.085938 38.847656 C 36.070312 38.863281 36.054688 38.863281 36.039062 38.859375 C 35.964844 39.140625 35.878906 39.414062 35.796875 39.679688 C 35.738281 39.863281 35.679688 40.050781 35.613281 40.238281 C 35.996094 39.875 36.808594 39.539062 37.25 39.921875 C 37.296875 39.964844 37.304688 40.054688 37.269531 40.105469 C 36.902344 40.664062 36.117188 40.738281 35.511719 40.660156 C 35.496094 40.65625 35.484375 40.652344 35.472656 40.648438 C 35.320312 41.0625 35.144531 41.472656 34.921875 41.835938 C 35.070312 42.445312 35.183594 43.066406 35.269531 43.691406 C 35.300781 43.617188 35.335938 43.546875 35.363281 43.480469 C 35.464844 43.253906 35.632812 42.828125 35.90625 42.757812 C 36.234375 42.671875 36.273438 43.109375 36.21875 43.324219 C 36.128906 43.6875 35.804688 43.976562 35.496094 44.203125 C 35.46875 44.246094 35.449219 44.289062 35.421875 44.332031 C 35.40625 44.355469 35.378906 44.375 35.351562 44.386719 C 35.398438 44.839844 35.429688 45.296875 35.441406 45.75 C 35.613281 45.40625 35.878906 45.054688 36.234375 44.988281 C 36.34375 44.964844 36.417969 45.050781 36.402344 45.15625 C 36.339844 45.582031 36.007812 45.863281 35.683594 46.121094 C 35.671875 46.136719 35.660156 46.15625 35.644531 46.171875 C 35.582031 46.25 35.519531 46.304688 35.453125 46.339844 C 35.453125 47.191406 35.398438 48.039062 35.296875 48.875 C 35.839844 47.648438 36.328125 46.386719 36.753906 45.085938 C 37.890625 41.644531 38.539062 38.152344 38.746094 34.691406 C 38.519531 34.371094 38.40625 33.753906 38.34375 33.539062 C 38.09375 32.652344 37.945312 31.726562 37.636719 30.859375 C 37.453125 30.335938 37.226562 29.824219 36.984375 29.316406 C 36.957031 29.3125 36.933594 29.304688 36.90625 29.300781 C 36.222656 29.539062 35.597656 29.949219 34.863281 30.027344 C 34.308594 30.082031 33.726562 29.910156 33.195312 29.769531 C 32.886719 29.683594 31.746094 29.425781 31.136719 29.023438 C 31.066406 29.0625 30.992188 29.085938 30.914062 29.101562 C 30.734375 29.167969 30.539062 29.109375 30.394531 28.964844 C 30.363281 28.933594 30.335938 28.902344 30.3125 28.867188 C 30.089844 28.570312 29.886719 28.082031 30.300781 27.859375 C 30.363281 27.828125 30.429688 27.804688 30.503906 27.792969 C 30.535156 27.769531 30.566406 27.75 30.597656 27.734375 C 30.648438 27.703125 30.703125 27.675781 30.761719 27.65625 C 31.175781 27.511719 31.441406 27.972656 31.492188 28.3125 C 31.507812 28.417969 31.5 28.519531 31.472656 28.617188 C 31.628906 28.726562 31.792969 28.832031 31.996094 28.914062 C 32.5 29.125 33.03125 29.28125 33.558594 29.421875 C 34.113281 29.570312 34.644531 29.679688 35.21875 29.550781 C 35.628906 29.460938 35.992188 29.273438 36.386719 29.160156 C 34.867188 28.636719 33.601562 27.253906 32.675781 25.988281 C 32.640625 25.992188 32.601562 25.996094 32.566406 25.996094 C 32.429688 26.011719 32.300781 25.960938 32.203125 25.863281 C 31.996094 25.695312 31.875 25.390625 31.957031 25.144531 C 31.996094 25.03125 32.074219 24.957031 32.167969 24.90625 C 32.285156 24.769531 32.460938 24.710938 32.640625 24.773438 L 32.671875 24.789062 C 32.792969 24.765625 32.914062 24.773438 33.027344 24.816406 C 33.328125 24.941406 33.375 25.3125 33.246094 25.578125 C 33.191406 25.695312 33.105469 25.796875 33 25.867188 C 33.5 26.539062 34.050781 27.167969 34.683594 27.71875 C 35.34375 28.289062 36.085938 28.632812 36.839844 29.023438 C 36.519531 28.378906 36.171875 27.742188 35.835938 27.121094 C 35.203125 25.941406 34.515625 24.785156 33.820312 23.640625 C 33.628906 23.628906 33.4375 23.550781 33.304688 23.417969 C 33.132812 23.351562 33 23.222656 32.957031 23.003906 C 32.875 22.5625 33.359375 22.242188 33.742188 22.214844 C 33.8125 22.210938 33.886719 22.214844 33.960938 22.226562 C 34.101562 22.214844 34.226562 22.25 34.308594 22.347656 C 34.488281 22.453125 34.609375 22.621094 34.617188 22.851562 C 34.65625 22.855469 34.691406 22.890625 34.671875 22.929688 C 34.652344 22.976562 34.625 23.019531 34.589844 23.058594 C 34.566406 23.148438 34.527344 23.230469 34.472656 23.300781 L 34.460938 23.320312 C 34.394531 23.441406 34.292969 23.527344 34.179688 23.578125 C 34.949219 24.84375 35.6875 26.125 36.375 27.4375 C 36.382812 27.316406 36.40625 27.195312 36.429688 27.078125 C 36.507812 26.636719 36.601562 26.210938 36.617188 25.757812 C 36.652344 24.78125 36.4375 23.792969 36.136719 22.863281 C 35.976562 22.804688 35.855469 22.667969 35.789062 22.5 C 35.648438 22.390625 35.5625 22.203125 35.511719 22.027344 C 35.390625 21.621094 35.738281 21.386719 36.101562 21.371094 C 36.191406 21.367188 36.28125 21.371094 36.371094 21.390625 C 36.5625 21.378906 36.710938 21.453125 36.808594 21.574219 C 36.902344 21.640625 36.984375 21.722656 37.042969 21.816406 C 37.296875 22.214844 36.902344 22.730469 36.503906 22.863281 C 36.761719 23.683594 36.917969 24.53125 36.953125 25.394531 C 36.972656 25.820312 36.933594 26.238281 36.84375 26.65625 C 36.765625 27.003906 36.707031 27.449219 36.550781 27.773438 C 37.023438 28.691406 37.46875 29.621094 37.875 30.574219 C 38.175781 31.285156 38.296875 32.082031 38.476562 32.824219 C 38.570312 33.203125 38.667969 33.582031 38.78125 33.953125 C 38.832031 32.792969 38.828125 31.632812 38.777344 30.480469 C 38.757812 30.359375 38.75 30.234375 38.761719 30.113281 L 38.757812 30.078125 L 38.769531 30.066406 C 38.824219 29.609375 39.054688 29.152344 39.265625 28.769531 C 39.589844 28.179688 40.023438 27.628906 40.480469 27.128906 C 40.421875 26.953125 40.398438 26.765625 40.402344 26.566406 C 40.320312 26.292969 40.453125 25.949219 40.539062 25.699219 C 40.652344 25.375 40.800781 24.953125 41.03125 24.683594 C 41.089844 24.59375 41.144531 24.511719 41.199219 24.433594 C 41.257812 24.347656 41.394531 24.347656 41.441406 24.449219 C 41.457031 24.472656 41.464844 24.5 41.476562 24.523438 C 41.707031 24.585938 41.875 24.839844 41.695312 25.117188 C 41.65625 25.175781 41.617188 25.238281 41.582031 25.300781 C 41.53125 25.707031 41.34375 26.097656 41.136719 26.484375 C 42.070312 25.664062 43.171875 25.054688 44.078125 24.203125 C 44.113281 24.128906 44.167969 24.066406 44.234375 24.023438 C 44.050781 23.929688 43.921875 23.707031 44.003906 23.476562 C 43.953125 23.246094 43.933594 22.992188 43.925781 22.761719 C 43.902344 22.570312 43.898438 22.375 43.914062 22.183594 C 43.914062 21.0625 44.410156 20.191406 44.878906 19.175781 C 44.976562 18.964844 45.203125 18.855469 45.40625 18.898438 C 45.457031 18.828125 45.507812 18.753906 45.554688 18.683594 C 45.613281 18.59375 45.773438 18.613281 45.792969 18.730469 " fill-opacity="1" fill-rule="nonzero"/></g></g></g><g clip-path="url(#5e2ffc8f3c)"><path fill="#b24a38" d="M 39.777344 7.316406 C 21.6875 7.316406 6.960938 22.042969 6.960938 40.132812 C 6.960938 58.222656 21.6875 72.953125 39.777344 72.953125 C 57.867188 72.953125 72.597656 58.222656 72.597656 40.132812 C 72.597656 22.042969 57.867188 7.316406 39.777344 7.316406 Z M 39.777344 72.398438 C 21.992188 72.398438 7.515625 57.921875 7.515625 40.132812 C 7.515625 22.347656 21.992188 7.871094 39.777344 7.871094 C 57.5625 7.871094 72.039062 22.347656 72.039062 40.132812 C 72.039062 57.921875 57.5625 72.398438 39.777344 72.398438 Z M 39.777344 72.398438 " fill-opacity="1" fill-rule="nonzero"/></g><g fill="#26110c" fill-opacity="1"><g transform="translate(11.627644, 54.236795)"><g><path d="M -0.105469 -0.222656 L -0.890625 -1.871094 L -1.046875 -1.796875 C -0.921875 -1.398438 -0.898438 -1.21875 -1.175781 -1.089844 L -2.546875 -0.433594 C -2.804688 -0.3125 -2.945312 -0.445312 -3.085938 -0.742188 L -3.433594 -1.476562 C -3.652344 -1.9375 -3.496094 -2.121094 -3.273438 -2.300781 L -3.328125 -2.417969 L -4.464844 -1.878906 L -4.40625 -1.761719 C -4.121094 -1.824219 -3.890625 -1.824219 -3.671875 -1.363281 L -3.320312 -0.628906 C -3.179688 -0.332031 -3.164062 -0.140625 -3.421875 -0.015625 L -4.691406 0.585938 C -4.949219 0.710938 -5.085938 0.574219 -5.230469 0.277344 L -5.679688 -0.671875 C -5.921875 -1.175781 -5.835938 -1.550781 -5.476562 -1.941406 L -5.542969 -2.082031 C -5.890625 -1.800781 -6.101562 -1.664062 -6.28125 -1.550781 C -6.34375 -1.511719 -6.351562 -1.460938 -6.316406 -1.394531 L -4.714844 1.972656 L -4.566406 1.902344 C -4.648438 1.578125 -4.664062 1.402344 -4.390625 1.273438 L -0.851562 -0.414062 C -0.578125 -0.542969 -0.457031 -0.421875 -0.261719 -0.148438 Z M -0.105469 -0.222656 "/></g></g></g><g fill="#26110c" fill-opacity="1"><g transform="translate(9.220697, 48.884094)"><g><path d="M -0.0625 -0.238281 L -1.042969 -4.085938 C -1.222656 -4.023438 -1.375 -4.023438 -1.550781 -4.039062 L -2.09375 -4.078125 L -2.046875 -3.894531 L -1.773438 -3.820312 C -1.480469 -3.734375 -1.207031 -3.566406 -1.054688 -3.070312 L -0.675781 -1.847656 C -0.582031 -1.515625 -0.695312 -1.359375 -0.941406 -1.292969 L -4.738281 -0.324219 C -5.035156 -0.25 -5.132812 -0.402344 -5.277344 -0.703125 L -5.4375 -0.664062 L -5.003906 1.023438 L -4.847656 0.984375 C -4.863281 0.648438 -4.847656 0.476562 -4.554688 0.402344 L -0.757812 -0.570312 C -0.460938 -0.644531 -0.367188 -0.5 -0.226562 -0.195312 Z M -0.0625 -0.238281 "/></g></g></g><g fill="#26110c" fill-opacity="1"><g transform="translate(7.85656, 42.974756)"><g><path d="M -0.0117188 -0.246094 L -0.214844 -4.085938 C -0.21875 -4.160156 -0.261719 -4.207031 -0.335938 -4.210938 C -0.757812 -4.238281 -0.984375 -4.300781 -1.230469 -4.414062 L -1.21875 -4.246094 L -0.90625 -4.066406 C -0.675781 -3.949219 -0.488281 -3.785156 -0.449219 -3.1875 L -0.390625 -2.242188 C -0.351562 -1.644531 -0.414062 -1.46875 -0.703125 -1.453125 L -2.1875 -1.375 C -2.476562 -1.359375 -2.550781 -1.535156 -2.566406 -1.863281 L -2.609375 -2.675781 C -2.636719 -3.1875 -2.421875 -3.296875 -2.0625 -3.378906 L -2.070312 -3.511719 L -3.488281 -3.4375 L -3.484375 -3.304688 C -3.109375 -3.257812 -2.898438 -3.171875 -2.871094 -2.664062 L -2.828125 -1.851562 C -2.8125 -1.523438 -2.867188 -1.339844 -3.15625 -1.324219 L -4.558594 -1.25 C -4.847656 -1.234375 -4.921875 -1.410156 -4.9375 -1.738281 L -4.996094 -2.789062 C -5.023438 -3.347656 -4.800781 -3.664062 -4.320312 -3.886719 L -4.328125 -4.042969 C -4.757812 -3.914062 -5.003906 -3.867188 -5.214844 -3.832031 C -5.289062 -3.820312 -5.308594 -3.777344 -5.304688 -3.703125 L -5.109375 0.0234375 L -4.945312 0.015625 C -4.898438 -0.316406 -4.847656 -0.484375 -4.542969 -0.5 L -0.628906 -0.707031 C -0.328125 -0.722656 -0.261719 -0.5625 -0.183594 -0.238281 Z M -0.0117188 -0.246094 "/></g></g></g><g fill="#26110c" fill-opacity="1"><g transform="translate(7.646812, 36.939648)"><g><path d="M 0.5 -2.660156 C 0.691406 -3.882812 0.03125 -4.710938 -1.371094 -4.933594 L -3.734375 -5.304688 C -4.035156 -5.351562 -4.0625 -5.546875 -4.078125 -5.875 L -4.238281 -5.898438 L -4.445312 -4.582031 L -4.285156 -4.558594 C -4.167969 -4.871094 -4.082031 -5.058594 -3.78125 -5.011719 L -1.472656 -4.648438 C -0.0390625 -4.421875 0.296875 -3.628906 0.175781 -2.875 C 0.0390625 -2.007812 -0.660156 -1.566406 -1.976562 -1.773438 L -4.234375 -2.128906 C -4.53125 -2.175781 -4.5625 -2.355469 -4.578125 -2.691406 L -4.738281 -2.714844 L -5.011719 -0.996094 L -4.847656 -0.96875 C -4.730469 -1.285156 -4.648438 -1.4375 -4.347656 -1.390625 L -1.9375 -1.011719 C -0.476562 -0.78125 0.324219 -1.53125 0.5 -2.660156 Z M 0.5 -2.660156 "/></g></g></g><g fill="#26110c" fill-opacity="1"><g transform="translate(8.859363, 30.291883)"><g><path d="M 0.0898438 -0.230469 L 0.75 -1.929688 L 0.589844 -1.992188 C 0.386719 -1.628906 0.269531 -1.492188 -0.0117188 -1.601562 L -1.207031 -2.066406 C -1.492188 -2.175781 -1.570312 -2.332031 -1.398438 -2.78125 C -1.152344 -3.410156 -0.785156 -3.65625 -0.0078125 -3.589844 C 0.859375 -3.507812 1.398438 -3.601562 1.691406 -4.351562 L 1.769531 -4.558594 L 1.609375 -4.621094 C 1.492188 -4.3125 1.125 -4.296875 0.199219 -4.367188 C -0.234375 -4.410156 -0.722656 -4.335938 -1.035156 -3.910156 C -1.074219 -3.863281 -1.113281 -3.878906 -1.105469 -3.9375 C -1.011719 -4.722656 -1.25 -5.226562 -1.867188 -5.46875 C -2.679688 -5.785156 -3.394531 -5.355469 -3.859375 -4.160156 L -4.667969 -2.078125 L -4.515625 -2.019531 C -4.335938 -2.300781 -4.222656 -2.433594 -3.9375 -2.324219 L -0.285156 -0.902344 C 0 -0.792969 -0.0078125 -0.621094 -0.0703125 -0.292969 Z M -1.695312 -2.738281 C -1.816406 -2.425781 -1.980469 -2.367188 -2.265625 -2.476562 L -3.660156 -3.015625 C -3.925781 -3.121094 -3.933594 -3.265625 -3.863281 -3.441406 L -3.613281 -4.09375 C -3.300781 -4.898438 -2.75 -4.992188 -2.128906 -4.75 C -1.519531 -4.511719 -1.179688 -4.066406 -1.480469 -3.289062 Z M -1.695312 -2.738281 "/></g></g></g><g fill="#26110c" fill-opacity="1"><g transform="translate(11.371107, 24.320788)"><g><path d="M 1.140625 -1.632812 C 1.6875 -2.480469 1.898438 -3.546875 1.035156 -4.101562 C 0.167969 -4.652344 -0.65625 -3.914062 -1.300781 -3.410156 C -1.863281 -2.957031 -2.367188 -2.65625 -2.929688 -3.015625 C -3.304688 -3.253906 -3.542969 -3.703125 -3.179688 -4.269531 C -2.824219 -4.824219 -2.144531 -5.097656 -1.3125 -4.886719 C -1.222656 -4.871094 -1.191406 -4.890625 -1.15625 -4.945312 C -1.023438 -5.152344 -1.554688 -5.511719 -2.164062 -5.628906 C -2.582031 -5.417969 -2.960938 -5.085938 -3.265625 -4.609375 C -3.894531 -3.625 -3.757812 -2.746094 -3.085938 -2.316406 C -2.363281 -1.855469 -1.628906 -2.195312 -0.871094 -2.800781 C -0.28125 -3.28125 0.222656 -3.761719 0.863281 -3.347656 C 1.378906 -3.019531 1.390625 -2.523438 1.078125 -2.023438 C 0.667969 -1.367188 -0.0546875 -1.089844 -0.878906 -1.292969 C -0.96875 -1.324219 -0.992188 -1.300781 -1.027344 -1.242188 C -1.160156 -1.035156 -0.628906 -0.675781 -0.0234375 -0.558594 C 0.390625 -0.765625 0.777344 -1.0625 1.140625 -1.632812 Z M 1.140625 -1.632812 "/></g></g></g><g fill="#000000" fill-opacity="1"><g transform="translate(14.712008, 19.501873)"><g/></g></g><g fill="#b24a38" fill-opacity="1"><g transform="translate(16.600915, 17.193324)"><g><path d="M 2.246094 -1.652344 C 3.289062 -2.496094 3.800781 -3.734375 3.1875 -4.464844 C 2.867188 -4.847656 2.316406 -4.996094 1.601562 -4.503906 C 2.089844 -5.46875 2.632812 -6.433594 2.109375 -7.082031 C 1.730469 -7.554688 1.105469 -7.449219 0.703125 -7.125 C 0.515625 -6.976562 0.328125 -6.738281 0.253906 -6.488281 L 0.488281 -6.382812 C 0.746094 -6.78125 1.121094 -6.789062 1.363281 -6.488281 C 1.617188 -6.175781 1.496094 -5.8125 1.300781 -5.230469 L 0.953125 -4.222656 C 0.828125 -3.855469 0.746094 -3.589844 0.914062 -3.378906 C 1.035156 -3.234375 1.203125 -3.207031 1.316406 -3.207031 L 1.535156 -3.382812 C 1.226562 -3.441406 1.125 -3.8125 1.4375 -4.066406 C 1.738281 -4.308594 2.097656 -4.164062 2.355469 -3.84375 C 2.734375 -3.378906 2.878906 -2.558594 2.09375 -1.921875 C 1.34375 -1.316406 0.566406 -1.535156 0.113281 -2.097656 C -0.316406 -2.628906 -0.316406 -3.324219 0.359375 -3.648438 L 0.277344 -3.933594 C -0.390625 -3.664062 -0.945312 -4.050781 -1.210938 -4.378906 C -1.480469 -4.710938 -1.542969 -5.101562 -1.203125 -5.375 C -0.933594 -5.59375 -0.589844 -5.480469 -0.398438 -5.242188 C -0.207031 -5.007812 0.0664062 -5.007812 0.257812 -5.164062 C 0.460938 -5.328125 0.511719 -5.609375 0.3125 -5.851562 C -0.0195312 -6.265625 -0.691406 -6.167969 -1.324219 -5.660156 C -2.078125 -5.050781 -2.316406 -4.214844 -1.855469 -3.644531 C -1.539062 -3.253906 -1.007812 -3.117188 -0.585938 -3.328125 C -0.957031 -3.03125 -1.3125 -2.152344 -0.726562 -1.421875 C -0.0390625 -0.570312 1.214844 -0.824219 2.246094 -1.652344 Z M 2.246094 -1.652344 "/></g></g></g><g fill="#000000" fill-opacity="1"><g transform="translate(22.952742, 12.513928)"><g/></g></g><g fill="#26110c" fill-opacity="1"><g transform="translate(25.637371, 11.053533)"><g><path d="M 1.890625 -0.617188 C 2.839844 -0.972656 3.648438 -1.695312 3.289062 -2.65625 C 2.929688 -3.617188 1.828125 -3.523438 1.007812 -3.507812 C 0.289062 -3.484375 -0.296875 -3.546875 -0.527344 -4.171875 C -0.683594 -4.585938 -0.609375 -5.089844 0.0234375 -5.324219 C 0.640625 -5.554688 1.351562 -5.363281 1.890625 -4.695312 C 1.949219 -4.628906 1.984375 -4.625 2.046875 -4.648438 C 2.277344 -4.734375 2.070312 -5.339844 1.652344 -5.800781 C 1.191406 -5.882812 0.691406 -5.84375 0.15625 -5.644531 C -0.933594 -5.238281 -1.351562 -4.453125 -1.074219 -3.703125 C -0.777344 -2.902344 0.015625 -2.734375 0.988281 -2.761719 C 1.75 -2.792969 2.4375 -2.875 2.703125 -2.15625 C 2.917969 -1.585938 2.628906 -1.183594 2.078125 -0.96875 C 1.355469 -0.691406 0.609375 -0.902344 0.0742188 -1.5625 C 0.0195312 -1.640625 -0.0117188 -1.636719 -0.0742188 -1.613281 C -0.304688 -1.527344 -0.0976562 -0.917969 0.320312 -0.460938 C 0.773438 -0.375 1.261719 -0.382812 1.890625 -0.617188 Z M 1.890625 -0.617188 "/></g></g></g><g fill="#26110c" fill-opacity="1"><g transform="translate(31.059806, 9.163535)"><g><path d="M 0.242188 -0.0390625 L 4.039062 -0.667969 C 4.109375 -0.683594 4.152344 -0.730469 4.148438 -0.804688 C 4.128906 -1.226562 4.164062 -1.457031 4.246094 -1.710938 L 4.085938 -1.6875 L 3.941406 -1.351562 C 3.847656 -1.113281 3.707031 -0.90625 3.117188 -0.800781 L 2.183594 -0.636719 C 1.59375 -0.53125 1.414062 -0.574219 1.367188 -0.859375 L 1.121094 -2.328125 C 1.074219 -2.609375 1.242188 -2.707031 1.566406 -2.757812 L 2.371094 -2.890625 C 2.871094 -2.976562 3.003906 -2.773438 3.128906 -2.425781 L 3.257812 -2.449219 L 3.027344 -3.851562 L 2.898438 -3.828125 C 2.894531 -3.453125 2.828125 -3.234375 2.328125 -3.152344 L 1.523438 -3.019531 C 1.199219 -2.964844 1.011719 -3 0.964844 -3.285156 L 0.734375 -4.671875 C 0.6875 -4.953125 0.855469 -5.046875 1.179688 -5.101562 L 2.214844 -5.273438 C 2.765625 -5.367188 3.105469 -5.179688 3.382812 -4.726562 L 3.535156 -4.75 C 3.359375 -5.164062 3.285156 -5.402344 3.226562 -5.609375 C 3.207031 -5.679688 3.160156 -5.699219 3.089844 -5.6875 L -0.59375 -5.074219 L -0.566406 -4.914062 C -0.230469 -4.902344 -0.0585938 -4.871094 -0.0078125 -4.570312 L 0.632812 -0.703125 C 0.683594 -0.40625 0.53125 -0.320312 0.214844 -0.210938 Z M 0.242188 -0.0390625 "/></g></g></g><g fill="#26110c" fill-opacity="1"><g transform="translate(37.03484, 8.282608)"><g><path d="M 4.050781 -4.929688 L 4.042969 -4.765625 C 4.359375 -4.6875 4.523438 -4.621094 4.507812 -4.316406 L 4.363281 -0.992188 L 1.546875 -5.039062 L 0.46875 -5.085938 L 0.464844 -4.921875 C 0.789062 -4.84375 0.949219 -4.777344 0.9375 -4.476562 L 0.765625 -0.558594 C 0.75 -0.253906 0.585938 -0.203125 0.253906 -0.160156 L 0.246094 0.0117188 L 1.519531 0.0664062 L 1.527344 -0.105469 C 1.207031 -0.175781 1.054688 -0.242188 1.070312 -0.546875 L 1.230469 -4.25 L 4.320312 0.191406 L 4.605469 0.203125 L 4.804688 -4.304688 C 4.816406 -4.609375 4.992188 -4.660156 5.324219 -4.710938 L 5.332031 -4.875 Z M 4.050781 -4.929688 "/></g></g></g><g fill="#26110c" fill-opacity="1"><g transform="translate(43.766925, 8.752064)"><g><path d="M 1.351562 0.351562 L 3.355469 0.875 L 3.398438 0.710938 C 2.9375 0.53125 2.792969 0.433594 2.867188 0.136719 L 3.84375 -3.589844 C 3.914062 -3.863281 3.992188 -3.960938 4.585938 -3.804688 C 5.144531 -3.660156 5.292969 -3.449219 5.347656 -2.773438 L 5.527344 -2.726562 L 5.679688 -3.816406 L 5.21875 -3.910156 L 2.070312 -4.734375 L 1.621094 -4.875 L 1.21875 -3.851562 L 1.402344 -3.804688 C 1.785156 -4.367188 2.011719 -4.476562 2.566406 -4.332031 C 3.164062 -4.175781 3.191406 -4.050781 3.121094 -3.78125 L 2.144531 -0.0507812 C 2.070312 0.242188 1.886719 0.253906 1.394531 0.1875 Z M 1.351562 0.351562 "/></g></g></g><g fill="#26110c" fill-opacity="1"><g transform="translate(49.806735, 10.490574)"><g><path d="M 0.222656 0.109375 L 3.671875 1.804688 C 3.738281 1.835938 3.800781 1.820312 3.84375 1.757812 C 4.070312 1.40625 4.234375 1.238281 4.453125 1.078125 L 4.304688 1.003906 L 3.992188 1.191406 C 3.777344 1.332031 3.542969 1.417969 3 1.164062 L 2.148438 0.753906 C 1.605469 0.496094 1.484375 0.351562 1.609375 0.09375 L 2.265625 -1.238281 C 2.394531 -1.5 2.585938 -1.476562 2.878906 -1.332031 L 3.609375 -0.972656 C 4.066406 -0.75 4.058594 -0.507812 3.957031 -0.152344 L 4.074219 -0.09375 L 4.703125 -1.371094 L 4.585938 -1.429688 C 4.363281 -1.125 4.183594 -0.984375 3.726562 -1.210938 L 2.996094 -1.570312 C 2.699219 -1.714844 2.566406 -1.851562 2.695312 -2.109375 L 3.3125 -3.371094 C 3.441406 -3.628906 3.632812 -3.609375 3.925781 -3.464844 L 4.871094 -3 C 5.371094 -2.753906 5.539062 -2.40625 5.5 -1.875 L 5.640625 -1.808594 C 5.734375 -2.246094 5.816406 -2.480469 5.886719 -2.683594 C 5.914062 -2.753906 5.886719 -2.792969 5.820312 -2.828125 L 2.472656 -4.472656 L 2.398438 -4.324219 C 2.664062 -4.121094 2.785156 -3.996094 2.652344 -3.722656 L 0.925781 -0.203125 C 0.789062 0.0664062 0.617188 0.046875 0.296875 -0.046875 Z M 0.222656 0.109375 "/></g></g></g><g fill="#26110c" fill-opacity="1"><g transform="translate(55.178878, 13.248791)"><g><path d="M 2.078125 1.734375 C 3.054688 2.5 4.097656 2.324219 4.976562 1.207031 L 6.449219 -0.675781 C 6.636719 -0.914062 6.824219 -0.84375 7.117188 -0.695312 L 7.21875 -0.824219 L 6.167969 -1.648438 L 6.066406 -1.519531 C 6.285156 -1.261719 6.40625 -1.097656 6.21875 -0.855469 L 4.777344 0.980469 C 3.878906 2.125 3.027344 2.027344 2.425781 1.554688 C 1.730469 1.015625 1.691406 0.1875 2.511719 -0.859375 L 3.921875 -2.65625 C 4.109375 -2.898438 4.28125 -2.835938 4.582031 -2.683594 L 4.683594 -2.8125 L 3.3125 -3.890625 L 3.210938 -3.761719 C 3.429688 -3.503906 3.523438 -3.359375 3.332031 -3.121094 L 1.828125 -1.199219 C 0.914062 -0.0351562 1.179688 1.027344 2.078125 1.734375 Z M 2.078125 1.734375 "/></g></g></g><g fill="#26110c" fill-opacity="1"><g transform="translate(60.392456, 17.547647)"><g><path d="M 0.15625 0.191406 L 1.320312 1.597656 L 1.453125 1.484375 C 1.234375 1.132812 1.167969 0.964844 1.402344 0.769531 L 2.390625 -0.046875 C 2.625 -0.242188 2.800781 -0.238281 3.109375 0.136719 C 3.539062 0.65625 3.574219 1.097656 3.136719 1.746094 C 2.644531 2.460938 2.460938 2.976562 2.976562 3.597656 L 3.117188 3.769531 L 3.25 3.660156 C 3.039062 3.40625 3.207031 3.078125 3.714844 2.300781 C 3.964844 1.945312 4.136719 1.484375 3.921875 1 C 3.898438 0.945312 3.929688 0.921875 3.976562 0.953125 C 4.617188 1.417969 5.171875 1.457031 5.6875 1.035156 C 6.359375 0.480469 6.332031 -0.351562 5.515625 -1.339844 L 4.089844 -3.0625 L 3.964844 -2.957031 C 4.121094 -2.664062 4.183594 -2.5 3.949219 -2.304688 L 0.925781 0.191406 C 0.691406 0.386719 0.542969 0.296875 0.289062 0.078125 Z M 3.21875 -0.144531 C 3.003906 -0.40625 3.03125 -0.578125 3.265625 -0.769531 L 4.417969 -1.722656 C 4.640625 -1.90625 4.769531 -1.84375 4.890625 -1.695312 L 5.335938 -1.160156 C 5.882812 -0.492188 5.699219 0.03125 5.1875 0.457031 C 4.679688 0.875 4.125 0.949219 3.59375 0.3125 Z M 3.21875 -0.144531 "/></g></g></g><g fill="#26110c" fill-opacity="1"><g transform="translate(64.380767, 22.652654)"><g><path d="M 0.867188 1.792969 C 1.34375 2.683594 2.171875 3.386719 3.074219 2.902344 C 3.980469 2.414062 3.738281 1.335938 3.609375 0.523438 C 3.492188 -0.183594 3.472656 -0.773438 4.0625 -1.085938 C 4.453125 -1.296875 4.960938 -1.289062 5.277344 -0.695312 C 5.589844 -0.117188 5.496094 0.613281 4.90625 1.238281 C 4.851562 1.304688 4.851562 1.34375 4.882812 1.402344 C 5 1.617188 5.570312 1.328125 5.96875 0.855469 C 5.988281 0.386719 5.882812 -0.105469 5.617188 -0.605469 C 5.0625 -1.632812 4.226562 -1.941406 3.527344 -1.5625 C 2.773438 -1.160156 2.710938 -0.351562 2.871094 0.605469 C 3.003906 1.355469 3.175781 2.027344 2.503906 2.386719 C 1.964844 2.675781 1.527344 2.445312 1.238281 1.929688 C 0.867188 1.25 0.976562 0.484375 1.558594 -0.136719 C 1.625 -0.199219 1.617188 -0.234375 1.585938 -0.292969 C 1.472656 -0.507812 0.898438 -0.21875 0.5 0.253906 C 0.476562 0.714844 0.550781 1.199219 0.867188 1.792969 Z M 0.867188 1.792969 "/></g></g></g></svg>