<svg xmlns="http://www.w3.org/2000/svg" xmlns:xlink="http://www.w3.org/1999/xlink" width="500" zoomAndPan="magnify" viewBox="0 0 375 374.999991" height="500" preserveAspectRatio="xMidYMid meet" version="1.0"><defs><g/><clipPath id="8db51da81e"><path d="M 31 93 L 247 93 L 247 364 L 31 364 Z M 31 93 " clip-rule="nonzero"/></clipPath><clipPath id="d5fd2c0855"><path d="M 242.59375 90.425781 L 282.230469 334.730469 L 33.484375 375.085938 L -6.152344 130.78125 Z M 242.59375 90.425781 " clip-rule="nonzero"/></clipPath><clipPath id="4bbdac56ef"><path d="M 282.21875 334.660156 L 242.585938 90.355469 L -6.164062 130.710938 L 33.472656 375.015625 Z M 282.21875 334.660156 " clip-rule="nonzero"/></clipPath><clipPath id="4ca89af04d"><path d="M 186.277344 162.316406 L 363 162.316406 L 363 364.816406 L 186.277344 364.816406 Z M 186.277344 162.316406 " clip-rule="nonzero"/></clipPath></defs><rect x="-37.5" width="450" fill="#ffffff" y="-37.499999" height="449.999989" fill-opacity="1"/><rect x="-37.5" width="450" fill="#faeee5" y="-37.499999" height="449.999989" fill-opacity="1"/><g clip-path="url(#8db51da81e)"><g clip-path="url(#d5fd2c0855)"><g clip-path="url(#4bbdac56ef)"><path fill="#b24a38" d="M 236.8125 135.640625 C 236.019531 135.351562 235.171875 135.160156 234.289062 135.023438 C 235.128906 135.238281 235.96875 135.4375 236.8125 135.640625 Z M 182.199219 110.402344 C 182.136719 110.15625 182.046875 109.90625 181.910156 109.671875 L 181.699219 109.457031 L 181.691406 109.449219 L 181.679688 109.460938 C 181.417969 109.515625 180.855469 110.355469 180.78125 110.820312 L 180.761719 110.992188 C 180.828125 111.03125 180.886719 111.082031 180.957031 111.109375 C 181.027344 111.140625 181.097656 111.164062 181.167969 111.191406 C 181.550781 111.015625 181.902344 110.734375 182.199219 110.402344 Z M 169.058594 115.421875 C 169.429688 115.136719 169.65625 114.703125 169.824219 114.265625 C 169.621094 114.0625 169.386719 113.90625 169.082031 113.882812 C 168.367188 113.820312 168.242188 114.554688 168.453125 115.054688 C 168.652344 115.511719 168.828125 115.605469 169.058594 115.421875 Z M 167.144531 166.167969 C 167.085938 166.132812 166.972656 166.050781 166.863281 165.992188 C 166.589844 165.847656 166.25 165.789062 165.949219 165.710938 C 165.765625 165.664062 165.625 165.703125 165.507812 165.773438 L 165.539062 165.828125 C 165.597656 166.085938 165.625 166.304688 165.609375 166.566406 C 165.601562 166.636719 165.597656 166.816406 165.597656 166.941406 L 165.617188 166.945312 C 166.058594 166.945312 166.746094 166.601562 167.144531 166.167969 Z M 158.957031 166.507812 C 159.089844 166.199219 159.121094 165.867188 159 165.59375 C 158.902344 165.882812 158.660156 166.128906 158.261719 166.164062 C 157.933594 166.195312 157.535156 166.273438 157.394531 166.359375 L 157.402344 166.394531 C 157.503906 166.632812 157.679688 166.84375 157.875 167.011719 C 158.324219 167.058594 158.703125 166.847656 158.957031 166.507812 Z M 152.691406 170.125 C 152.757812 169.910156 152.792969 169.6875 152.800781 169.464844 C 152.785156 169.199219 152.699219 168.960938 152.433594 168.78125 C 151.808594 168.363281 151 168.410156 150.332031 168.683594 C 150.558594 169.589844 151.3125 170.132812 152.21875 170.179688 C 152.390625 170.1875 152.542969 170.164062 152.691406 170.125 Z M 160.296875 240.628906 C 160.386719 240.707031 160.480469 240.785156 160.5625 240.878906 C 160.644531 240.972656 160.714844 241.078125 160.789062 241.179688 C 160.730469 240.902344 160.675781 240.625 160.621094 240.359375 C 160.511719 240.445312 160.40625 240.539062 160.296875 240.628906 Z M 106.71875 314.738281 C 107.582031 314.246094 108.40625 313.722656 109.207031 313.171875 C 109.066406 312.734375 109.070312 312.257812 109.273438 311.792969 C 109.566406 311.132812 109.941406 310.511719 110.355469 309.914062 C 109.445312 310.796875 108.414062 311.566406 107.269531 312.199219 C 107.28125 312.824219 106.636719 313.046875 106.175781 312.835938 C 105.683594 313.75 105.253906 314.710938 104.925781 315.6875 C 105.535156 315.382812 106.132812 315.066406 106.71875 314.738281 Z M 119.761719 283.296875 C 119.652344 283.003906 119.441406 282.734375 119.269531 282.476562 C 119.164062 282.320312 119.03125 282.257812 118.898438 282.230469 L 118.882812 282.292969 C 118.753906 282.523438 118.628906 282.703125 118.4375 282.890625 C 118.390625 282.9375 118.269531 283.066406 118.183594 283.160156 L 118.199219 283.175781 C 118.53125 283.472656 119.269531 283.671875 119.855469 283.613281 C 119.839844 283.550781 119.808594 283.414062 119.761719 283.296875 Z M 114.160156 277.761719 C 113.898438 277.917969 113.546875 277.933594 113.230469 277.699219 C 112.964844 277.503906 112.613281 277.296875 112.453125 277.265625 L 112.441406 277.285156 C 112.355469 277.546875 112.34375 277.816406 112.378906 278.070312 C 112.679688 278.410156 113.105469 278.503906 113.519531 278.414062 C 113.824219 278.277344 114.066406 278.046875 114.160156 277.761719 Z M 106.960938 276.523438 C 107.121094 276.316406 107.21875 276.082031 107.140625 275.773438 C 106.953125 275.046875 106.308594 274.539062 105.636719 274.300781 C 105.203125 275.128906 105.402344 276.03125 106.046875 276.671875 C 106.171875 276.789062 106.300781 276.875 106.4375 276.941406 C 106.632812 276.828125 106.800781 276.683594 106.960938 276.523438 Z M 140.386719 343.675781 C 140.886719 343.851562 141.480469 343.480469 141.875 343.15625 C 142.171875 342.527344 142.328125 341.546875 141.640625 341.425781 C 141.507812 341.398438 141.382812 341.410156 141.253906 341.414062 C 140.476562 341.699219 139.714844 342.660156 139.71875 343.472656 C 139.960938 343.53125 140.199219 343.609375 140.386719 343.675781 Z M 208.101562 297.167969 C 208.355469 296.929688 208.578125 296.625 208.671875 296.3125 C 208.117188 296.332031 207.429688 296.816406 207.144531 297.171875 L 207.027344 297.34375 C 207.390625 297.324219 207.746094 297.269531 208.101562 297.167969 Z M 201.640625 292.199219 C 201.757812 292.082031 201.855469 291.96875 201.90625 291.902344 C 202.039062 291.71875 202.15625 291.496094 202.25 291.261719 C 202.109375 290.804688 201.59375 290.195312 201.257812 290.433594 C 200.800781 290.761719 200.292969 291.621094 200.398438 292.25 C 200.480469 292.289062 200.582031 292.320312 200.742188 292.335938 C 201.015625 292.359375 201.347656 292.3125 201.640625 292.199219 Z M 211.21875 247.265625 L 211.167969 247.28125 L 211.210938 247.289062 Z M 207.363281 236.851562 C 208.242188 235.207031 209.292969 233.605469 210.421875 232.066406 C 209.132812 233.488281 208.125 235.101562 207.363281 236.851562 Z M 183.257812 252.042969 L 183.199219 251.980469 L 183.179688 252.03125 Z M 203.628906 199.9375 C 203.582031 199.742188 203.554688 199.539062 203.554688 199.328125 C 203.523438 199.589844 203.476562 199.847656 203.457031 200.113281 C 203.515625 200.054688 203.574219 200 203.628906 199.9375 Z M 228.984375 93.652344 C 229.148438 94.730469 229.285156 95.859375 229.378906 97.023438 C 231.496094 101.398438 230.152344 107.320312 227.886719 112.382812 C 227.355469 114.039062 226.675781 115.605469 225.828125 117.054688 C 226.113281 117.132812 226.429688 117.152344 226.804688 117.089844 C 227.925781 116.902344 229.015625 116.601562 230.089844 116.238281 C 232.144531 115.019531 234.398438 114.039062 236.707031 113.390625 C 238.484375 112.566406 240.265625 111.769531 242.109375 111.195312 L 242.117188 111.191406 C 242.308594 111.132812 242.5 111.070312 242.695312 111.015625 C 244.144531 110.605469 244.988281 111.578125 245.125 112.730469 C 245.246094 112.75 245.363281 112.757812 245.480469 112.777344 C 245.949219 112.863281 246.273438 113.238281 246.132812 113.730469 C 245.167969 117.199219 240.976562 118.144531 237.910156 118.8125 C 237.207031 118.960938 236.480469 119.136719 235.746094 119.320312 C 233.824219 120.144531 231.890625 120.953125 229.980469 121.820312 C 233.488281 123.578125 236.691406 126.28125 239.3125 129.316406 C 241.832031 132.003906 243.917969 135.105469 245.421875 138.449219 C 245.675781 139.019531 245.152344 139.777344 244.492188 139.523438 C 244.003906 139.328125 243.390625 139.128906 242.695312 138.925781 C 241.917969 139.234375 241.011719 139.132812 240.429688 138.3125 L 240.410156 138.289062 C 236.738281 137.316406 231.8125 136.117188 227.546875 134.449219 C 225.660156 134.242188 223.851562 133.863281 222.300781 132.964844 C 220.820312 132.105469 219.953125 130.824219 219.558594 129.375 C 218.574219 128.074219 218.140625 126.597656 218.511719 124.917969 C 214.789062 127.917969 210.546875 130.421875 206.949219 133.402344 C 203.855469 135.96875 201.273438 139.089844 198.964844 142.367188 C 198.125 143.558594 197.464844 144.742188 196.917969 145.945312 C 197.75 157.136719 197.679688 168.472656 196.660156 179.847656 C 196.890625 179.636719 197.109375 179.433594 197.320312 179.238281 C 198.664062 178.007812 201.109375 175.808594 203.125 176.574219 C 203.476562 176.707031 203.6875 177.074219 203.570312 177.445312 C 202.4375 180.859375 199.023438 182.988281 196.140625 184.96875 C 194.921875 195.566406 192.875 206.183594 189.957031 216.746094 C 193.351562 211.847656 197.078125 207.117188 201.054688 202.691406 C 201.453125 202.246094 201.878906 201.789062 202.304688 201.332031 C 201.738281 199.074219 202.417969 196.578125 203.585938 194.28125 C 204.210938 191.261719 206.027344 188.398438 208.472656 186.6875 C 209.101562 186.246094 209.753906 186.175781 210.328125 186.328125 C 210.386719 186.28125 210.449219 186.242188 210.515625 186.195312 C 213.496094 182.648438 217.421875 180.234375 222.210938 180.503906 C 222.730469 180.53125 223.242188 180.828125 223.597656 181.257812 C 223.921875 181.214844 224.242188 181.167969 224.558594 181.136719 C 224.976562 181.09375 225.410156 181.445312 225.242188 181.902344 C 223.703125 186.109375 222.121094 190.738281 219.691406 194.675781 C 216.289062 200.921875 211.105469 205.929688 204.160156 203.167969 L 204.015625 203.082031 C 203.582031 202.972656 203.148438 202.847656 202.71875 202.679688 C 202.433594 202.984375 202.136719 203.28125 201.851562 203.59375 C 197.515625 208.296875 193.894531 213.601562 189.632812 218.363281 C 189.582031 218.421875 189.523438 218.441406 189.460938 218.449219 C 188.699219 221.136719 187.890625 223.816406 187.007812 226.492188 C 183.199219 238.066406 178.453125 249.074219 172.910156 259.480469 C 175.433594 257.265625 178.394531 255.433594 181.386719 253.859375 C 181.410156 252.15625 182.089844 250.417969 183.109375 248.789062 C 184.171875 246.292969 186.859375 243.394531 187.640625 242.289062 C 188.628906 240.894531 191.175781 241.335938 191.34375 243.164062 C 191.5625 245.617188 190.578125 248.390625 188.1875 249.308594 C 187.453125 250.179688 186.609375 250.992188 185.730469 251.777344 L 185.605469 251.914062 C 191.265625 249.703125 197.363281 248.703125 202.960938 246.332031 C 203.464844 245.964844 204.015625 245.597656 204.632812 245.226562 C 204.808594 245.121094 205.011719 245.066406 205.222656 245.03125 C 205.074219 244.796875 204.988281 244.507812 205.011719 244.171875 C 203.363281 236.515625 209.492188 230.414062 215.4375 225.8125 C 215.730469 225.457031 216.015625 225.113281 216.292969 224.773438 C 216.738281 224.230469 217.332031 223.976562 217.917969 223.949219 C 218.484375 223.539062 219.039062 223.136719 219.570312 222.75 C 220.015625 222.429688 220.730469 222.792969 220.617188 223.367188 C 220.46875 224.121094 220.296875 224.894531 220.101562 225.679688 C 220.128906 225.859375 220.148438 226.042969 220.128906 226.246094 C 219.621094 232.710938 215.429688 241.117188 209.875 244.675781 C 209.519531 244.902344 209.125 245.039062 208.722656 245.085938 C 208.296875 245.398438 207.859375 245.691406 207.410156 245.964844 C 207.492188 246.082031 207.558594 246.199219 207.605469 246.332031 C 207.648438 246.453125 207.703125 246.566406 207.746094 246.6875 C 207.902344 246.714844 208.054688 246.742188 208.210938 246.777344 C 210.21875 245.871094 212.496094 245.207031 214.867188 244.832031 C 219.457031 243.675781 226.015625 242.757812 229.410156 245.96875 C 229.722656 246.265625 229.863281 246.695312 229.867188 247.144531 C 230.105469 247.398438 230.164062 247.75 229.933594 248.078125 C 228.742188 249.753906 226.84375 250.296875 224.855469 250.382812 C 223.75 250.5 222.609375 250.46875 221.429688 250.355469 C 219.882812 250.203125 218.347656 249.898438 216.808594 249.652344 C 216.121094 249.582031 215.425781 249.503906 214.734375 249.417969 L 214.652344 249.414062 L 214.535156 249.453125 C 213.699219 249.730469 212.695312 249.703125 212.058594 249.011719 C 211.042969 248.824219 210.042969 248.59375 209.09375 248.285156 C 215.988281 253.761719 220.207031 262.351562 220.871094 271.082031 C 220.917969 271.707031 220.164062 272.246094 219.636719 271.777344 C 216.582031 269.097656 207.105469 263.742188 202.257812 258.128906 C 199.476562 255.332031 198.046875 252.359375 200.027344 249.269531 C 195.539062 250.796875 190.75 251.710938 186.402344 253.28125 C 182.613281 254.644531 179.128906 256.703125 175.84375 259.003906 C 172.746094 261.167969 170.78125 263.660156 168.863281 266.707031 C 149.714844 299.417969 122.335938 325.605469 90.371094 343.425781 C 91.125 343.464844 91.882812 343.492188 92.644531 343.496094 C 92.804688 343.5 92.925781 343.5625 93.023438 343.65625 C 96.726562 342.71875 100.320312 340.699219 104.085938 340.550781 C 142.277344 339.003906 175.824219 300.820312 187.203125 289.613281 C 186.546875 289.292969 186.027344 288.726562 185.832031 287.871094 C 185.472656 286.277344 186.609375 285.054688 187.949219 284.476562 C 188.144531 284.226562 188.382812 283.992188 188.695312 283.820312 C 189.5 283.363281 190.613281 283.441406 191.285156 284.09375 C 191.378906 284.183594 191.460938 284.289062 191.527344 284.390625 C 192.089844 284.585938 192.609375 284.882812 193.042969 285.269531 C 193.425781 285.613281 193.375 286.230469 193.144531 286.628906 C 192.855469 287.113281 192.484375 287.550781 192.066406 287.902344 C 191.4375 289.445312 189.433594 290.210938 187.84375 289.835938 C 180.226562 298.351562 172.101562 306.5 164.179688 314.71875 C 163.925781 314.976562 163.671875 315.214844 163.425781 315.472656 C 166.015625 314.535156 168.71875 313.957031 171.277344 312.867188 C 175.171875 311.195312 178.84375 309.035156 182.472656 306.863281 C 182.878906 306.621094 183.277344 306.375 183.675781 306.128906 C 183.390625 304.226562 183.617188 302.316406 184.535156 300.570312 C 184.898438 299.875 185.476562 298.941406 186.191406 298.1875 C 185.878906 297.78125 185.765625 297.21875 185.878906 296.601562 C 186.109375 295.390625 186.902344 294.285156 187.921875 293.601562 C 188.839844 292.984375 189.910156 292.972656 190.761719 293.574219 C 191.449219 293.699219 192.054688 294.074219 192.378906 294.804688 C 192.753906 295.644531 192.59375 296.394531 192.15625 296.964844 C 192.136719 297.039062 192.125 297.113281 192.101562 297.183594 C 191.917969 297.710938 191.546875 298.074219 191.097656 298.328125 C 190.160156 299.191406 188.820312 299.585938 187.65625 299.011719 C 187 299.570312 186.460938 300.257812 185.996094 300.980469 C 185.152344 302.289062 184.582031 303.992188 184.542969 305.605469 C 189.894531 302.316406 194.9375 298.839844 199.347656 294.351562 C 196.113281 292.710938 197.765625 287.3125 201.566406 287.125 C 203.917969 287.011719 204.570312 288.882812 204.265625 290.78125 C 204.554688 291.90625 204.292969 293.144531 203.066406 293.933594 C 202.753906 294.128906 202.40625 294.269531 202.042969 294.375 C 201.628906 294.585938 201.171875 294.699219 200.71875 294.695312 C 200.628906 294.726562 200.53125 294.746094 200.410156 294.722656 L 200.285156 294.683594 C 198.484375 297.582031 195.65625 299.964844 192.59375 302.050781 C 197.0625 301.296875 200.511719 298.550781 204.613281 296.621094 C 205.082031 294.480469 207.617188 292.550781 209.5625 294.0625 C 209.660156 294.140625 209.726562 294.226562 209.808594 294.304688 C 210.632812 294.558594 211.296875 295.164062 211.527344 296.25 C 211.9375 298.203125 209.640625 299.332031 207.566406 299.519531 C 207.078125 299.652344 206.589844 299.652344 206.160156 299.488281 C 205.308594 299.359375 204.679688 299.011719 204.535156 298.441406 L 204.441406 298.304688 C 204.402344 298.226562 204.394531 298.136719 204.390625 298.054688 C 200.847656 300.875 195.835938 303.644531 191.363281 302.859375 C 188.816406 304.503906 186.191406 305.964844 183.917969 307.363281 C 177.753906 311.144531 170.179688 315.820312 162.703125 316.195312 C 155.523438 323.386719 147.789062 329.351562 138.644531 334 C 129.890625 338.449219 120.71875 341.300781 111.191406 343.167969 C 115.128906 344.40625 118.988281 345.40625 123.273438 345.523438 C 128.234375 345.660156 132.832031 344.320312 137.542969 343.085938 C 137.59375 342.59375 137.738281 342.105469 137.976562 341.65625 C 138.644531 340.382812 139.929688 339.296875 141.378906 339.078125 C 143.019531 338.839844 144.636719 340.027344 144.785156 341.707031 C 144.910156 343.152344 144.035156 344.433594 142.863281 345.207031 C 142.78125 345.304688 142.691406 345.394531 142.605469 345.480469 C 141.488281 346.496094 139.882812 346.570312 138.648438 345.710938 C 138.03125 345.277344 137.695312 344.675781 137.574219 344.027344 C 132.023438 346.574219 125.367188 347.296875 119.023438 346.425781 C 120.875 348.9375 123.070312 350.371094 125.925781 351.636719 C 127.488281 352.324219 129.234375 352.746094 130.886719 353.320312 C 130.933594 353.203125 130.976562 353.085938 131.035156 352.972656 C 132.003906 351.109375 134.511719 350.9375 135.847656 352.414062 C 135.933594 352.503906 135.992188 352.605469 136.058594 352.703125 C 136.121094 352.753906 136.183594 352.785156 136.246094 352.839844 C 137.644531 354.128906 137.433594 356.164062 135.898438 357.1875 C 135.746094 357.289062 135.582031 357.367188 135.414062 357.4375 C 135 357.789062 134.492188 358.027344 133.957031 358.136719 C 133.046875 358.683594 131.890625 358.152344 131.269531 357.226562 C 131.234375 357.167969 131.207031 357.117188 131.175781 357.0625 C 131.117188 356.972656 131.074219 356.890625 131.03125 356.800781 L 130.960938 356.664062 C 130.910156 356.546875 130.855469 356.433594 130.820312 356.316406 C 130.660156 355.855469 130.585938 355.378906 130.582031 354.890625 C 128.582031 354.269531 126.554688 353.273438 124.828125 352.414062 C 122.539062 351.269531 118.914062 349.46875 118.445312 346.621094 C 118.429688 346.519531 118.476562 346.433594 118.539062 346.367188 C 115.179688 345.863281 111.921875 344.925781 108.980469 343.582031 C 107.933594 343.765625 106.886719 343.957031 105.828125 344.121094 C 99.859375 345.054688 93.8125 345.691406 87.910156 347.027344 C 85.328125 347.609375 82.753906 348.308594 80.152344 348.761719 C 76.410156 350.59375 72.617188 352.320312 68.773438 353.921875 C 60.9375 356.355469 53.25 359.320312 45.289062 361.367188 C 42.386719 362.113281 39.441406 362.675781 36.46875 363.117188 C 34.816406 362.75 33.160156 362.390625 31.496094 362.042969 C 45.933594 358.941406 59.945312 354.28125 73.320312 348.222656 C 76.605469 345.109375 79.769531 341.914062 82.734375 338.542969 C 82.585938 338.367188 82.433594 338.171875 82.28125 337.9375 C 81.089844 336.042969 81.144531 333.0625 82.527344 331.296875 C 82.972656 330.730469 83.789062 331.054688 84.023438 331.625 C 84.59375 332.996094 85.066406 334.351562 85.121094 335.734375 C 87.203125 333.210938 89.175781 330.59375 90.996094 327.816406 C 93.441406 324.09375 95.496094 320.21875 97.339844 316.246094 C 95.59375 315.347656 93.628906 314.273438 92.40625 312.714844 C 91.414062 311.445312 91.039062 309.296875 92.761719 308.480469 C 94.136719 307.835938 95.71875 309.828125 96.414062 310.6875 C 96.996094 311.40625 97.484375 312.199219 97.894531 313.019531 C 98.089844 313.414062 98.1875 313.808594 98.28125 314.207031 C 100.371094 309.503906 102.195312 304.675781 104.007812 299.808594 C 104.027344 298.945312 103.769531 298.113281 103.324219 297.347656 C 102.847656 297.667969 102.242188 297.792969 101.613281 297.609375 C 100.65625 297.773438 99.617188 297.476562 98.703125 297.199219 C 98.574219 297.160156 98.445312 297.105469 98.316406 297.0625 C 98.242188 297.035156 98.164062 297.007812 98.09375 296.980469 C 96.949219 296.550781 95.863281 295.9375 94.84375 295.28125 C 94.011719 294.746094 93.726562 293.578125 94.070312 292.691406 C 94.464844 291.675781 95.363281 291.3125 96.371094 291.289062 C 98.867188 291.226562 103.902344 292.15625 104.269531 295.277344 C 104.339844 295.855469 104.179688 296.394531 103.875 296.816406 C 104.253906 297.578125 104.480469 298.410156 104.476562 299.300781 C 104.601562 299.347656 104.703125 299.472656 104.675781 299.625 C 104.636719 299.8125 104.589844 299.992188 104.546875 300.175781 C 104.710938 300.011719 104.863281 299.855469 105.027344 299.6875 C 105.757812 298.5625 106.746094 297.566406 107.886719 296.695312 C 108.03125 296.539062 108.164062 296.378906 108.304688 296.222656 L 108.25 296.113281 C 107.710938 290.664062 106.746094 284.738281 107.269531 279.128906 L 107.257812 279.128906 C 106.914062 279.214844 106.550781 279.261719 106.183594 279.269531 C 104.097656 279.703125 101.894531 278.542969 101.578125 276.023438 C 101.453125 275.011719 101.824219 273.980469 102.472656 273.199219 C 103.253906 271.703125 104.777344 270.601562 106.648438 270.925781 C 108.78125 271.296875 110.402344 273.859375 110.28125 275.914062 C 110.207031 277.125 109.511719 278.171875 108.511719 278.734375 C 108.542969 284.429688 108.613281 290.113281 108.671875 295.8125 C 109.542969 294.832031 110.394531 293.839844 111.210938 292.824219 C 112.113281 288.949219 112.578125 284.960938 113.539062 281.109375 C 112.578125 281.191406 111.746094 280.765625 111.179688 280.074219 C 110.863281 279.84375 110.59375 279.535156 110.40625 279.121094 C 110.109375 278.488281 110.082031 277.691406 110.300781 276.988281 C 110.710938 273.597656 116.0625 273.640625 116.554688 277.097656 C 116.796875 278.800781 115.875 280.429688 114.292969 280.957031 C 113.898438 284.683594 112.902344 288.378906 111.875 291.988281 C 113.523438 289.871094 115.042969 287.640625 116.433594 285.25 C 115.605469 284.625 115.082031 283.621094 115.070312 282.566406 C 115.03125 279.988281 118.183594 279.390625 120.085938 280.117188 C 121.683594 280.726562 122.203125 282.421875 121.800781 283.816406 C 121.792969 284.042969 121.761719 284.257812 121.679688 284.460938 C 121.5 284.9375 121.136719 285.226562 120.703125 285.398438 C 120.300781 285.675781 119.8125 285.855469 119.230469 285.882812 C 119.128906 285.886719 119.039062 285.867188 118.945312 285.859375 C 118.523438 285.921875 118.082031 285.90625 117.625 285.808594 C 117.441406 285.765625 117.269531 285.710938 117.101562 285.640625 C 115.757812 288.960938 113.472656 292.042969 110.886719 294.820312 C 113.375 293.535156 116.144531 292.632812 118.601562 292.011719 C 118.269531 290.789062 118.621094 289.339844 119.78125 288.804688 C 121.1875 288.148438 123.246094 289.082031 124.289062 290.023438 C 124.496094 290.203125 124.644531 290.414062 124.75 290.628906 C 124.921875 290.667969 125.070312 290.808594 125.019531 291.011719 C 124.996094 291.089844 124.957031 291.15625 124.933594 291.234375 C 125.015625 291.972656 124.628906 292.667969 123.910156 292.882812 C 122.867188 293.921875 121.320312 294.449219 119.90625 293.734375 C 119.417969 293.484375 119.054688 293.058594 118.8125 292.558594 C 115.28125 293.945312 111.757812 295.050781 108.691406 297.046875 C 107.324219 298.363281 105.941406 299.585938 104.605469 300.71875 L 104.574219 300.75 L 104.5625 300.753906 C 104.5 300.808594 104.4375 300.863281 104.375 300.921875 C 102.859375 307.417969 100.433594 313.746094 97.300781 319.765625 C 99.464844 318.3125 101.933594 317.191406 104.308594 316.003906 C 104.425781 314.445312 104.964844 313.011719 105.6875 311.613281 L 105.71875 311.558594 C 105.71875 307.445312 108.703125 303.828125 113.027344 303.933594 C 113.617188 303.953125 113.96875 304.5 113.730469 305.042969 C 113.296875 306.019531 112.773438 306.921875 112.179688 307.769531 C 113.441406 306.542969 114.890625 305.492188 116.339844 304.621094 C 117.785156 303.753906 119.417969 303.320312 121.097656 303.378906 C 121.777344 303.402344 122.714844 303.714844 123.257812 304.144531 C 123.515625 304.335938 123.757812 304.542969 123.984375 304.773438 C 123.988281 304.785156 124.878906 306.320312 124.402344 305.539062 C 124.882812 306.324219 124.464844 307.363281 123.859375 307.921875 C 123.511719 308.246094 123.234375 308.480469 122.964844 308.664062 C 122.859375 308.832031 122.765625 309.007812 122.648438 309.167969 C 122.3125 310.1875 121.214844 311.054688 120.421875 311.574219 C 117.871094 313.25 114.609375 314.152344 111.625 314.691406 C 110.910156 314.820312 110.214844 314.53125 109.738281 314.035156 C 108.902344 314.5625 108.0625 315.074219 107.25 315.554688 C 106.425781 316.042969 105.578125 316.546875 104.710938 317.042969 C 107.351562 316.960938 111.492188 318.410156 111.863281 321.300781 C 111.902344 321.621094 111.632812 321.980469 111.324219 322.0625 C 108.09375 322.910156 104.929688 320.582031 102.921875 318.261719 C 102.875 318.207031 102.84375 318.148438 102.816406 318.09375 C 100.867188 319.140625 98.84375 320.082031 96.8125 320.695312 C 95.332031 323.464844 93.695312 326.164062 91.9375 328.777344 C 92.296875 328.605469 92.660156 328.449219 92.988281 328.296875 C 94.105469 327.792969 96.15625 326.769531 97.410156 327.40625 C 98.921875 328.175781 97.621094 329.949219 96.703125 330.574219 C 95.152344 331.628906 92.992188 331.625 91.066406 331.4375 C 90.835938 331.515625 90.609375 331.605469 90.367188 331.667969 C 90.222656 331.707031 90.070312 331.695312 89.933594 331.648438 C 88.589844 333.492188 87.183594 335.292969 85.726562 337.03125 C 87.511719 336.320312 89.671875 335.902344 91.21875 336.824219 C 91.699219 337.113281 91.675781 337.671875 91.277344 338.011719 C 89.640625 339.394531 87.464844 339.339844 85.394531 339.222656 C 85.285156 339.242188 85.183594 339.265625 85.078125 339.285156 C 84.574219 339.359375 84.160156 339.355469 83.804688 339.257812 C 81.46875 341.882812 79.003906 344.359375 76.445312 346.703125 C 76.535156 346.683594 76.628906 346.667969 76.710938 346.652344 C 105.601562 332.929688 131.289062 312.546875 151.25 286.753906 C 151.429688 281.085938 151.929688 275.390625 152.78125 269.792969 C 152.871094 269.207031 152.976562 268.589844 153.078125 267.976562 C 149.757812 264.917969 149.832031 258.550781 150.527344 254.582031 C 150.945312 252.238281 151.886719 249.886719 153.152344 247.664062 C 154.300781 245.175781 155.683594 242.886719 157.066406 240.988281 C 157.574219 240.296875 158.394531 240.011719 159.167969 240.121094 C 159.636719 239.6875 160.109375 239.265625 160.585938 238.878906 C 160.917969 238.609375 161.472656 238.664062 161.585938 239.140625 C 162.929688 244.882812 164.621094 251.269531 163.714844 257.210938 C 163.101562 261.21875 160.972656 265.304688 157.550781 267.480469 C 157.191406 267.867188 156.710938 268.113281 156.210938 268.210938 C 155.566406 268.496094 154.882812 268.722656 154.164062 268.871094 C 154.09375 269.285156 154.007812 269.695312 153.941406 270.113281 C 153.109375 275.167969 152.863281 280.289062 152.316406 285.378906 C 161.214844 273.671875 168.9375 260.863281 175.265625 247.085938 C 175.738281 241.996094 176.042969 236.929688 176.011719 231.863281 C 175.78125 231.839844 175.535156 231.789062 175.265625 231.714844 C 173.117188 231.097656 171.175781 228.839844 171.035156 226.597656 C 170.988281 225.878906 171.808594 225.578125 172.367188 225.847656 C 173.703125 226.492188 174.960938 227.191406 175.925781 228.183594 C 175.792969 224.917969 175.523438 221.652344 175.035156 218.363281 C 174.378906 213.957031 173.328125 209.703125 172.066406 205.507812 C 170.167969 206 167.984375 206.503906 166.03125 206.15625 C 164.453125 205.871094 162.734375 204.515625 163.480469 202.757812 C 164.074219 201.359375 166.582031 201.796875 167.675781 201.972656 C 168.585938 202.125 169.476562 202.386719 170.335938 202.734375 C 170.738281 202.898438 171.078125 203.125 171.410156 203.355469 C 169.839844 198.460938 167.988281 193.644531 166.097656 188.800781 C 165.492188 188.082031 164.65625 187.601562 163.722656 187.339844 L 163.714844 187.351562 C 163.421875 187.804688 163.085938 188.226562 162.71875 188.617188 C 162.601562 188.796875 162.441406 188.953125 162.253906 189.082031 C 162.203125 189.132812 162.148438 189.179688 162.097656 189.226562 C 161.847656 189.613281 161.527344 189.972656 161.113281 190.347656 C 160.113281 191.25 158.675781 191.792969 157.347656 191.882812 C 156.011719 191.980469 155.039062 191.113281 154.90625 190.019531 C 154.675781 189.777344 154.695312 189.441406 154.910156 189.171875 L 154.996094 189.074219 C 155.054688 188.886719 155.140625 188.6875 155.253906 188.5 C 156.429688 186.535156 158.429688 185.445312 160.5625 184.828125 C 161.425781 184.578125 162.363281 185.246094 162.722656 185.980469 C 162.777344 186.09375 162.808594 186.203125 162.851562 186.316406 C 164.09375 186.558594 165.238281 187.132812 166.109375 188.113281 C 166.234375 188.0625 166.398438 188.089844 166.472656 188.222656 C 166.570312 188.386719 166.652344 188.554688 166.742188 188.71875 C 166.757812 188.488281 166.769531 188.265625 166.777344 188.035156 C 166.570312 186.707031 166.652344 185.308594 166.921875 183.894531 C 166.921875 183.683594 166.921875 183.476562 166.917969 183.265625 L 166.804688 183.222656 C 162.773438 179.515625 158.109375 175.730469 154.765625 171.203125 L 154.761719 171.207031 C 154.558594 171.5 154.316406 171.773438 154.050781 172.019531 C 152.777344 173.738281 150.363281 174.339844 148.449219 172.671875 C 147.683594 172.003906 147.277344 170.980469 147.242188 169.96875 C 146.824219 168.328125 147.230469 166.496094 148.84375 165.488281 C 150.675781 164.347656 153.59375 165.183594 154.871094 166.796875 C 155.625 167.746094 155.804688 168.992188 155.433594 170.078125 C 159.246094 174.308594 163.082031 178.5 166.917969 182.71875 C 166.917969 181.40625 166.890625 180.09375 166.820312 178.792969 C 164.914062 175.304688 162.613281 172.015625 160.761719 168.503906 C 160.097656 169.207031 159.195312 169.445312 158.308594 169.300781 C 157.921875 169.339844 157.515625 169.285156 157.097656 169.109375 C 156.460938 168.828125 155.90625 168.253906 155.601562 167.585938 C 153.648438 164.78125 157.671875 161.246094 160.34375 163.5 C 161.65625 164.613281 162.054688 166.445312 161.222656 167.886719 C 163.410156 170.933594 165.125 174.347656 166.761719 177.730469 C 166.585938 175.050781 166.226562 172.378906 165.675781 169.664062 C 164.644531 169.75 163.585938 169.347656 162.871094 168.574219 C 161.132812 166.675781 163.085938 164.132812 164.992188 163.402344 C 166.589844 162.800781 168.101562 163.714844 168.726562 165.023438 C 168.871094 165.199219 168.996094 165.378906 169.070312 165.582031 C 169.25 166.058594 169.171875 166.519531 168.964844 166.933594 C 168.851562 167.410156 168.605469 167.871094 168.183594 168.277344 C 168.117188 168.347656 168.035156 168.390625 167.957031 168.449219 C 167.683594 168.773438 167.34375 169.0625 166.941406 169.292969 C 166.773438 169.382812 166.609375 169.453125 166.4375 169.515625 C 167.644531 172.882812 167.996094 176.710938 167.914062 180.5 C 168.914062 177.886719 170.378906 175.367188 171.800781 173.265625 C 170.734375 172.574219 170.035156 171.257812 170.542969 170.085938 C 171.15625 168.664062 173.3125 167.992188 174.71875 167.992188 C 174.992188 167.996094 175.242188 168.058594 175.464844 168.140625 C 175.617188 168.058594 175.824219 168.0625 175.921875 168.253906 C 175.957031 168.324219 175.972656 168.402344 176.003906 168.472656 C 176.558594 168.964844 176.730469 169.75 176.339844 170.382812 C 176.253906 171.855469 175.449219 173.28125 173.921875 173.6875 C 173.386719 173.828125 172.832031 173.75 172.320312 173.535156 C 170.609375 176.917969 168.714844 180.089844 167.757812 183.625 C 167.613281 185.511719 167.390625 187.351562 167.152344 189.085938 L 167.152344 189.125 L 167.144531 189.136719 C 167.132812 189.222656 167.121094 189.304688 167.109375 189.390625 C 170.308594 195.242188 172.707031 201.582031 174.378906 208.164062 C 175.027344 205.636719 176.121094 203.152344 177.101562 200.691406 C 176.15625 199.445312 175.601562 198.015625 175.210938 196.496094 L 175.191406 196.433594 C 172.460938 193.363281 172.28125 188.671875 175.578125 185.878906 C 176.023438 185.496094 176.660156 185.671875 176.835938 186.234375 C 177.863281 189.425781 177.890625 192.722656 176.777344 195.875 C 177.203125 196.332031 176.871094 196.929688 176.386719 197.082031 C 176.628906 198.089844 176.949219 199.097656 177.359375 200.042969 C 177.601562 199.410156 177.84375 198.773438 178.058594 198.140625 C 178.703125 196.226562 179.132812 194.316406 179.5 192.382812 C 178.699219 190.722656 178.617188 189 178.984375 187.320312 C 178.992188 187.132812 179.007812 186.964844 179.023438 186.824219 C 179.378906 184.023438 180.710938 181.109375 182.929688 179.316406 C 183.753906 178.644531 185.320312 178.609375 185.953125 179.605469 C 187.378906 181.847656 187.085938 184.332031 186.34375 186.78125 C 185.785156 188.621094 184.613281 191 182.785156 191.960938 C 182.632812 192.28125 182.394531 192.53125 182.035156 192.667969 C 181.523438 193.226562 180.988281 193.75 180.457031 194.238281 C 180.378906 194.3125 180.292969 194.320312 180.214844 194.304688 C 179.84375 195.703125 179.414062 197.078125 179 198.394531 C 178.710938 199.308594 178.414062 200.246094 178.097656 201.195312 C 180.011719 199.375 184.066406 197.699219 186.265625 199.613281 C 186.511719 199.824219 186.550781 200.269531 186.371094 200.535156 C 184.53125 203.324219 180.609375 203.691406 177.574219 203.300781 C 177.5 203.289062 177.4375 203.261719 177.382812 203.238281 C 176.621094 205.316406 175.742188 207.367188 174.636719 209.179688 C 175.371094 212.230469 175.945312 215.332031 176.371094 218.457031 C 176.53125 218.089844 176.695312 217.730469 176.839844 217.398438 C 177.339844 216.273438 178.1875 214.148438 179.546875 213.789062 C 181.1875 213.359375 181.398438 215.546875 181.125 216.625 C 180.675781 218.445312 179.054688 219.882812 177.496094 221.015625 C 177.375 221.226562 177.265625 221.445312 177.128906 221.652344 C 177.046875 221.785156 176.921875 221.875 176.789062 221.933594 C 177.019531 224.203125 177.164062 226.476562 177.234375 228.75 C 178.09375 227.03125 179.425781 225.28125 181.195312 224.9375 C 181.75 224.832031 182.105469 225.261719 182.03125 225.785156 C 181.730469 227.90625 180.070312 229.316406 178.445312 230.605469 C 178.382812 230.6875 178.316406 230.777344 178.25 230.859375 C 177.925781 231.257812 177.613281 231.527344 177.28125 231.691406 C 177.289062 235.957031 177.023438 240.199219 176.507812 244.367188 C 179.214844 238.242188 181.65625 231.929688 183.796875 225.433594 C 189.46875 208.214844 192.722656 190.765625 193.753906 173.464844 C 192.628906 171.851562 192.058594 168.773438 191.75 167.6875 C 190.484375 163.253906 189.742188 158.636719 188.207031 154.289062 C 187.28125 151.6875 186.160156 149.117188 184.9375 146.589844 C 184.808594 146.558594 184.683594 146.523438 184.554688 146.5 C 181.132812 147.703125 178.003906 149.746094 174.339844 150.128906 C 171.566406 150.417969 168.648438 149.558594 165.996094 148.84375 C 164.449219 148.425781 158.761719 147.128906 155.703125 145.113281 C 155.363281 145.304688 154.988281 145.4375 154.59375 145.5 C 153.691406 145.835938 152.710938 145.554688 152 144.820312 C 151.84375 144.675781 151.703125 144.511719 151.589844 144.339844 C 150.46875 142.847656 149.464844 140.414062 151.527344 139.300781 C 151.832031 139.136719 152.179688 139.023438 152.535156 138.960938 C 152.691406 138.847656 152.851562 138.757812 153.019531 138.675781 C 153.273438 138.515625 153.542969 138.371094 153.832031 138.273438 C 155.894531 137.566406 157.222656 139.855469 157.484375 141.5625 C 157.566406 142.09375 157.519531 142.605469 157.378906 143.078125 C 158.167969 143.625 158.988281 144.152344 160.003906 144.578125 C 162.53125 145.632812 165.183594 146.414062 167.824219 147.113281 C 170.59375 147.847656 173.253906 148.40625 176.113281 147.757812 C 178.167969 147.300781 179.992188 146.375 181.960938 145.796875 C 174.363281 143.191406 168.039062 136.269531 163.410156 129.949219 C 163.222656 129.96875 163.039062 129.980469 162.851562 129.972656 C 162.167969 130.0625 161.535156 129.800781 161.046875 129.3125 C 160.003906 128.480469 159.390625 126.960938 159.804688 125.71875 C 159.996094 125.160156 160.386719 124.777344 160.855469 124.523438 C 161.449219 123.855469 162.328125 123.554688 163.234375 123.863281 L 163.390625 123.9375 C 163.988281 123.832031 164.597656 123.867188 165.152344 124.089844 C 166.660156 124.699219 166.890625 126.5625 166.253906 127.894531 C 165.976562 128.484375 165.542969 128.976562 165.03125 129.332031 C 167.53125 132.6875 170.277344 135.839844 173.449219 138.589844 C 176.742188 141.441406 180.457031 143.160156 184.226562 145.125 C 182.617188 141.894531 180.875 138.71875 179.207031 135.609375 C 176.039062 129.699219 172.609375 123.925781 169.117188 118.207031 C 168.164062 118.140625 167.21875 117.75 166.542969 117.097656 C 165.683594 116.757812 165.023438 116.105469 164.816406 115.019531 C 164.390625 112.820312 166.828125 111.207031 168.726562 111.082031 C 169.09375 111.058594 169.457031 111.082031 169.824219 111.132812 C 170.53125 111.078125 171.15625 111.25 171.570312 111.738281 C 172.460938 112.269531 173.074219 113.109375 173.105469 114.25 C 173.296875 114.269531 173.480469 114.453125 173.386719 114.65625 C 173.289062 114.882812 173.140625 115.089844 172.96875 115.296875 C 172.847656 115.742188 172.65625 116.152344 172.382812 116.503906 L 172.335938 116.601562 C 171.992188 117.214844 171.492188 117.628906 170.925781 117.890625 C 174.761719 124.226562 178.464844 130.632812 181.898438 137.179688 C 181.933594 136.589844 182.0625 135.980469 182.167969 135.398438 C 182.570312 133.175781 183.035156 131.058594 183.117188 128.789062 C 183.289062 123.910156 182.214844 118.96875 180.699219 114.324219 C 179.902344 114.023438 179.300781 113.332031 178.976562 112.503906 C 178.273438 111.945312 177.828125 111.015625 177.574219 110.144531 C 176.984375 108.109375 178.722656 106.9375 180.527344 106.847656 C 180.972656 106.828125 181.429688 106.859375 181.878906 106.953125 C 182.832031 106.894531 183.570312 107.273438 184.0625 107.878906 C 184.53125 108.207031 184.945312 108.605469 185.246094 109.082031 C 186.515625 111.074219 184.527344 113.644531 182.546875 114.3125 C 183.835938 118.425781 184.609375 122.652344 184.792969 126.976562 C 184.890625 129.109375 184.699219 131.199219 184.234375 133.277344 C 183.847656 135.019531 183.558594 137.246094 182.785156 138.867188 C 185.140625 143.453125 187.367188 148.113281 189.390625 152.878906 C 190.894531 156.421875 191.503906 160.402344 192.410156 164.125 C 192.875 166.015625 193.367188 167.90625 193.9375 169.769531 C 194.175781 163.957031 194.160156 158.164062 193.910156 152.402344 C 193.808594 151.792969 193.773438 151.179688 193.832031 150.5625 L 193.820312 150.394531 L 193.863281 150.335938 C 194.136719 148.050781 195.289062 145.765625 196.34375 143.855469 C 197.964844 140.898438 200.140625 138.152344 202.433594 135.648438 C 202.128906 134.773438 202.011719 133.824219 202.027344 132.835938 C 201.628906 131.464844 202.292969 129.738281 202.722656 128.5 C 203.289062 126.867188 204.023438 124.761719 205.1875 123.421875 C 205.464844 122.976562 205.738281 122.550781 206.011719 122.167969 C 206.3125 121.746094 207 121.746094 207.238281 122.242188 C 207.300781 122.371094 207.347656 122.5 207.402344 122.625 C 208.5625 122.925781 209.394531 124.207031 208.5 125.582031 C 208.300781 125.886719 208.109375 126.195312 207.929688 126.503906 C 207.6875 128.527344 206.746094 130.496094 205.707031 132.414062 C 210.367188 128.328125 215.890625 125.273438 220.40625 121.019531 C 220.582031 120.644531 220.855469 120.335938 221.195312 120.117188 C 220.269531 119.644531 219.628906 118.539062 220.050781 117.386719 C 219.789062 116.226562 219.699219 114.96875 219.660156 113.800781 C 219.53125 112.847656 219.515625 111.878906 219.589844 110.910156 C 219.597656 105.3125 222.082031 100.953125 224.425781 95.871094 C 224.910156 94.828125 226.039062 94.269531 227.058594 94.496094 C 227.308594 94.132812 227.554688 93.773438 227.792969 93.425781 C 228.097656 92.976562 228.894531 93.074219 228.984375 93.652344 " fill-opacity="1" fill-rule="nonzero"/></g></g></g><g clip-path="url(#4ca89af04d)"><path fill="#b24a38" d="M 198.890625 36.582031 C 108.441406 36.582031 34.800781 110.222656 34.800781 200.671875 C 34.800781 291.121094 108.441406 364.765625 198.890625 364.765625 C 289.339844 364.765625 362.984375 291.121094 362.984375 200.671875 C 362.984375 110.222656 289.339844 36.582031 198.890625 36.582031 Z M 198.890625 361.984375 C 109.964844 361.984375 37.578125 289.601562 37.578125 200.671875 C 37.578125 111.746094 109.964844 39.359375 198.890625 39.359375 C 287.816406 39.359375 360.203125 111.746094 360.203125 200.671875 C 360.203125 289.601562 287.816406 361.984375 198.890625 361.984375 Z M 198.890625 361.984375 " fill-opacity="1" fill-rule="nonzero"/></g><g fill="#26110c" fill-opacity="1"><g transform="translate(58.136817, 271.189931)"><g><path d="M -0.53125 -1.113281 L -4.453125 -9.347656 L -5.234375 -8.976562 C -4.609375 -7 -4.496094 -6.097656 -5.871094 -5.441406 L -12.734375 -2.171875 C -14.03125 -1.554688 -14.71875 -2.226562 -15.421875 -3.710938 L -17.171875 -7.386719 C -18.269531 -9.683594 -17.480469 -10.605469 -16.359375 -11.503906 L -16.644531 -12.097656 L -22.320312 -9.394531 L -22.035156 -8.800781 C -20.597656 -9.121094 -19.457031 -9.121094 -18.359375 -6.820312 L -16.609375 -3.148438 C -15.902344 -1.664062 -15.8125 -0.707031 -17.109375 -0.0859375 L -23.453125 2.933594 C -24.753906 3.554688 -25.4375 2.878906 -26.144531 1.394531 L -28.40625 -3.351562 C -29.609375 -5.875 -29.1875 -7.761719 -27.386719 -9.710938 L -27.722656 -10.417969 C -29.457031 -8.996094 -30.5 -8.320312 -31.410156 -7.746094 C -31.726562 -7.550781 -31.75 -7.3125 -31.589844 -6.980469 L -23.566406 9.863281 L -22.824219 9.507812 C -23.234375 7.882812 -23.328125 7.019531 -21.957031 6.363281 L -4.261719 -2.066406 C -2.890625 -2.71875 -2.277344 -2.101562 -1.308594 -0.742188 Z M -0.53125 -1.113281 "/></g></g></g><g fill="#26110c" fill-opacity="1"><g transform="translate(46.102081, 244.426436)"><g><path d="M -0.304688 -1.195312 L -5.21875 -20.421875 C -6.113281 -20.109375 -6.882812 -20.125 -7.75 -20.203125 L -10.472656 -20.394531 L -10.238281 -19.480469 L -8.871094 -19.109375 C -7.402344 -18.679688 -6.042969 -17.839844 -5.28125 -15.359375 L -3.378906 -9.230469 C -2.910156 -7.570312 -3.472656 -6.789062 -4.707031 -6.472656 L -23.699219 -1.621094 C -25.171875 -1.242188 -25.664062 -2.007812 -26.390625 -3.519531 L -27.1875 -3.316406 L -25.027344 5.125 L -24.230469 4.921875 C -24.320312 3.246094 -24.246094 2.378906 -22.773438 2.003906 L -3.78125 -2.851562 C -2.308594 -3.226562 -1.828125 -2.503906 -1.140625 -0.980469 Z M -0.304688 -1.195312 "/></g></g></g><g fill="#26110c" fill-opacity="1"><g transform="translate(39.281396, 214.879714)"><g><path d="M -0.0664062 -1.230469 L -1.078125 -20.433594 C -1.097656 -20.804688 -1.316406 -21.039062 -1.6875 -21.0625 C -3.792969 -21.199219 -4.921875 -21.507812 -6.144531 -22.0625 L -6.101562 -21.238281 L -4.53125 -20.335938 C -3.386719 -19.738281 -2.4375 -18.921875 -2.238281 -15.929688 L -1.949219 -11.214844 C -1.75 -8.21875 -2.074219 -7.339844 -3.511719 -7.261719 L -10.9375 -6.871094 C -12.375 -6.796875 -12.75 -7.679688 -12.835938 -9.320312 L -13.050781 -13.382812 C -13.183594 -15.929688 -12.101562 -16.480469 -10.316406 -16.902344 L -10.351562 -17.558594 L -17.449219 -17.183594 L -17.414062 -16.527344 C -15.550781 -16.296875 -14.5 -15.859375 -14.363281 -13.316406 L -14.148438 -9.253906 C -14.0625 -7.609375 -14.34375 -6.691406 -15.78125 -6.613281 L -22.796875 -6.246094 C -24.234375 -6.167969 -24.609375 -7.054688 -24.695312 -8.695312 L -24.972656 -13.949219 C -25.121094 -16.738281 -24.011719 -18.320312 -21.601562 -19.433594 L -21.640625 -20.214844 C -23.789062 -19.566406 -25.011719 -19.335938 -26.070312 -19.15625 C -26.4375 -19.097656 -26.550781 -18.886719 -26.53125 -18.515625 L -25.546875 0.113281 L -24.726562 0.0703125 C -24.484375 -1.589844 -24.242188 -2.425781 -22.722656 -2.503906 L -3.148438 -3.539062 C -1.632812 -3.617188 -1.300781 -2.8125 -0.925781 -1.1875 Z M -0.0664062 -1.230469 "/></g></g></g><g fill="#26110c" fill-opacity="1"><g transform="translate(38.232656, 184.7042)"><g><path d="M 2.503906 -13.292969 C 3.464844 -19.421875 0.164062 -23.558594 -6.859375 -24.660156 L -18.671875 -26.515625 C -20.171875 -26.753906 -20.308594 -27.730469 -20.386719 -29.367188 L -21.199219 -29.492188 L -22.230469 -22.917969 L -21.417969 -22.789062 C -20.839844 -24.363281 -20.402344 -25.292969 -18.902344 -25.054688 L -7.371094 -23.246094 C -0.1875 -22.117188 1.480469 -18.152344 0.886719 -14.378906 C 0.203125 -10.035156 -3.300781 -7.839844 -9.878906 -8.871094 L -21.164062 -10.644531 C -22.664062 -10.882812 -22.816406 -11.777344 -22.886719 -13.453125 L -23.699219 -13.582031 L -25.050781 -4.972656 L -24.238281 -4.847656 C -23.65625 -6.417969 -23.246094 -7.1875 -21.746094 -6.949219 L -9.6875 -5.058594 C -2.378906 -3.910156 1.617188 -7.648438 2.503906 -13.292969 Z M 2.503906 -13.292969 "/></g></g></g><g fill="#26110c" fill-opacity="1"><g transform="translate(44.29541, 151.465373)"><g><path d="M 0.445312 -1.148438 L 3.75 -9.652344 L 2.945312 -9.964844 C 1.933594 -8.152344 1.351562 -7.453125 -0.0625 -8.003906 L -6.039062 -10.324219 C -7.457031 -10.875 -7.859375 -11.652344 -6.984375 -13.910156 C -5.761719 -17.050781 -3.921875 -18.273438 -0.0351562 -17.957031 C 4.304688 -17.546875 6.996094 -18.003906 8.453125 -21.753906 L 8.855469 -22.789062 L 8.050781 -23.101562 C 7.453125 -21.570312 5.617188 -21.492188 0.988281 -21.835938 C -1.171875 -22.058594 -3.609375 -21.683594 -5.183594 -19.558594 C -5.367188 -19.320312 -5.558594 -19.394531 -5.53125 -19.695312 C -5.066406 -23.613281 -6.242188 -26.140625 -9.34375 -27.347656 C -13.40625 -28.925781 -16.96875 -26.785156 -19.292969 -20.808594 L -23.339844 -10.390625 L -22.574219 -10.09375 C -21.671875 -11.503906 -21.105469 -12.167969 -19.6875 -11.617188 L -1.417969 -4.519531 C 0 -3.96875 -0.03125 -3.097656 -0.359375 -1.460938 Z M -8.476562 -13.695312 C -9.085938 -12.125 -9.90625 -11.828125 -11.324219 -12.378906 L -18.296875 -15.085938 C -19.636719 -15.609375 -19.667969 -16.324219 -19.324219 -17.207031 L -18.058594 -20.460938 C -16.496094 -24.484375 -13.753906 -24.960938 -10.652344 -23.757812 C -7.589844 -22.566406 -5.902344 -20.324219 -7.40625 -16.453125 Z M -8.476562 -13.695312 "/></g></g></g><g fill="#26110c" fill-opacity="1"><g transform="translate(56.854133, 121.609886)"><g><path d="M 5.707031 -8.15625 C 8.429688 -12.410156 9.492188 -17.730469 5.167969 -20.5 C 0.839844 -23.269531 -3.285156 -19.566406 -6.507812 -17.042969 C -9.316406 -14.792969 -11.839844 -13.285156 -14.644531 -15.078125 C -16.515625 -16.277344 -17.71875 -18.511719 -15.902344 -21.347656 C -14.128906 -24.117188 -10.714844 -25.492188 -6.554688 -24.441406 C -6.121094 -24.359375 -5.964844 -24.453125 -5.785156 -24.730469 C -5.121094 -25.769531 -7.777344 -27.566406 -10.820312 -28.144531 C -12.910156 -27.09375 -14.804688 -25.425781 -16.332031 -23.039062 C -19.476562 -18.125 -18.78125 -13.726562 -15.421875 -11.578125 C -11.824219 -9.273438 -8.152344 -10.972656 -4.355469 -14.007812 C -1.402344 -16.410156 1.105469 -18.804688 4.324219 -16.746094 C 6.886719 -15.105469 6.957031 -12.625 5.394531 -10.109375 C 3.347656 -6.832031 -0.273438 -5.445312 -4.394531 -6.472656 C -4.84375 -6.613281 -4.964844 -6.496094 -5.144531 -6.21875 C -5.808594 -5.179688 -3.152344 -3.382812 -0.109375 -2.800781 C 1.957031 -3.820312 3.890625 -5.316406 5.707031 -8.15625 Z M 5.707031 -8.15625 "/></g></g></g><g fill="#000000" fill-opacity="1"><g transform="translate(73.558638, 97.515308)"><g/></g></g><g fill="#b24a38" fill-opacity="1"><g transform="translate(83.003173, 85.972554)"><g><path d="M 11.226562 -8.269531 C 16.4375 -12.476562 18.996094 -18.664062 15.9375 -22.320312 C 14.332031 -24.246094 11.574219 -24.976562 8.011719 -22.523438 C 10.453125 -27.347656 13.160156 -32.171875 10.554688 -35.402344 C 8.644531 -37.765625 5.519531 -37.253906 3.507812 -35.625 C 2.578125 -34.878906 1.636719 -33.691406 1.269531 -32.445312 L 2.4375 -31.914062 C 3.730469 -33.90625 5.605469 -33.941406 6.820312 -32.4375 C 8.085938 -30.871094 7.480469 -29.066406 6.5 -26.160156 L 4.765625 -21.117188 C 4.132812 -19.285156 3.726562 -17.953125 4.578125 -16.898438 C 5.171875 -16.164062 6.007812 -16.042969 6.589844 -16.039062 L 7.675781 -16.917969 C 6.128906 -17.199219 5.628906 -19.066406 7.195312 -20.332031 C 8.695312 -21.542969 10.488281 -20.828125 11.78125 -19.226562 C 13.664062 -16.894531 14.394531 -12.785156 10.464844 -9.609375 C 6.722656 -6.589844 2.835938 -7.675781 0.5625 -10.488281 C -1.578125 -13.140625 -1.589844 -16.621094 1.800781 -18.246094 L 1.394531 -19.664062 C -1.960938 -18.324219 -4.734375 -20.257812 -6.050781 -21.890625 C -7.394531 -23.550781 -7.710938 -25.515625 -6.015625 -26.882812 C -4.675781 -27.964844 -2.953125 -27.402344 -1.996094 -26.21875 C -1.042969 -25.035156 0.332031 -25.035156 1.292969 -25.8125 C 2.3125 -26.636719 2.550781 -28.042969 1.570312 -29.257812 C -0.105469 -31.335938 -3.460938 -30.847656 -6.625 -28.292969 C -10.398438 -25.246094 -11.574219 -21.074219 -9.277344 -18.230469 C -7.703125 -16.277344 -5.03125 -15.585938 -2.929688 -16.648438 C -4.785156 -15.148438 -6.566406 -10.753906 -3.625 -7.105469 C -0.191406 -2.855469 6.078125 -4.113281 11.226562 -8.269531 Z M 11.226562 -8.269531 "/></g></g></g><g fill="#000000" fill-opacity="1"><g transform="translate(114.762314, 62.575576)"><g/></g></g><g fill="#26110c" fill-opacity="1"><g transform="translate(128.185452, 55.273603)"><g><path d="M 9.460938 -3.089844 C 14.199219 -4.855469 18.246094 -8.46875 16.449219 -13.28125 C 14.65625 -18.09375 9.132812 -17.613281 5.039062 -17.535156 C 1.441406 -17.421875 -1.480469 -17.734375 -2.644531 -20.855469 C -3.417969 -22.933594 -3.039062 -25.441406 0.121094 -26.621094 C 3.199219 -27.769531 6.757812 -26.8125 9.449219 -23.476562 C 9.746094 -23.148438 9.929688 -23.128906 10.238281 -23.242188 C 11.390625 -23.675781 10.347656 -26.707031 8.265625 -29 C 5.964844 -29.414062 3.449219 -29.21875 0.789062 -28.230469 C -4.675781 -26.191406 -6.761719 -22.257812 -5.371094 -18.523438 C -3.878906 -14.519531 0.078125 -13.667969 4.9375 -13.8125 C 8.742188 -13.960938 12.1875 -14.367188 13.519531 -10.785156 C 14.582031 -7.9375 13.144531 -5.910156 10.386719 -4.835938 C 6.785156 -3.449219 3.054688 -4.515625 0.375 -7.816406 C 0.101562 -8.195312 -0.0664062 -8.175781 -0.375 -8.0625 C -1.527344 -7.628906 -0.488281 -4.597656 1.597656 -2.304688 C 3.859375 -1.878906 6.304688 -1.910156 9.460938 -3.089844 Z M 9.460938 -3.089844 "/></g></g></g><g fill="#26110c" fill-opacity="1"><g transform="translate(155.297638, 45.82361)"><g><path d="M 1.214844 -0.203125 L 20.1875 -3.347656 C 20.550781 -3.410156 20.761719 -3.652344 20.742188 -4.023438 C 20.644531 -6.132812 20.824219 -7.285156 21.238281 -8.5625 L 20.429688 -8.429688 L 19.703125 -6.765625 C 19.238281 -5.566406 18.535156 -4.53125 15.582031 -4 L 10.925781 -3.1875 C 7.972656 -2.65625 7.0625 -2.878906 6.828125 -4.296875 L 5.609375 -11.636719 C 5.375 -13.054688 6.210938 -13.527344 7.832031 -13.796875 L 11.847656 -14.460938 C 14.359375 -14.878906 15.027344 -13.863281 15.648438 -12.132812 L 16.296875 -12.242188 L 15.132812 -19.253906 L 14.484375 -19.148438 C 14.464844 -17.269531 14.144531 -16.175781 11.632812 -15.757812 L 7.617188 -15.09375 C 5.996094 -14.824219 5.050781 -15 4.816406 -16.417969 L 3.667969 -23.351562 C 3.429688 -24.769531 4.269531 -25.242188 5.890625 -25.511719 L 11.078125 -26.371094 C 13.835938 -26.828125 15.53125 -25.902344 16.90625 -23.632812 L 17.675781 -23.757812 C 16.792969 -25.820312 16.429688 -27.007812 16.132812 -28.042969 C 16.03125 -28.402344 15.808594 -28.488281 15.445312 -28.429688 L -2.960938 -25.375 L -2.824219 -24.566406 C -1.148438 -24.507812 -0.292969 -24.359375 -0.0429688 -22.859375 L 3.164062 -3.523438 C 3.414062 -2.023438 2.648438 -1.605469 1.074219 -1.054688 Z M 1.214844 -0.203125 "/></g></g></g><g fill="#26110c" fill-opacity="1"><g transform="translate(185.172821, 41.418975)"><g><path d="M 20.25 -24.652344 L 20.214844 -23.832031 C 21.800781 -23.433594 22.609375 -23.109375 22.542969 -21.589844 L 21.8125 -4.964844 L 7.730469 -25.203125 L 2.351562 -25.4375 L 2.316406 -24.617188 C 3.941406 -24.21875 4.75 -23.894531 4.683594 -22.375 L 3.824219 -2.792969 C 3.757812 -1.273438 2.925781 -1.023438 1.269531 -0.808594 L 1.230469 0.0546875 L 7.59375 0.332031 L 7.632812 -0.527344 C 6.042969 -0.886719 5.277344 -1.207031 5.34375 -2.726562 L 6.15625 -21.242188 L 21.59375 0.949219 L 23.03125 1.011719 L 24.019531 -21.527344 C 24.085938 -23.042969 24.960938 -23.292969 26.617188 -23.550781 L 26.65625 -24.371094 Z M 20.25 -24.652344 "/></g></g></g><g fill="#26110c" fill-opacity="1"><g transform="translate(218.833218, 43.766253)"><g><path d="M 6.757812 1.765625 L 16.777344 4.382812 L 16.996094 3.550781 C 14.683594 2.648438 13.960938 2.160156 14.34375 0.691406 L 19.21875 -17.957031 C 19.570312 -19.308594 19.953125 -19.800781 22.9375 -19.023438 C 25.71875 -18.292969 26.464844 -17.25 26.730469 -13.867188 L 27.644531 -13.628906 L 28.390625 -19.082031 L 26.089844 -19.554688 L 10.347656 -23.671875 L 8.113281 -24.382812 L 6.09375 -19.261719 L 7.007812 -19.023438 C 8.933594 -21.832031 10.054688 -22.386719 12.839844 -21.660156 C 15.820312 -20.882812 15.953125 -20.253906 15.597656 -18.902344 L 10.726562 -0.253906 C 10.34375 1.214844 9.433594 1.277344 6.976562 0.929688 Z M 6.757812 1.765625 "/></g></g></g><g fill="#26110c" fill-opacity="1"><g transform="translate(249.032287, 52.458807)"><g><path d="M 1.105469 0.542969 L 18.367188 9.019531 C 18.699219 9.183594 19.011719 9.109375 19.210938 8.792969 C 20.355469 7.023438 21.179688 6.1875 22.257812 5.390625 L 21.519531 5.027344 L 19.964844 5.960938 C 18.882812 6.664062 17.710938 7.097656 15 5.8125 L 10.742188 3.765625 C 8.03125 2.480469 7.417969 1.765625 8.050781 0.476562 L 11.332031 -6.199219 C 11.964844 -7.492188 12.921875 -7.386719 14.398438 -6.664062 L 18.046875 -4.871094 C 20.335938 -3.746094 20.289062 -2.535156 19.785156 -0.765625 L 20.378906 -0.476562 L 23.511719 -6.855469 L 22.921875 -7.148438 C 21.808594 -5.632812 20.914062 -4.925781 18.628906 -6.050781 L 14.976562 -7.84375 C 13.5 -8.566406 12.835938 -9.261719 13.46875 -10.550781 L 16.566406 -16.859375 C 17.199219 -18.152344 18.15625 -18.046875 19.632812 -17.324219 L 24.351562 -15.003906 C 26.863281 -13.773438 27.699219 -12.03125 27.5 -9.382812 L 28.199219 -9.039062 C 28.679688 -11.230469 29.078125 -12.410156 29.4375 -13.421875 C 29.5625 -13.773438 29.433594 -13.972656 29.101562 -14.136719 L 12.355469 -22.359375 L 11.992188 -21.625 C 13.324219 -20.605469 13.933594 -19.984375 13.265625 -18.617188 L 4.625 -1.023438 C 3.953125 0.339844 3.089844 0.234375 1.488281 -0.230469 Z M 1.105469 0.542969 "/></g></g></g><g fill="#26110c" fill-opacity="1"><g transform="translate(275.893006, 66.249891)"><g><path d="M 10.382812 8.664062 C 15.265625 12.496094 20.488281 11.628906 24.875 6.035156 L 32.253906 -3.375 C 33.191406 -4.570312 34.113281 -4.214844 35.578125 -3.484375 L 36.085938 -4.128906 L 30.847656 -8.238281 L 30.339844 -7.589844 C 31.429688 -6.316406 32.027344 -5.484375 31.089844 -4.285156 L 23.890625 4.894531 C 19.402344 10.621094 15.128906 10.140625 12.121094 7.78125 C 8.660156 5.070312 8.453125 0.9375 12.5625 -4.300781 L 19.613281 -13.289062 C 20.550781 -14.484375 21.40625 -14.179688 22.902344 -13.421875 L 23.410156 -14.070312 L 16.554688 -19.445312 L 16.046875 -18.800781 C 17.140625 -17.527344 17.609375 -16.792969 16.667969 -15.597656 L 9.136719 -5.992188 C 4.574219 -0.171875 5.890625 5.140625 10.382812 8.664062 Z M 10.382812 8.664062 "/></g></g></g><g fill="#26110c" fill-opacity="1"><g transform="translate(301.960932, 87.744177)"><g><path d="M 0.785156 0.949219 L 6.597656 7.980469 L 7.265625 7.429688 C 6.175781 5.664062 5.847656 4.816406 7.019531 3.847656 L 11.960938 -0.238281 C 13.132812 -1.207031 14.003906 -1.183594 15.550781 0.683594 C 17.695312 3.28125 17.867188 5.484375 15.691406 8.722656 C 13.222656 12.3125 12.308594 14.882812 14.875 17.988281 L 15.582031 18.839844 L 16.246094 18.292969 C 15.199219 17.023438 16.027344 15.382812 18.582031 11.507812 C 19.832031 9.730469 20.691406 7.417969 19.605469 5.007812 C 19.484375 4.734375 19.644531 4.605469 19.890625 4.773438 C 23.085938 7.089844 25.867188 7.292969 28.433594 5.171875 C 31.789062 2.398438 31.660156 -1.757812 27.574219 -6.699219 L 20.449219 -15.3125 L 19.816406 -14.789062 C 20.609375 -13.3125 20.914062 -12.496094 19.742188 -11.527344 L 4.636719 0.964844 C 3.464844 1.933594 2.71875 1.484375 1.449219 0.398438 Z M 16.089844 -0.722656 C 15.019531 -2.023438 15.15625 -2.882812 16.328125 -3.851562 L 22.09375 -8.621094 C 23.203125 -9.535156 23.84375 -9.210938 24.445312 -8.484375 L 26.671875 -5.792969 C 29.421875 -2.46875 28.5 0.160156 25.933594 2.28125 C 23.402344 4.375 20.621094 4.753906 17.976562 1.554688 Z M 16.089844 -0.722656 "/></g></g></g><g fill="#26110c" fill-opacity="1"><g transform="translate(321.902453, 113.269221)"><g><path d="M 4.335938 8.957031 C 6.726562 13.410156 10.855469 16.933594 15.378906 14.507812 C 19.90625 12.078125 18.6875 6.671875 18.054688 2.625 C 17.457031 -0.921875 17.371094 -3.863281 20.304688 -5.433594 C 22.261719 -6.484375 24.800781 -6.445312 26.390625 -3.476562 C 27.945312 -0.578125 27.480469 3.074219 24.535156 6.191406 C 24.253906 6.53125 24.257812 6.714844 24.414062 7.003906 C 24.996094 8.089844 27.859375 6.648438 29.851562 4.273438 C 29.949219 1.9375 29.417969 -0.53125 28.078125 -3.027344 C 25.320312 -8.171875 21.140625 -9.707031 17.628906 -7.820312 C 13.859375 -5.800781 13.554688 -1.765625 14.351562 3.027344 C 15.011719 6.777344 15.878906 10.132812 12.511719 11.941406 C 9.832031 13.378906 7.628906 12.226562 6.195312 9.640625 C 4.332031 6.253906 4.886719 2.414062 7.792969 -0.683594 C 8.132812 -1.003906 8.09375 -1.167969 7.9375 -1.460938 C 7.355469 -2.546875 4.492188 -1.101562 2.5 1.269531 C 2.382812 3.570312 2.746094 5.988281 4.335938 8.957031 Z M 4.335938 8.957031 "/></g></g></g></svg>